<svg width="79" height="58" viewBox="0 0 79 58" fill="none" xmlns="http://www.w3.org/2000/svg">
<path opacity="0.7" fill-rule="evenodd" clip-rule="evenodd" d="M9.875 0C7.25599 0 4.74424 1.01043 2.89232 2.809C1.0404 4.60758 0 7.04697 0 9.59054V23.9763C0 26.5199 1.0404 28.9593 2.89232 30.7579C4.74424 32.5564 7.25599 33.5669 9.875 33.5669H24.6875C24.6875 37.3822 23.1269 41.0413 20.349 43.7392C17.5711 46.437 13.8035 47.9527 9.875 47.9527H4.9375C3.62799 47.9527 2.37212 48.4579 1.44616 49.3572C0.5202 50.2565 0 51.4762 0 52.748C0 54.0197 0.5202 55.2394 1.44616 56.1387C2.37212 57.038 3.62799 57.5432 4.9375 57.5432H9.875C16.4225 57.5432 22.7019 55.0171 27.3317 50.5207C31.9615 46.0243 34.5625 39.9258 34.5625 33.5669V9.59054C34.5625 7.04697 33.5221 4.60758 31.6702 2.809C29.8183 1.01043 27.3065 0 24.6875 0H9.875ZM54.3125 0C51.6935 0 49.1818 1.01043 47.3298 2.809C45.4779 4.60758 44.4375 7.04697 44.4375 9.59054V23.9763C44.4375 26.5199 45.4779 28.9593 47.3298 30.7579C49.1818 32.5564 51.6935 33.5669 54.3125 33.5669H69.125C69.125 37.3822 67.5644 41.0413 64.7865 43.7392C62.0086 46.437 58.241 47.9527 54.3125 47.9527H49.375C48.0655 47.9527 46.8096 48.4579 45.8837 49.3572C44.9577 50.2565 44.4375 51.4762 44.4375 52.748C44.4375 54.0197 44.9577 55.2394 45.8837 56.1387C46.8096 57.038 48.0655 57.5432 49.375 57.5432H54.3125C60.86 57.5432 67.1394 55.0171 71.7692 50.5207C76.399 46.0243 79 39.9258 79 33.5669V9.59054C79 7.04697 77.9596 4.60758 76.1077 2.809C74.2558 1.01043 71.744 0 69.125 0H54.3125Z" fill="#F5F5F5"/>
</svg>
