<svg width="44" height="44" viewBox="0 0 44 44" fill="none" xmlns="http://www.w3.org/2000/svg">
<circle cx="22" cy="22" r="22" transform="rotate(-180 22 22)" fill="#008695"/>
<path d="M28 16.3878L28 27.6122C28.0007 28.0554 27.8641 28.4896 27.6061 28.8647C27.3481 29.2398 26.9793 29.5405 26.5422 29.7318C26.0235 29.9558 25.4465 30.0421 24.8769 29.9808C24.3073 29.9195 23.7679 29.7132 23.3203 29.3852L15.8854 23.773C15.6074 23.5527 15.3846 23.2804 15.2318 22.9745C15.0791 22.6686 15 22.3363 15 22C15 21.6637 15.0791 21.3314 15.2318 21.0255C15.3846 20.7196 15.6074 20.4473 15.8854 20.227L23.3203 14.6148C23.7679 14.2868 24.3073 14.0805 24.8769 14.0192C25.4465 13.9579 26.0235 14.0442 26.5422 14.2682C26.9793 14.4595 27.3482 14.7602 27.6061 15.1353C27.8641 15.5104 28.0007 15.9446 28 16.3878Z" fill="white"/>
</svg>
