<svg width="600" height="600" viewBox="0 0 600 600" fill="none" xmlns="http://www.w3.org/2000/svg">
<path d="M486 163.812C486 163.812 426 74.4599 295.2 70.8839C227.376 69.0359 160.896 96.9719 112.98 144.288C60 196.62 40.8 270.288 36.3 342.624C33.828 383.052 37.26 425.496 58.068 460.332C73.044 485.412 96.168 504.936 121.452 519.792C177.6 552.792 244.248 574.968 309.6 577.2C483.6 583.2 566.4 458.064 567.6 383.016C568.8 307.968 517.2 303.192 510 244.8C502.8 186.408 501.6 194.784 486 163.812Z" fill="#008695"/>
<path opacity="0.7" d="M486 163.812C486 163.812 426 74.4599 295.2 70.8839C227.376 69.0359 160.896 96.9719 112.98 144.288C60 196.62 40.8 270.288 36.3 342.624C33.828 383.052 37.26 425.496 58.068 460.332C73.044 485.412 96.168 504.936 121.452 519.792C177.6 552.792 244.248 574.968 309.6 577.2C483.6 583.2 566.4 458.064 567.6 383.016C568.8 307.968 517.2 303.192 510 244.8C502.8 186.408 501.6 194.784 486 163.812Z" fill="white"/>
<path d="M486.696 479.16C489.312 478.188 492.384 476.232 493.248 473.412C493.474 472.753 493.559 472.054 493.497 471.361C493.434 470.667 493.227 469.994 492.887 469.386C492.547 468.778 492.083 468.249 491.525 467.832C490.967 467.415 490.328 467.121 489.648 466.968C485.544 466.152 480.048 471.408 478.296 474.684C478.14 474.96 476.196 479.676 476.268 479.676C476.34 479.676 483.6 480.288 486.696 479.16Z" fill="#008695"/>
<path d="M525.036 447.996C527.172 450.636 529.332 453.216 531.588 455.652C532.584 456.672 533.532 457.788 534.54 458.724L537.516 461.58L540.96 464.652C541.512 463.752 542.076 462.84 542.604 461.94L539.592 459.36L536.568 456.576C535.524 455.64 534.636 454.632 533.64 453.66C532.224 452.196 530.832 450.612 529.452 449.04C531.216 447.12 536.292 441.384 537.528 437.748C538.764 434.112 539.388 428.832 537.036 425.352C536.505 424.516 535.805 423.801 534.98 423.253C534.155 422.705 533.224 422.336 532.248 422.171C531.272 422.006 530.271 422.048 529.312 422.294C528.353 422.54 527.456 422.985 526.68 423.6C522.108 427.428 523.08 438.144 525.072 443.076C525.144 443.232 525.672 444.276 526.272 445.404C524.964 443.832 523.656 442.26 522.384 440.604C518.784 435.936 515.184 431.076 511.668 426.204L509.424 423.18C510.912 421.572 516.468 415.416 517.824 411.6C519.18 407.784 519.684 402.684 517.32 399.204C516.792 398.367 516.094 397.649 515.272 397.099C514.449 396.549 513.519 396.178 512.544 396.011C511.568 395.843 510.568 395.883 509.609 396.127C508.65 396.371 507.753 396.814 506.976 397.428C502.404 401.256 503.376 411.96 505.368 416.892C505.44 417.072 506.076 418.26 506.796 419.592C504.828 416.976 502.824 414.396 500.796 411.9C497.278 407.592 493.478 403.523 489.42 399.72C489.948 399.168 496.62 392.076 498.048 387.84C499.332 384.072 499.92 378.924 497.556 375.432C497.028 374.595 496.33 373.877 495.508 373.327C494.685 372.777 493.755 372.406 492.78 372.239C491.804 372.071 490.804 372.111 489.845 372.355C488.886 372.599 487.989 373.042 487.212 373.656C482.64 377.484 483.612 388.188 485.604 393.132C485.748 393.48 488.076 397.764 488.964 399.276L488.82 399.132C484.742 395.501 480.348 392.24 475.692 389.388C471.546 386.815 467.25 384.491 462.828 382.428C458.76 380.46 454.908 378.912 451.488 377.568C449.628 376.86 447.888 376.248 446.316 375.684L446.4 375.6C446.496 375.6 441.204 370.596 440.832 370.332C436.56 367.152 426.432 363.552 421.632 367.02C420.843 367.619 420.189 368.377 419.713 369.245C419.236 370.114 418.948 371.072 418.866 372.059C418.785 373.046 418.912 374.039 419.24 374.974C419.567 375.909 420.088 376.764 420.768 377.484C423.552 380.64 428.688 381.36 432.648 381.084C436.608 380.808 444.18 376.86 446.028 375.864C447.672 376.476 449.436 377.148 451.368 377.928C454.752 379.344 458.568 380.964 462.576 383.016C463.644 383.556 464.772 384.216 465.876 384.768C463.812 384.168 460.956 383.376 460.668 383.328C455.412 382.488 444.768 383.952 442.056 389.268C441.632 390.163 441.401 391.137 441.379 392.127C441.356 393.117 441.542 394.101 441.925 395.014C442.307 395.928 442.878 396.751 443.599 397.429C444.321 398.107 445.177 398.626 446.112 398.952C450.036 400.464 454.932 398.748 458.304 396.648C461.676 394.548 466.704 387.36 467.808 385.848C470.208 387.192 472.704 388.62 475.188 390.264C479.724 393.18 483.993 396.493 487.944 400.164C488.172 400.38 488.388 400.632 488.604 400.848C487.632 400.38 482.112 398.148 481.716 398.04C476.58 396.624 465.84 396.912 462.516 401.892C461.997 402.736 461.66 403.679 461.529 404.661C461.397 405.643 461.474 406.642 461.753 407.592C462.033 408.542 462.509 409.424 463.151 410.178C463.793 410.933 464.587 411.544 465.48 411.972C469.212 413.904 474.264 412.728 477.852 411.024C481.992 409.056 488.472 401.304 488.712 401.004C492.542 404.77 496.125 408.778 499.44 413.004C501.912 416.124 504.24 419.388 506.64 422.688C505.356 422.1 500.232 420.036 499.836 419.928C494.712 418.512 483.96 418.8 480.696 423.78C480.181 424.617 479.847 425.552 479.715 426.525C479.583 427.499 479.656 428.489 479.929 429.433C480.203 430.377 480.671 431.253 481.303 432.005C481.935 432.757 482.717 433.368 483.6 433.8C487.332 435.744 492.384 434.568 495.972 432.864C500.004 430.944 506.244 423.54 506.772 422.916C507.84 424.416 508.908 425.904 509.964 427.416C513.42 432.336 516.864 437.292 520.404 442.08C521.604 443.736 522.9 445.332 524.172 446.88C522.228 446.052 518.652 444.624 518.34 444.54C513.204 443.124 502.452 443.412 499.14 448.392C498.621 449.235 498.285 450.177 498.153 451.158C498.022 452.139 498.099 453.137 498.378 454.087C498.658 455.036 499.134 455.916 499.776 456.67C500.418 457.423 501.211 458.033 502.104 458.46C505.836 460.404 510.888 459.228 514.476 457.524C518.064 455.82 523.548 449.748 525.036 447.996Z" fill="#008695"/>
<path d="M411.264 471.012C411.264 471.336 412.26 476.328 412.332 476.292C412.404 476.256 418.788 472.692 420.732 470.112C422.388 467.856 423.876 464.532 423.036 461.712C422.86 461.039 422.545 460.41 422.111 459.867C421.677 459.323 421.133 458.877 420.515 458.557C419.898 458.237 419.22 458.05 418.525 458.008C417.831 457.967 417.135 458.072 416.484 458.316C412.608 459.9 410.976 467.28 411.264 471.012Z" fill="#008695"/>
<path d="M546.264 438.288C545.313 438.563 544.431 439.035 543.675 439.673C542.919 440.311 542.305 441.101 541.874 441.992C541.443 442.882 541.204 443.853 541.172 444.842C541.141 445.831 541.318 446.816 541.692 447.732C541.883 448.221 542.112 448.694 542.376 449.148C542.341 452.592 542.956 456.012 544.188 459.228C547.79 452.981 551.051 446.544 553.956 439.944C551.34 438.48 548.604 437.676 546.264 438.288Z" fill="#008695"/>
<path d="M449.46 544.464C449.76 543.528 450.156 542.676 450.504 541.752C451.056 540.432 451.704 539.088 452.304 537.756C454.032 538.356 459.156 540.012 461.904 539.784C464.652 539.556 468.168 538.476 469.74 535.968C470.138 535.392 470.41 534.738 470.537 534.049C470.663 533.36 470.643 532.652 470.476 531.972C470.309 531.291 470 530.654 469.57 530.102C469.139 529.55 468.595 529.095 467.976 528.768C464.22 526.896 457.596 530.532 454.98 533.22C454.896 533.304 454.404 533.928 453.78 534.672C454.428 533.388 455.076 532.092 455.772 530.808C457.752 527.208 459.888 523.524 462.024 519.864C462.456 519.096 462.888 518.328 463.332 517.56C464.784 518.076 470.316 519.96 473.148 519.672C475.98 519.384 479.412 518.364 480.984 515.868C481.382 515.292 481.654 514.638 481.781 513.949C481.907 513.26 481.887 512.552 481.72 511.872C481.553 511.191 481.244 510.554 480.814 510.002C480.383 509.45 479.839 508.995 479.22 508.668C475.464 506.796 468.84 510.432 466.224 513.108L464.892 514.788C466.02 512.784 467.124 510.768 468.144 508.788C469.929 505.294 471.48 501.687 472.788 497.988C473.292 498.168 479.736 500.46 482.868 500.196C485.664 499.956 489.144 498.888 490.716 496.38C491.114 495.804 491.386 495.15 491.513 494.461C491.639 493.772 491.619 493.064 491.452 492.384C491.285 491.703 490.976 491.066 490.546 490.514C490.115 489.962 489.571 489.507 488.952 489.18C485.196 487.32 478.572 490.956 475.956 493.632C475.776 493.824 473.664 496.536 472.944 497.532C472.944 497.532 472.944 497.436 472.944 497.4C474.134 493.747 475.001 489.997 475.536 486.192C476.017 482.799 476.301 479.382 476.388 475.956C476.508 472.776 476.388 469.86 476.316 467.28C476.256 465.888 476.172 464.604 476.076 463.416L476.148 463.476C476.208 463.476 477.912 458.676 477.984 458.4C478.812 454.8 478.296 447.216 474.696 445.068C474.087 444.73 473.414 444.524 472.721 444.463C472.027 444.401 471.328 444.487 470.67 444.713C470.011 444.939 469.407 445.302 468.898 445.776C468.388 446.251 467.984 446.827 467.712 447.468C466.512 450.156 467.436 453.66 468.744 456.132C470.052 458.604 474.744 462.372 475.884 463.272C475.956 464.472 476.016 465.84 476.052 467.304C476.052 469.872 476.124 472.788 475.932 475.944C475.932 476.784 475.8 477.696 475.74 478.572C475.536 477.072 475.248 474.972 475.188 474.816C474.252 471.216 470.316 464.748 466.128 464.496C465.432 464.476 464.74 464.602 464.095 464.866C463.451 465.13 462.87 465.527 462.389 466.031C461.908 466.534 461.539 467.133 461.304 467.789C461.07 468.444 460.976 469.142 461.028 469.836C461.16 472.788 463.644 475.452 465.948 477.036C468.252 478.62 474.348 479.856 475.62 480.096C475.44 482.04 475.212 484.032 474.852 486.096C474.251 489.843 473.32 493.53 472.068 497.112C471.996 497.316 471.888 497.52 471.816 497.724C471.816 496.968 471.72 492.78 471.684 492.492C471.144 488.784 467.94 481.944 463.812 481.248C463.123 481.148 462.42 481.195 461.75 481.385C461.08 481.575 460.458 481.905 459.925 482.353C459.391 482.8 458.958 483.355 458.654 483.982C458.35 484.608 458.181 485.292 458.16 485.988C457.956 488.94 460.14 491.856 462.252 493.692C464.652 495.804 471.504 497.784 471.756 497.868C470.406 501.397 468.831 504.836 467.04 508.164C465.72 510.636 464.292 513.084 462.828 515.52C462.828 514.536 462.732 510.648 462.684 510.372C462.156 506.664 458.94 499.824 454.812 499.116C454.119 499.019 453.412 499.071 452.74 499.266C452.068 499.461 451.444 499.797 450.911 500.25C450.377 500.703 449.945 501.264 449.643 501.896C449.342 502.528 449.177 503.216 449.16 503.916C448.968 506.868 451.14 509.784 453.252 511.62C455.652 513.672 462.156 515.604 462.708 515.772L460.8 519.144C458.604 522.744 456.384 526.344 454.296 529.944C453.576 531.144 452.904 532.476 452.232 533.736C452.232 532.248 452.136 529.548 452.1 529.32C451.56 525.624 448.356 518.772 444.228 518.076C443.534 517.978 442.827 518.027 442.154 518.222C441.481 518.416 440.857 518.752 440.323 519.205C439.789 519.659 439.357 520.221 439.056 520.853C438.755 521.486 438.591 522.176 438.576 522.876C438.372 525.828 440.556 528.756 442.668 530.58C444.78 532.404 450.24 534.18 451.776 534.636C450.672 536.748 449.628 538.872 448.692 541.008C448.32 541.944 447.864 542.868 447.552 543.78L446.544 546.492C446.088 547.86 445.668 549.168 445.26 550.452L447.984 549.096L448.56 547.212L449.46 544.464Z" fill="#008695"/>
<path d="M444.492 550.344C444.492 546.6 442.392 539.352 438.408 538.032C437.741 537.832 437.04 537.774 436.35 537.862C435.659 537.951 434.995 538.184 434.401 538.546C433.807 538.909 433.295 539.392 432.9 539.965C432.505 540.538 432.235 541.188 432.108 541.872C432.028 542.231 431.984 542.597 431.976 542.964C430.157 545.708 429.075 548.873 428.832 552.156C428.832 552.396 429.036 555.228 429.18 556.68C428.796 555.54 428.412 554.412 428.04 553.224C427.488 551.52 426.948 549.696 426.432 547.92L425.712 545.124C425.436 544.176 425.304 543.24 425.088 542.28C424.812 540.876 424.596 539.412 424.38 537.96C426.156 537.492 431.34 536.052 433.464 534.36C435.588 532.668 437.964 529.8 437.904 526.848C437.912 526.151 437.774 525.461 437.497 524.821C437.221 524.181 436.814 523.607 436.301 523.135C435.788 522.663 435.182 522.304 434.522 522.082C433.861 521.859 433.162 521.778 432.468 521.844C428.316 522.36 424.8 529.044 424.068 532.728C424.068 532.848 423.984 533.64 423.912 534.576C423.732 533.148 423.564 531.72 423.444 530.256C423.084 526.128 422.856 521.856 422.604 517.68C422.604 516.792 422.496 515.916 422.436 515.04C423.936 514.656 429.564 513.144 431.784 511.44C434.004 509.736 436.284 506.892 436.224 503.928C436.232 503.233 436.094 502.543 435.818 501.904C435.543 501.265 435.136 500.691 434.625 500.22C434.114 499.748 433.509 499.389 432.85 499.166C432.191 498.943 431.493 498.86 430.8 498.924C426.636 499.44 423.12 506.124 422.4 509.808C422.4 509.94 422.304 510.888 422.22 511.944C422.052 509.652 421.86 507.36 421.596 505.104C421.16 501.218 420.467 497.366 419.52 493.572C420.06 493.44 426.72 491.808 429.12 489.852C431.304 488.112 433.62 485.304 433.56 482.34C433.566 481.644 433.427 480.955 433.15 480.317C432.873 479.678 432.465 479.105 431.952 478.635C431.44 478.164 430.834 477.807 430.175 477.585C429.515 477.363 428.817 477.283 428.124 477.348C423.972 477.852 420.444 484.548 419.724 488.22C419.724 488.484 419.412 491.904 419.364 493.128V492.996C418.346 489.283 416.997 485.668 415.332 482.196C413.866 479.1 412.223 476.091 410.412 473.184C408.756 470.472 407.064 468.084 405.612 465.984C404.784 464.856 404.016 463.848 403.272 462.9H403.368C403.44 462.9 402.168 457.956 402.096 457.656C400.788 454.152 396.18 448.152 392.004 448.356C391.309 448.407 390.633 448.604 390.019 448.933C389.405 449.263 388.868 449.719 388.442 450.27C388.017 450.822 387.712 451.457 387.548 452.134C387.384 452.811 387.365 453.515 387.492 454.2C387.924 457.128 390.684 459.516 393.132 460.848C395.58 462.18 401.532 462.756 403.032 462.876C403.764 463.86 404.556 464.928 405.432 466.128C406.896 468.264 408.516 470.676 410.112 473.412C410.532 474.144 410.964 474.936 411.396 475.716C410.4 474.516 408.996 473.004 408.864 472.872C406.08 470.364 399.264 467.16 395.664 469.272C395.073 469.639 394.566 470.126 394.176 470.701C393.785 471.276 393.519 471.927 393.396 472.611C393.273 473.296 393.294 473.998 393.46 474.674C393.625 475.349 393.93 475.982 394.356 476.532C396.096 478.932 399.636 479.772 402.432 479.832C405.228 479.892 410.964 477.576 412.188 477.048C413.112 478.764 414.024 480.552 414.864 482.472C416.427 485.926 417.68 489.512 418.608 493.188C418.608 493.404 418.68 493.632 418.74 493.848C418.344 493.188 415.932 489.768 415.74 489.552C413.244 486.756 406.8 482.82 402.96 484.512C402.332 484.813 401.775 485.242 401.324 485.772C400.872 486.301 400.537 486.92 400.341 487.588C400.144 488.255 400.089 488.956 400.181 489.646C400.272 490.336 400.508 490.999 400.872 491.592C402.336 494.16 405.756 495.396 408.528 495.756C411.72 496.176 418.512 494.076 418.764 493.992C419.584 497.683 420.165 501.423 420.504 505.188C420.78 507.972 420.924 510.804 421.056 513.648C420.528 512.808 418.284 509.64 418.104 509.424C415.608 506.628 409.164 502.692 405.324 504.384C404.695 504.683 404.136 505.112 403.684 505.641C403.231 506.171 402.896 506.79 402.699 507.458C402.502 508.126 402.448 508.828 402.54 509.518C402.633 510.209 402.87 510.872 403.236 511.464C404.688 514.032 408.12 515.268 410.892 515.628C414.012 516.036 420.492 514.056 421.068 513.888C421.128 515.172 421.188 516.468 421.236 517.764C421.392 521.988 421.524 526.164 421.788 530.4C421.884 531.852 422.028 533.268 422.16 534.696C421.332 533.496 419.76 531.264 419.616 531.096C417.132 528.3 410.676 524.364 406.848 526.056C406.218 526.353 405.658 526.779 405.205 527.307C404.752 527.835 404.415 528.453 404.216 529.12C404.018 529.787 403.963 530.489 404.055 531.179C404.146 531.869 404.382 532.532 404.748 533.124C406.212 535.704 409.644 536.928 412.404 537.3C415.164 537.672 420.708 536.1 422.244 535.656C422.496 538.056 422.784 540.372 423.192 542.664C423.384 543.648 423.528 544.668 423.768 545.604C424.008 546.54 424.2 547.5 424.428 548.424C424.944 550.332 425.424 552.108 425.952 553.872C426.204 554.76 426.48 555.6 426.744 556.464C426.084 555.096 425.004 552.936 424.884 552.756C422.844 549.612 417.06 544.752 413.016 545.844C412.349 546.044 411.733 546.382 411.205 546.836C410.678 547.29 410.252 547.85 409.956 548.479C409.659 549.108 409.498 549.793 409.484 550.489C409.47 551.184 409.602 551.875 409.872 552.516C410.928 555.276 414.132 557.016 416.82 557.796C419.784 558.66 426.3 557.796 427.092 557.616C427.164 557.856 427.236 558.084 427.32 558.324C428.052 558.036 428.784 557.76 429.504 557.46C430.236 557.16 435.888 554.772 438.168 552.588L439.284 553.272C441.052 552.472 442.796 551.648 444.516 550.8C444.517 550.648 444.509 550.496 444.492 550.344Z" fill="#008695"/>
<path d="M562.632 345.012C559.864 348.301 557.896 352.186 556.884 356.364C556.812 356.724 556.392 361.596 556.296 363.348V363.144C554.892 357.866 553.024 352.722 550.716 347.772C548.676 343.343 546.38 339.035 543.84 334.872C541.512 330.984 539.16 327.564 537.048 324.564C535.848 322.944 534.804 321.492 533.772 320.136H533.892C534 320.136 532.32 313.104 532.164 312.672C530.352 307.668 523.896 299.064 517.932 299.292C516.944 299.357 515.982 299.628 515.106 300.089C514.23 300.55 513.461 301.19 512.849 301.968C512.237 302.745 511.795 303.643 511.552 304.602C511.31 305.561 511.271 306.561 511.44 307.536C512.016 311.712 515.904 315.144 519.372 317.076C522.84 319.008 531.372 319.908 533.412 320.1C534.456 321.516 535.548 323.052 536.724 324.78C538.776 327.816 541.044 331.272 543.276 335.196C543.864 336.24 544.476 337.38 545.064 338.484C543.672 336.84 541.728 334.608 541.464 334.416C537.54 330.816 527.856 326.148 522.66 329.088C521.812 329.601 521.082 330.287 520.516 331.1C519.951 331.914 519.564 332.838 519.379 333.812C519.195 334.785 519.217 335.787 519.446 336.751C519.674 337.715 520.103 338.621 520.704 339.408C523.104 342.84 528.168 344.1 532.14 344.208C536.292 344.328 544.308 341.112 546.06 340.392C547.344 342.852 548.616 345.396 549.78 348.144C551.957 353.081 553.692 358.201 554.964 363.444C554.964 363.744 555.06 364.068 555.132 364.368C554.58 363.444 551.208 358.548 550.932 358.224C547.428 354.216 538.308 348.528 532.836 350.88C531.937 351.295 531.135 351.894 530.483 352.64C529.831 353.386 529.343 354.26 529.052 355.207C528.761 356.154 528.673 357.151 528.794 358.134C528.914 359.117 529.241 360.064 529.752 360.912C531.792 364.596 536.652 366.396 540.552 366.912C545.088 367.56 554.772 364.668 555.132 364.512C556.254 369.772 557.032 375.099 557.46 380.46C557.796 384.432 557.976 388.464 558.108 392.46C557.376 391.26 554.232 386.712 553.968 386.46C550.464 382.452 541.344 376.752 535.872 379.104C534.972 379.52 534.17 380.121 533.518 380.868C532.866 381.614 532.379 382.49 532.088 383.438C531.797 384.385 531.709 385.383 531.829 386.367C531.95 387.351 532.277 388.299 532.788 389.148C534.828 392.82 539.688 394.632 543.588 395.148C548.016 395.772 557.304 393.036 558.084 392.808C558.156 394.644 558.228 396.48 558.276 398.328C558.432 404.328 558.564 410.328 558.888 416.328C558.996 418.392 559.176 420.42 559.356 422.448C558.156 420.684 555.996 417.528 555.756 417.276C552.252 413.268 543.132 407.568 537.66 409.932C536.761 410.347 535.959 410.946 535.307 411.692C534.655 412.438 534.167 413.312 533.876 414.259C533.585 415.206 533.497 416.203 533.618 417.186C533.738 418.169 534.065 419.116 534.576 419.964C536.616 423.636 541.476 425.448 545.376 425.964C549.276 426.48 557.196 424.392 559.392 423.768C559.392 424.224 559.5 424.668 559.536 425.124C560.268 423 560.916 420.888 561.54 418.8C561.456 417.912 561.372 417.024 561.3 416.124C560.868 410.244 560.592 404.244 560.304 398.22C560.244 397.02 560.16 395.712 560.1 394.464C561.228 394.188 564.024 393.468 566.868 392.496C567.204 389.208 567.408 385.992 567.456 382.896C567.504 379.8 567.456 376.956 567.336 374.148C563.789 377.675 561.296 382.122 560.136 386.988C560.136 387.168 559.968 388.524 559.836 390.024C559.632 386.76 559.392 383.496 559.044 380.28C558.484 374.749 557.558 369.261 556.272 363.852C559.612 363.066 562.893 362.043 566.088 360.792C565.349 355.45 564.194 350.174 562.632 345.012Z" fill="#008695"/>
<path d="M458.46 360C455.052 364.908 458.82 374.976 462.06 379.2C462.336 379.56 467.364 384.78 467.412 384.684C467.46 384.588 472.392 375.468 472.668 370.8C472.908 366.828 472.116 361.716 468.912 358.98C468.183 358.307 467.321 357.796 466.381 357.48C465.441 357.164 464.444 357.05 463.457 357.147C462.47 357.243 461.515 357.547 460.653 358.039C459.792 358.53 459.045 359.199 458.46 360Z" fill="#008695"/>
<path d="M521.892 467.304C521.25 468.058 520.775 468.939 520.496 469.889C520.217 470.84 520.142 471.838 520.274 472.819C520.407 473.8 520.744 474.743 521.265 475.585C521.785 476.428 522.477 477.151 523.296 477.708C525.56 479.172 528.261 479.808 530.94 479.508C534.252 475.02 537.324 470.472 540.18 465.912C534.936 464.052 525.6 463.2 521.892 467.304Z" fill="#008695"/>
<path d="M544.944 331.788C544.944 332.256 546.3 339.372 546.396 339.324C546.492 339.276 553.848 335.328 557.388 331.812C554.89 326.693 552.014 321.767 548.784 317.076C546.099 321.502 544.765 326.615 544.944 331.788Z" fill="#008695"/>
<path d="M179.304 544.968C178.68 540.588 174.876 532.488 169.992 531.66C169.176 531.545 168.345 531.603 167.553 531.83C166.761 532.057 166.025 532.448 165.394 532.977C164.762 533.507 164.249 534.163 163.888 534.904C163.527 535.644 163.325 536.452 163.296 537.276C163.234 538.934 163.651 540.576 164.496 542.004C169.416 544.212 174.384 546.312 179.4 548.34C179.388 546.78 179.34 545.16 179.304 544.968Z" fill="#008695"/>
<path d="M203.844 507.912C204.444 508.128 212.064 510.84 215.784 510.528C219.072 510.252 223.2 508.98 225.072 506.016C225.534 505.334 225.847 504.562 225.992 503.75C226.137 502.939 226.109 502.106 225.911 501.306C225.713 500.506 225.349 499.757 224.843 499.107C224.336 498.457 223.699 497.92 222.972 497.532C218.532 495.324 210.696 499.632 207.6 502.8C207.384 503.028 204.888 506.232 204 507.408C204.015 507.358 204.035 507.31 204.06 507.264C205.467 502.943 206.487 498.506 207.108 494.004C207.686 489.987 208.03 485.941 208.14 481.884C208.272 478.116 208.14 474.684 208.044 471.612C207.972 469.968 207.876 468.456 207.768 467.04L207.84 467.112C207.912 467.112 209.928 461.484 210.012 461.112C211.008 456.792 210.384 447.912 206.124 445.332C205.404 444.931 204.608 444.686 203.787 444.613C202.966 444.54 202.139 444.64 201.36 444.907C200.58 445.174 199.865 445.602 199.262 446.163C198.658 446.724 198.179 447.406 197.856 448.164C196.38 451.332 197.532 455.484 199.056 458.412C200.58 461.34 206.112 465.792 207.456 466.812C207.54 468.276 207.612 469.848 207.66 471.612C207.66 474.66 207.732 478.104 207.516 481.848C207.516 482.844 207.36 483.912 207.288 484.956C207.048 483.18 206.7 480.744 206.64 480.504C205.536 476.22 200.868 468.588 195.912 468.3C195.091 468.277 194.274 468.428 193.515 468.741C192.756 469.054 192.071 469.524 191.506 470.119C190.94 470.714 190.506 471.422 190.231 472.196C189.956 472.97 189.848 473.793 189.912 474.612C190.056 478.116 193.008 481.26 195.72 483.144C198.432 485.028 205.62 486.48 207.168 486.744C206.964 489.036 206.688 491.4 206.268 493.836C205.556 498.269 204.452 502.63 202.968 506.868C202.884 507.108 202.764 507.348 202.668 507.588C202.668 506.688 202.56 501.744 202.512 501.396C201.876 497.016 198.084 488.916 193.188 488.088C192.373 487.973 191.542 488.031 190.751 488.258C189.959 488.485 189.224 488.876 188.594 489.406C187.964 489.936 187.452 490.592 187.092 491.333C186.731 492.073 186.531 492.881 186.504 493.704C186.264 497.196 188.844 500.652 191.304 502.824C194.172 505.32 202.248 507.624 202.548 507.756C200.952 511.936 199.088 516.008 196.968 519.948C195.408 522.864 193.716 525.768 191.988 528.66C191.988 527.46 191.868 522.888 191.82 522.552C191.184 518.172 187.392 510.072 182.496 509.244C181.681 509.129 180.85 509.187 180.059 509.414C179.267 509.641 178.532 510.032 177.902 510.562C177.272 511.092 176.76 511.748 176.4 512.489C176.039 513.229 175.839 514.037 175.812 514.86C175.584 518.352 178.152 521.808 180.612 523.98C183.42 526.38 191.136 528.708 191.796 528.9L189.396 532.824C186.78 537.108 184.152 541.38 181.692 545.676C181.116 546.66 180.588 547.656 180.06 548.652L182.04 549.444C182.52 548.52 182.988 547.596 183.492 546.672C185.892 542.364 188.376 538.056 190.884 533.724C191.412 532.812 191.916 531.9 192.444 531C194.16 531.6 200.712 533.784 204.048 533.508C207.384 533.232 211.464 531.948 213.336 528.996C213.798 528.314 214.112 527.542 214.256 526.73C214.401 525.919 214.373 525.086 214.175 524.286C213.977 523.487 213.613 522.737 213.107 522.087C212.6 521.437 211.963 520.9 211.236 520.512C206.796 518.304 198.96 522.612 195.864 525.78C195.756 525.888 195.06 526.776 194.292 527.76C195.624 525.36 196.92 522.96 198.144 520.56C200.32 516.474 202.224 512.249 203.844 507.912Z" fill="#008695"/>
<path d="M144.492 531.156C144.492 530.112 144.36 529.08 144.288 528.036C146.064 527.58 152.688 525.792 155.352 523.716C158.016 521.64 160.68 518.328 160.608 514.836C160.62 514.012 160.459 513.195 160.133 512.438C159.808 511.681 159.327 511.001 158.721 510.442C158.115 509.884 157.398 509.46 156.617 509.197C155.836 508.935 155.008 508.841 154.188 508.92C149.256 509.52 145.092 517.44 144.264 521.784C144.264 521.94 144.144 523.056 144.048 524.316C143.844 521.592 143.616 518.892 143.304 516.216C142.81 511.619 142.008 507.061 140.904 502.572C141.528 502.416 149.388 500.484 152.316 498.168C154.908 496.116 157.644 492.78 157.572 489.288C157.583 488.464 157.419 487.646 157.093 486.889C156.766 486.132 156.284 485.452 155.677 484.894C155.07 484.336 154.352 483.912 153.571 483.649C152.789 483.387 151.961 483.293 151.14 483.372C146.22 483.972 142.056 491.892 141.228 496.236C141.168 496.548 140.856 500.604 140.796 502.056V501.888C139.574 497.507 137.968 493.242 135.996 489.144C134.261 485.478 132.314 481.916 130.164 478.476C128.196 475.26 126.204 472.476 124.428 469.956C123.444 468.624 122.532 467.424 121.668 466.356H121.764C121.86 466.356 120.396 460.512 120.264 460.152C118.716 456.012 113.268 448.908 108.264 449.148C107.449 449.211 106.657 449.444 105.937 449.831C105.218 450.218 104.587 450.751 104.086 451.396C103.584 452.041 103.223 452.784 103.025 453.577C102.827 454.37 102.797 455.195 102.936 456C103.452 459.456 106.716 462.288 109.62 463.872C112.524 465.456 119.58 466.128 121.32 466.272C122.196 467.472 123.12 468.672 124.116 470.136C125.844 472.644 127.716 475.5 129.648 478.752C130.152 479.604 130.656 480.552 131.16 481.464C129.96 480.108 128.352 478.272 128.172 478.116C124.884 475.152 116.784 471.36 112.5 473.844C111.804 474.276 111.205 474.849 110.745 475.527C110.284 476.205 109.97 476.971 109.824 477.778C109.678 478.584 109.703 479.412 109.898 480.209C110.092 481.005 110.451 481.751 110.952 482.4C113.004 485.244 117.192 486.24 120.552 486.312C123.912 486.384 130.644 483.636 132.096 483.012C133.188 485.052 134.268 487.164 135.264 489.432C137.111 493.521 138.592 497.766 139.692 502.116C139.692 502.368 139.788 502.644 139.848 502.896C139.38 502.116 136.524 498.096 136.248 497.82C133.308 494.508 125.676 489.852 121.128 491.82C120.381 492.174 119.717 492.682 119.18 493.31C118.643 493.939 118.244 494.673 118.011 495.466C117.777 496.259 117.714 497.093 117.825 497.912C117.937 498.731 118.22 499.518 118.656 500.22C120.384 503.256 124.44 504.72 127.716 505.152C131.496 505.644 139.524 503.148 139.836 503.064C140.802 507.416 141.492 511.825 141.9 516.264C142.212 519.564 142.392 522.912 142.548 526.284C141.912 525.288 139.26 521.484 139.044 521.28C136.092 517.98 128.46 513.312 123.924 515.28C123.117 515.639 122.409 516.188 121.859 516.879C121.31 517.571 120.935 518.385 120.768 519.252L121.452 519.66C126.364 522.548 131.36 525.348 136.44 528.06C139.404 527.472 142.176 526.632 142.56 526.512C142.56 528.036 142.692 529.56 142.752 531.096V531.6L144.552 532.512L144.492 531.156Z" fill="#008695"/>
<path d="M156.144 536.088C155.291 536.22 154.474 536.527 153.744 536.988C156.632 538.38 159.548 539.74 162.492 541.068C162.288 539.576 161.512 538.222 160.327 537.292C159.142 536.363 157.642 535.931 156.144 536.088Z" fill="#008695"/>
<path d="M223.8 471.12C218.94 470.16 212.508 476.376 210.36 480.252C210.18 480.588 207.876 486.156 207.96 486.156C208.044 486.156 216.636 486.876 220.284 485.544C223.392 484.404 227.028 482.088 228.048 478.74C228.314 477.962 228.414 477.136 228.34 476.317C228.267 475.497 228.022 474.703 227.621 473.984C227.22 473.266 226.673 472.639 226.015 472.146C225.357 471.652 224.602 471.303 223.8 471.12Z" fill="#008695"/>
<path d="M200.184 552.78C200.648 552.099 200.964 551.328 201.11 550.517C201.257 549.705 201.231 548.872 201.034 548.072C200.837 547.272 200.473 546.522 199.967 545.871C199.461 545.22 198.823 544.684 198.096 544.296C193.656 542.088 185.82 546.396 182.724 549.564L182.652 549.636C187.596 551.596 192.584 553.456 197.616 555.216C198.647 554.611 199.526 553.778 200.184 552.78Z" fill="#008695"/>
<path d="M137.208 460.872C132.624 462.756 130.692 471.492 131.04 475.908C131.04 476.28 132.24 482.196 132.24 482.16C132.24 482.124 139.884 477.972 142.188 474.84C144.144 472.176 145.908 468.24 144.912 464.88C144.703 464.089 144.332 463.351 143.821 462.713C143.31 462.074 142.672 461.549 141.947 461.172C141.221 460.795 140.425 460.573 139.609 460.521C138.793 460.47 137.975 460.589 137.208 460.872Z" fill="#008695"/>
<path d="M303.204 224.796L283.2 236.004L256.404 213.6L269.196 197.604L303.204 224.796Z" fill="white" stroke="#263238" stroke-miterlimit="10"/>
<path d="M155.388 471.6C155.388 471.6 154.38 476.628 165.948 477.6C173.041 478.226 180.095 479.231 187.08 480.612C187.08 480.612 172.488 463.512 175.008 447.408C177.528 431.304 169.476 436.332 164.436 447.408C160.979 455.3 157.958 463.376 155.388 471.6Z" fill="#008695" stroke="#263238" stroke-miterlimit="10"/>
<path d="M271.62 274.908C271.62 274.908 270.108 303.084 272.616 310.128C275.124 317.172 299.796 366.984 305.832 374.028C308.803 377.324 311.497 380.86 313.884 384.6C313.884 384.6 303.312 382.584 294.756 387.612C286.2 392.64 285.156 406.236 285.708 413.28C286.26 420.324 277.152 453.024 262.056 463.092C246.96 473.16 220.8 478.692 206.712 469.632C192.624 460.572 173.496 460.572 165.912 463.092C161.457 464.544 157.696 467.591 155.352 471.648C155.352 471.648 148.8 442.464 163.392 407.736C177.984 373.008 186.576 325.2 186.576 325.2C186.576 325.2 260.544 272.868 261.552 269.844C262.56 266.82 272.112 260.82 271.62 274.908Z" fill="#008695" stroke="#263238" stroke-miterlimit="10"/>
<path d="M260.244 334.032C260.664 336.516 261.168 338.988 261.78 341.424" stroke="#263238" stroke-miterlimit="10"/>
<path d="M259.896 287.34C258.155 300.499 257.941 313.816 259.26 327.024" stroke="#263238" stroke-miterlimit="10"/>
<path d="M187.812 404.964C187.964 410.233 188.51 415.484 189.444 420.672" stroke="#263238" stroke-miterlimit="10"/>
<path d="M198.888 333.252C198.888 333.252 188.676 364.656 187.8 396.132" stroke="#263238" stroke-miterlimit="10"/>
<path d="M246 291.6L242.004 318.804C242.004 318.804 265.2 385.2 266.796 390C268.392 394.8 316.404 422.004 319.596 422.796C322.788 423.588 359.604 439.596 359.604 439.596L318.804 493.2L249.996 466.8H238.8C234 466.8 223.596 455.604 223.596 453.204V427.596C223.596 427.596 218.796 401.196 218.796 381.996C218.796 362.796 219.6 328.404 219.6 328.404L216.396 307.596L246 291.6Z" fill="white" stroke="#263238" stroke-miterlimit="10"/>
<path d="M282.396 228C273.846 223.384 265.802 217.886 258.396 211.596C246.804 201.6 237.6 199.2 231.6 201.996C225.6 204.792 221.604 212.4 221.604 212.4C221.604 212.4 211.2 215.196 206.004 220.8C200.808 226.404 179.604 252.804 176.796 260.796C173.988 268.788 173.196 271.2 173.196 271.2C173.196 271.2 228.804 237.204 244.8 232.404C260.796 227.604 279.6 236.004 283.2 236.004C286.8 236.004 288 235.2 282.396 228Z" fill="#008695" stroke="#263238" stroke-miterlimit="10"/>
<path d="M221.604 212.4C221.604 212.4 242.4 210 265.2 223.2" stroke="#263238" stroke-miterlimit="10"/>
<path d="M136.404 327.6C136.404 327.6 89.196 336.396 81.996 336.396C74.796 336.396 59.604 337.2 52.8 335.604C45.996 334.008 38.796 334.404 40.8 346.8C42.804 359.196 45.528 358.236 45.204 367.2C44.952 374.076 49.2 391.596 54.804 395.196C60.408 398.796 62.796 396 62.004 388.404C61.212 380.808 66.804 363.996 69.6 360.804C71.6534 358.573 73.9337 356.562 76.404 354.804C76.404 354.804 104.004 356.4 118.8 357.996C133.596 359.592 141.996 362.4 144 362.4C146.004 362.4 153.6 348.804 150.804 340.8C150.804 340.8 148.404 332.004 136.404 327.6Z" fill="white" stroke="#263238" stroke-miterlimit="10"/>
<path d="M74.472 356.268C72.864 355.62 65.82 352.8 64.404 352.8C62.988 352.8 51.108 347.22 58.02 336.312C56.265 336.205 54.5202 335.968 52.8 335.604C45.996 333.996 38.796 334.404 40.8 346.8C42.804 359.196 45.948 362.064 45.204 367.2C44.208 374.004 49.2 391.596 54.804 395.196C60.408 398.796 62.796 396 62.004 388.404C61.212 380.808 66.804 363.996 69.6 360.804C71.0893 359.154 72.7194 357.636 74.472 356.268Z" fill="white" stroke="#263238" stroke-miterlimit="10"/>
<path d="M50.628 369.276C50.628 360.36 46.38 357.384 45.096 344.22C44.6884 341.228 44.7572 338.191 45.3 335.22C41.808 336.108 39.576 339.192 40.8 346.8C42.804 359.196 45.948 362.064 45.204 367.2C44.208 374.004 49.2 391.596 54.804 395.196C56.0411 396.145 57.5422 396.686 59.1 396.744C52.86 389.364 50.628 377.64 50.628 369.276Z" fill="white" stroke="#263238" stroke-miterlimit="10"/>
<path d="M127.2 356.544C127.2 356.544 130.32 360.228 143.076 361.344C155.832 362.46 167.448 365.304 174.276 366.444C181.104 367.584 187.032 368.712 188.736 366.156C190.44 363.6 188.448 364.176 173.424 355.956C158.4 347.736 137.712 350.568 134.028 351.156C130.344 351.744 127.2 356.544 127.2 356.544Z" fill="#263238" stroke="#263238" stroke-miterlimit="10"/>
<path d="M177.996 359.604C177.996 359.604 181.2 365.604 171.6 371.604C162 377.604 105.996 413.196 105.996 413.196C105.996 413.196 108.804 435.204 110.796 441.996C112.788 448.788 117.6 451.2 116.004 453.996C114.408 456.792 105.6 457.596 96 452.4C86.4 447.204 68.796 425.196 67.596 420.804C66.396 416.412 82.8 405.6 82.8 405.6C82.8 405.6 90 401.604 96.396 397.2C102.792 392.796 114 373.596 122.004 367.596C130.008 361.596 135.996 360 135.996 360L136.8 351.204C136.8 351.204 165.996 344.004 177.996 359.604Z" fill="white" stroke="#263238" stroke-miterlimit="10"/>
<path d="M96.396 414C93.7503 415.686 91.4461 417.856 89.604 420.396C89.604 420.396 86.22 411.732 83.604 405.144L82.8 405.6C82.8 405.6 66.396 416.4 67.596 420.804C68.796 425.208 86.4 447.204 96 452.4C105.6 457.596 114.396 456.804 116.004 453.996C117.612 451.188 112.8 448.8 110.796 441.996C108.792 435.192 105.996 413.196 105.996 413.196C105.996 413.196 100.8 411.204 96.396 414Z" fill="white" stroke="#263238" stroke-miterlimit="10"/>
<path d="M116.004 453.996C116.19 453.67 116.296 453.304 116.315 452.929C116.334 452.554 116.264 452.18 116.112 451.836C107.85 451.719 99.9364 448.493 93.948 442.8C84.024 433.584 73.548 420 70.308 415.68C68.4 417.6 67.2 419.496 67.596 420.804C68.796 425.196 86.4 447.204 96 452.4C105.6 457.596 114.396 456.804 116.004 453.996Z" fill="white" stroke="#263238" stroke-miterlimit="10"/>
<path d="M151.2 286.14C147.523 288.933 144.586 292.583 142.644 296.772C138 307.008 133.8 321.6 133.8 328.2C133.8 336.6 127.8 352.8 127.8 352.8C127.8 352.8 124.8 358.2 129 357C133.2 355.8 146.4 353.4 157.8 355.2C166.644 356.592 180.192 363.78 185.82 366.924C186.857 367.525 188.085 367.703 189.249 367.421C190.413 367.14 191.425 366.42 192.072 365.412C192.412 364.868 192.594 364.241 192.6 363.6C192.6 360.6 193.2 346.2 193.2 346.2L220.8 318L177 266.4L151.2 286.14Z" fill="white" stroke="#263238" stroke-miterlimit="10"/>
<path d="M149.016 318.228C149.016 318.228 140.796 341.46 142.224 343.956C143.652 346.452 148.308 344.316 158.664 346.464C169.02 348.612 181.896 349.68 182.256 347.172C182.616 344.664 177.972 316.8 177.972 316.8L149.016 318.228Z" fill="white" stroke="#263238" stroke-miterlimit="10"/>
<path d="M148.8 313.8L146.16 322.872C146.16 322.872 157.2 321.6 166.2 321.6C175.2 321.6 179.4 324 179.4 324V315C179.4 315 158.4 310.2 148.8 313.8Z" fill="white" stroke="#263238" stroke-miterlimit="10"/>
<path d="M155.1 293.208C155.1 293.208 177.972 294.636 189.768 302.148" stroke="#263238" stroke-miterlimit="10"/>
<path d="M168.672 281.412C168.672 281.412 184.044 293.928 192.264 304.644" stroke="#263238" stroke-miterlimit="10"/>
<path d="M193.2 346.2L192.984 311.076" stroke="#263238" stroke-miterlimit="10"/>
<path d="M317.4 235.2L319.2 257.4L295.8 262.2L220.8 318L177 266.4C177 266.4 207.6 239.4 226.2 232.8C244.8 226.2 253.596 218.4 272.004 226.8C290.412 235.2 303.6 235.8 303.6 235.8L317.4 235.2Z" fill="#263238" stroke="#263238" stroke-miterlimit="10"/>
<path d="M318.12 168.828C318.78 173.004 320.016 177.084 320.664 181.26C321.312 185.436 319.98 188.28 319.98 191.892C319.98 194.124 327.42 197.892 325.188 201.192C324.586 202.149 323.767 202.951 322.798 203.532C321.828 204.114 320.736 204.459 319.608 204.54C317.208 206.328 315.888 215.868 314.916 218.712C313.944 221.556 313.656 223.32 311.232 224.892C308.148 226.884 303.048 227.292 299.52 227.604C290.592 228.348 282.78 221.604 279.804 219.792C276.828 217.98 272.364 210.12 272.364 210.12C272.364 210.12 258.024 204.804 257.652 203.688C257.28 202.572 263.808 179.988 269.016 176.268C274.224 172.548 281.292 155.052 294.684 155.052C308.076 155.052 318.12 168.816 318.12 168.828Z" fill="white" stroke="#263238" stroke-miterlimit="10"/>
<path d="M314.976 191.064C315.204 192.648 314.496 194.052 313.404 194.208C312.312 194.364 311.244 193.212 311.004 191.616C310.764 190.02 311.484 188.628 312.576 188.472C313.668 188.316 314.76 189.468 314.976 191.064Z" fill="#263238"/>
<path d="M308.4 183.336C308.4 183.336 312.12 175.512 318.444 184.08" stroke="#263238" stroke-miterlimit="10"/>
<path d="M315.144 212.724C315.144 212.724 304.344 210.492 303.24 203.424" stroke="#263238" stroke-miterlimit="10"/>
<path d="M287.616 179.616L285.828 196.548L282.828 192.876C282.828 192.876 284.028 196.812 282.492 197.556C280.956 198.3 278.256 190.608 277.14 189.864C276.024 189.12 269.076 191.064 271.428 201.744C273.828 212.772 273.828 213.084 271.62 212.16C271.62 212.16 270.504 216.816 264.552 217.56C258.6 218.304 243.66 203.064 240.876 196.512C236.844 186.984 240.576 167.184 240.576 167.184L234.576 167.556C234.576 167.556 234.204 164.952 236.436 164.208C238.668 163.464 244.62 161.232 244.62 161.232C243.988 159.717 243.759 158.065 243.955 156.435C244.15 154.806 244.764 153.254 245.736 151.932C249.096 147.132 250.536 154.908 250.536 154.908C255.598 148.759 262.198 144.06 269.664 141.288C281.94 136.824 302.772 140.172 302.772 140.172L295.704 141.66C295.704 141.66 308.352 142.032 313.56 143.52C318.768 145.008 329.568 155.424 325.092 155.796C322.588 155.986 320.101 156.359 317.652 156.912C317.652 156.912 328.812 164.352 329.196 167.712C329.58 171.072 312.072 170.688 306.12 171.06L294.588 171.804C294.588 171.804 299.388 180 297.564 180.372C295.74 180.744 287.616 179.616 287.616 179.616Z" fill="#263238" stroke="#263238" stroke-miterlimit="10"/>
<path d="M280.92 197.472C280.92 197.472 276.804 185.112 270.888 187.548C265.584 189.732 263.364 197.76 269.496 203.904C275.628 210.048 282.6 205.284 282.6 205.284" fill="white"/>
<path d="M280.92 197.472C280.92 197.472 276.804 185.112 270.888 187.548C265.584 189.732 263.364 197.76 269.496 203.904C275.628 210.048 282.6 205.284 282.6 205.284" stroke="#263238" stroke-miterlimit="10"/>
<path d="M317.604 251.604L346.404 242.796C346.404 242.796 354.396 240.396 362.4 238.8C370.404 237.204 398.4 227.604 398.4 227.604L396 217.2L317.4 235.2L317.604 251.604Z" fill="white" stroke="#263238" stroke-miterlimit="10"/>
<path d="M408 210C408 210 415.5 208.8 417.3 210C419.1 211.2 423.3 221.4 423.6 223.8C423.9 226.2 412.5 227.4 412.5 227.4L408 210Z" fill="white" stroke="#263238" stroke-miterlimit="10"/>
<path d="M414.3 210.3C414.3 210.3 421.2 223.2 421.2 225.9" stroke="#263238" stroke-miterlimit="10"/>
<path d="M408 210C408 210 416.1 222.6 417 226.5" stroke="#263238" stroke-miterlimit="10"/>
<path d="M408.516 226.296C408.516 226.296 410.1 230.1 411.3 230.7C412.5 231.3 420.6 232.2 422.1 231.3C423.6 230.4 416.7 225.6 414 224.1C411.3 222.6 409.644 223.092 408.516 226.296Z" fill="white" stroke="#263238" stroke-miterlimit="10"/>
<path d="M273 246L295.8 262.2L287.4 241.8L273 246Z" fill="#008695" stroke="#263238" stroke-miterlimit="10"/>
<path d="M294.888 259.572C294.888 259.572 289.236 272.1 284.844 281.172C280.452 290.244 290.4 311.58 290.4 311.58C294.343 306.899 297.596 301.678 300.06 296.076C303.564 287.604 304.008 272.7 304.008 272.7L294.888 259.572Z" fill="#008695" stroke="#263238" stroke-miterlimit="10"/>
<path d="M303.276 258.936C303.276 258.936 308.544 257.472 317.904 258.936C327.264 260.4 335.448 268.872 338.964 274.728C342.48 280.584 344.22 284.328 344.22 284.328C344.22 284.328 322.872 290.184 312.048 279.948C301.224 269.712 303.276 258.936 303.276 258.936Z" fill="#008695" stroke="#263238" stroke-miterlimit="10"/>
<path d="M292.2 253.2L297 265.2C297 265.2 304.008 274.5 304.008 272.7C304.008 270.9 304.2 256.8 304.2 256.8L292.2 253.2Z" fill="#008695" stroke="#263238" stroke-miterlimit="10"/>
<path d="M304.2 256.8L312.924 239.628L302.688 239.04L298.884 254.544L304.2 256.8Z" fill="#008695" stroke="#263238" stroke-miterlimit="10"/>
<path d="M303.996 262.404C310.838 265.408 317.045 269.688 322.284 275.016" stroke="#263238" stroke-miterlimit="10"/>
<path d="M299.184 268.872C299.184 268.872 298.596 292.284 291.576 298.716" stroke="#263238" stroke-miterlimit="10"/>
<path d="M413.148 222.96C413.148 222.96 414.684 227.58 413.4 228.348C412.116 229.116 403.896 234.516 402.6 231.948C401.304 229.38 406.452 226.032 406.452 226.032L413.148 222.96Z" fill="white" stroke="#263238" stroke-miterlimit="10"/>
<path d="M268.8 227.196L303.204 224.796C303.204 224.796 322.8 220.404 339.996 218.4C357.192 216.396 377.196 213.996 377.196 213.996C377.196 213.996 405.204 208.8 407.196 208.8C409.188 208.8 414.396 219.6 414.396 222.396C414.396 225.192 408.804 225.996 405.996 228C403.811 229.642 401.131 230.488 398.4 230.4C396.327 230.195 394.301 229.656 392.4 228.804C389.116 229.792 385.779 230.593 382.404 231.204C377.604 231.996 369.732 229.116 369.732 229.116C369.732 229.116 301.2 249.6 287.196 249.996C273.192 250.392 256.404 252 256.404 252L268.8 227.196Z" fill="white" stroke="#263238" stroke-miterlimit="10"/>
<path d="M392.4 228.804C392.4 228.804 388.74 226.548 392.076 225.78C395.412 225.012 396.96 225.78 396.96 225.78" stroke="#263238" stroke-miterlimit="10"/>
<path d="M400.812 215.508L403.38 229.632" stroke="#263238" stroke-miterlimit="10"/>
<path d="M406.728 212.16L408.516 226.296" stroke="#263238" stroke-miterlimit="10"/>
<path d="M219.204 240C219.204 240 230.004 226.404 245.604 223.596C261.204 220.788 272.004 226.8 272.004 226.8L253.596 264.396L236.796 252.804" fill="#263238"/>
<path d="M219.204 240C219.204 240 230.004 226.404 245.604 223.596C261.204 220.788 272.004 226.8 272.004 226.8L253.596 264.396L236.796 252.804" stroke="#263238" stroke-miterlimit="10"/>
<path d="M417.012 282C417.012 282 396.432 287.496 390.924 294.216C380.808 306.552 374.832 306.42 374.832 306.42C374.832 306.42 357.6 305.808 357.6 310.248C357.89 315.075 358.447 319.882 359.268 324.648C359.268 324.648 347.052 346.248 344.868 355.176C342.684 364.104 350.424 368.496 356.52 369.576C359.848 370.093 363.05 371.224 365.964 372.912L365.4 393.996C365.4 393.996 371.508 393.996 392.052 396.216C404.141 397.46 415.949 400.649 427.02 405.66C427.02 405.66 420.36 392.34 426.456 375.132C432.552 357.924 450.324 325.176 451.44 322.404C452.556 319.632 455.328 301.308 445.332 291.876C435.336 282.444 425.34 282 417.012 282Z" fill="white" stroke="#263238" stroke-miterlimit="10"/>
<path d="M385.308 310.884C383.244 312.084 381.072 312.156 380.508 311.088C379.944 310.02 381.06 308.172 383.124 306.984C385.188 305.796 387.36 305.7 387.924 306.78C388.488 307.86 387.372 309.696 385.308 310.884Z" fill="#263238"/>
<path d="M355.308 333.864C355.308 333.864 360.936 337.62 368.436 333.492" stroke="#263238" stroke-miterlimit="10"/>
<path d="M368.064 331.236L370.308 334.236" stroke="#263238" stroke-miterlimit="10"/>
<path d="M389.808 299.748C389.808 299.748 397.68 297.12 394.68 305.364" stroke="#263238" stroke-miterlimit="10"/>
<path d="M422.568 261.408C422.568 261.408 408.684 266.952 410.904 275.28C413.124 283.608 422.004 296.4 422.004 296.4C422.004 296.4 412.572 294.18 410.352 303.06C408.857 309.464 407.743 315.952 407.016 322.488C407.016 322.488 394.8 332.4 392.592 333.6C390.384 334.8 396.48 340.8 396.48 340.8C396.48 340.8 411.468 333.036 420.9 342.468C430.332 351.9 410.4 363.528 410.4 363.528L398.184 365.748C398.754 370.088 400.432 374.207 403.057 377.709C405.683 381.211 409.166 383.977 413.172 385.74C427.056 391.836 438.156 391.836 443.172 389.064C448.188 386.292 456.492 381.3 458.16 379.632C459.828 377.964 469.812 381.852 480.96 366.312C492.108 350.772 487.62 316.908 483.732 305.256C481.163 297.977 476.771 291.478 470.976 286.38C470.976 286.38 478.74 283.056 472.08 280.272C468.135 278.62 464.051 277.323 459.876 276.396C459.876 276.396 461.532 256.968 453.216 255.852C444.9 254.736 432.672 266.952 432.672 266.952C432.672 266.952 440.328 250.308 422.568 261.408Z" fill="#263238" stroke="#263238" stroke-miterlimit="10"/>
<path d="M249.6 395.196C249.6 395.196 232.404 325.596 230.004 316.8C227.604 308.004 230.4 303.996 231.6 300C232.8 296.004 239.604 281.604 237.204 277.2C234.804 272.796 233.604 270.396 234 266.4C234.396 262.404 230.796 260.4 227.196 264C223.596 267.6 224.004 271.596 225.204 275.604C226.404 279.612 225.204 281.196 225.204 281.196C225.204 281.196 213.204 270.804 212.4 269.196C211.596 267.588 209.196 259.2 209.196 259.2C209.196 259.2 205.2 248.004 203.604 247.2C202.008 246.396 199.2 246.804 200.004 252C200.808 257.196 201.6 263.604 201.6 263.604L201.996 270.804L200.004 274.8L194.4 264.804C194.4 264.804 195.6 254.004 193.2 253.596C190.8 253.188 189.204 258.804 188.4 261.204C187.596 263.604 187.596 269.196 187.596 269.196C187.596 269.196 180.804 270.396 180.804 275.604C180.804 280.812 189.996 293.196 189.996 293.196L189.6 296.796L182.004 295.2C182.004 295.2 181.2 292.8 177.6 288.396C174 283.992 171.996 293.196 174.804 296.796C177.612 300.396 181.2 304.404 185.196 305.196C189.192 305.988 200.004 310.404 200.004 310.404L203.196 313.596C203.196 313.596 205.596 374.4 205.2 392.796C204.804 411.192 206.4 429.996 210 438C213.6 446.004 223.596 442.404 223.596 442.404C223.596 442.404 236.796 415.2 240 408.396C243.204 401.592 249.6 395.196 249.6 395.196Z" fill="white" stroke="#263238" stroke-miterlimit="10"/>
<path d="M187.596 269.196L189.204 276L193.2 281.604" stroke="#263238" stroke-miterlimit="10"/>
<path d="M418.8 528.6C418.8 525.6 438.6 474 438 455.4C437.4 436.8 434.4 413.724 434.4 413.724C434.4 413.724 426.984 405.72 421.2 403.8C415.416 401.88 379.8 394.8 365.388 394.056C350.976 393.312 345.6 396.6 333.6 401.4C321.6 406.2 301.8 441 297.6 450.6C293.4 460.2 288 489.6 282.6 502.8C278.628 512.496 259.44 550.38 249.54 569.796C269.311 573.979 289.405 576.457 309.6 577.2C347.16 578.484 380.46 573.66 409.62 564.552C413.628 549.804 418.8 530.4 418.8 528.6Z" fill="#008695" stroke="#263238" stroke-miterlimit="10"/>
<path d="M348.78 482.004C356.116 484.922 363.598 487.457 371.196 489.6" stroke="#263238" stroke-miterlimit="10"/>
<path d="M312.396 465.6C312.396 465.6 325.356 472.32 341.556 479.076" stroke="#263238" stroke-miterlimit="10"/>
<path d="M354.132 507.084C355.956 508.276 357.78 509.38 359.604 510.396" stroke="#263238" stroke-miterlimit="10"/>
<path d="M306.396 464.4C306.396 464.4 326.4 487.2 348 502.932" stroke="#263238" stroke-miterlimit="10"/>
<path d="M435.924 411.48C435.924 411.48 438.924 400.236 435.552 396.48C432.18 392.724 408.552 386.4 380.4 386.4C352.248 386.4 336.156 398.016 336.156 398.016C336.156 398.016 370.644 396.516 398.4 403.644C426.156 410.772 434.4 413.76 434.4 413.76L435.924 411.48Z" fill="#008695" stroke="#263238" stroke-miterlimit="10"/>
<path d="M406.8 420C406.8 420 394.8 406.2 372.6 399.6C350.4 393 255 402 255 402C255 402 246.6 399 240 409.8C233.4 420.6 226.2 441 230.4 446.4C234.6 451.8 237 458.4 238.8 459C240.6 459.6 366.6 476.4 366.6 476.4" fill="#008695"/>
<path d="M406.8 420C406.8 420 394.8 406.2 372.6 399.6C350.4 393 255 402 255 402C255 402 246.6 399 240 409.8C233.4 420.6 226.2 441 230.4 446.4C234.6 451.8 237 458.4 238.8 459C240.6 459.6 366.6 476.4 366.6 476.4" stroke="#263238" stroke-miterlimit="10"/>
<path d="M273 425.712C283.8 431.232 298.14 437.868 311.196 441.6" stroke="#263238" stroke-miterlimit="10"/>
<path d="M255.996 416.4C255.996 416.4 258.972 418.188 263.832 420.852" stroke="#263238" stroke-miterlimit="10"/>
<path d="M305.424 455.712C309.327 457.871 313.401 459.705 317.604 461.196" stroke="#263238" stroke-miterlimit="10"/>
<path d="M249.204 416.796C249.204 416.796 273.876 436.716 296.004 450.276" stroke="#263238" stroke-miterlimit="10"/>
<path d="M256.8 402.396C256.8 402.396 242.796 415.2 238.404 431.604C234.012 448.008 240.396 458.004 240.396 458.004L244.8 459.6C244.8 459.6 244.8 462 241.596 461.604C238.392 461.208 226.8 463.2 221.196 458.796C215.592 454.392 213.996 433.596 220.404 413.604C226.812 393.612 243.996 390.396 249.6 392.004C255.204 393.612 266.4 397.2 266.4 399.204C266.4 401.208 256.8 402.396 256.8 402.396Z" fill="#008695" stroke="#263238" stroke-miterlimit="10"/>
</svg>
