<svg width="12" height="12" viewBox="0 0 12 12" fill="none" xmlns="http://www.w3.org/2000/svg">
<path d="M6.00025 9.54096L2.87014 11.8993C2.75984 11.9744 2.6492 12.0075 2.53821 11.9986C2.42722 11.9897 2.32519 11.9587 2.23212 11.9055C2.13906 11.8523 2.0684 11.7721 2.02014 11.665C1.97188 11.558 1.97085 11.4444 2.01704 11.3243L3.21242 7.43837L0.239482 5.31531C0.125045 5.24438 0.0519714 5.154 0.0202601 5.04418C-0.0114512 4.93436 -0.00593642 4.82488 0.0368049 4.71574C0.0795462 4.60661 0.143659 4.51896 0.229141 4.45279C0.314624 4.38663 0.41872 4.35354 0.541429 4.35354H4.2744L5.4946 0.386755C5.54147 0.266022 5.60903 0.171209 5.69727 0.102316C5.78482 0.0341052 5.88582 0 6.00025 0C6.11469 0 6.21568 0.0341052 6.30323 0.102316C6.39147 0.171209 6.45903 0.266022 6.50591 0.386755L7.72611 4.35354H11.4591C11.5811 4.35354 11.6852 4.38663 11.7714 4.45279C11.8575 4.51896 11.9216 4.60661 11.9637 4.71574C12.0058 4.82488 12.0113 4.93436 11.9802 5.04418C11.9478 5.15468 11.8748 5.2454 11.761 5.31634L8.78809 7.43837L9.98347 11.3243C10.0297 11.4451 10.0286 11.5586 9.98036 11.665C9.93211 11.7715 9.86145 11.8516 9.76838 11.9055C9.67532 11.9594 9.57329 11.9904 9.4623 11.9986C9.35131 12.0068 9.24066 11.9737 9.13036 11.8993L6.00025 9.54096Z" fill="#FFA600"/>
</svg>
