<svg width="129" height="137" viewBox="0 0 129 137" fill="none" xmlns="http://www.w3.org/2000/svg">
<mask id="mask0_0_97" style="mask-type:luminance" maskUnits="userSpaceOnUse" x="0" y="0" width="129" height="94">
<path d="M128.568 0H0V93.2065H128.568V0Z" fill="white"/>
</mask>
<g mask="url(#mask0_0_97)">
<path d="M103.058 67.7722C103.403 64.4449 103.713 60.5976 103.812 57.1708L115.032 55.3353C115.06 55.3305 115.088 55.3195 115.112 55.3031C115.136 55.2868 115.156 55.2654 115.171 55.2404C115.237 55.1225 115.283 54.9941 115.306 54.8606C116.25 50.1081 116.938 45.3075 117.366 40.4798C117.814 35.5566 117.909 30.3938 117.182 25.561C116.886 23.2671 116.181 21.0461 115.099 19.0057C114.214 17.4712 112.908 16.2265 111.338 15.4207C107.788 13.5219 103.556 12.4641 99.6694 11.8447C92.4078 10.6783 84.8859 10.3257 77.7096 10.3347C64.9805 10.3995 52.2641 11.1541 39.6155 12.5952C39.5491 12.5983 39.4858 12.6243 39.436 12.6687C39.3862 12.7131 39.3529 12.7733 39.3418 12.8393C38.6446 15.9557 38.0223 19.0916 37.4748 22.2472C37.4243 22.4162 37.3643 22.5823 37.2952 22.7445L26.2817 23.5085C26.2817 23.5085 26.358 22.957 26.376 22.853C27.1599 17.9675 27.9423 13.9213 28.7232 10.7145L30.5184 3.41331C30.5255 3.38265 30.5418 3.35493 30.5651 3.3339C30.5884 3.31288 30.6175 3.29957 30.6485 3.29577C44.7441 1.39731 58.9358 0.312042 73.1543 0.045272C82.9202 -0.12652 92.6456 0.131168 102.277 1.75868C106.773 2.46936 111.152 3.79569 115.292 5.70086C117.232 6.6204 119.043 7.7939 120.678 9.19096C126 13.7706 127.908 21.1034 128.379 27.8485C128.642 31.6218 128.642 35.409 128.379 39.1823C128.001 44.518 127.315 49.8269 126.324 55.0822C125.929 57.1648 125.299 60.1094 124.434 63.9159C124.42 63.9801 124.387 64.0387 124.34 64.0845C124.293 64.1302 124.234 64.1612 124.169 64.1736C117.383 65.5027 109.696 66.8273 103.076 67.7903L103.058 67.7722Z" fill="#F4D708"/>
<path d="M25.0251 33.9968C25.2989 31.0266 25.6804 27.0935 26.1336 24.1459C26.1651 23.9289 26.2817 23.5084 26.2817 23.5084H26.3715L37.2953 22.7444C37.3623 22.7528 37.4302 22.7528 37.4972 22.7444C38.5444 22.6962 40.8139 22.6103 44.3055 22.4867C50.3553 22.2758 56.5203 22.3074 62.8005 22.5817C67.447 22.7793 72.0786 23.2426 76.6729 23.9696C82.2919 24.8737 88.0993 26.4334 93.0092 29.3946C96.131 31.2388 98.6717 33.9344 100.338 37.1705C102.546 41.4291 103.48 46.4247 103.718 51.2529C103.834 53.432 103.867 55.4031 103.816 57.1662C103.713 60.593 103.403 64.4403 103.062 67.7676L91.9455 69.1239C84.9263 69.9256 77.8742 70.459 70.7892 70.7243C66.1336 70.8991 61.3464 70.8448 56.4276 70.5615C52.8076 70.3592 49.2074 69.8878 45.6564 69.151C39.2386 67.7947 32.2732 64.9511 28.6873 59.1147C26.2907 55.2132 25.263 50.7376 24.9219 46.1805C24.6152 42.1236 24.6497 38.0479 25.0251 33.9968ZM83.7729 36.4923C77.7411 34.2907 71.2694 33.5131 64.7663 33.0927C59.5303 32.7551 53.8694 32.6496 47.7837 32.7762C43.2957 32.8696 39.3927 33.0203 36.0745 33.2283C36.0526 33.2303 36.0321 33.24 36.0165 33.2557C36.0009 33.2714 35.9913 33.2921 35.9893 33.3142C35.4911 38.2871 35.3026 43.7393 36.2002 48.7167C36.7433 51.7231 37.8787 54.5938 40.4907 56.1987C41.9388 57.0818 43.4961 57.7689 45.1223 58.2422C47.8989 59.0498 50.7425 59.6021 53.6181 59.8923C57.1042 60.2534 60.6066 60.4315 64.111 60.4257C73.6845 60.3666 83.2466 59.7477 92.7489 58.5722C92.7883 58.5679 92.8248 58.5496 92.852 58.5206C92.8791 58.4916 92.8951 58.4538 92.897 58.414C93.0677 55.2326 92.9625 52.0424 92.5828 48.8795C92.2193 45.855 91.2858 41.9581 89.1226 39.6615C87.7986 38.2555 85.5726 37.1298 83.7684 36.4743" fill="#00C40A"/>
<path d="M25.0251 33.9969L14.8104 35.0096C14.7814 35.0101 14.7535 35.0208 14.7314 35.0398C14.7093 35.0587 14.6944 35.0848 14.6892 35.1135C13.5253 40.1166 12.5799 45.2508 11.8528 50.5161C11.045 56.3932 10.5782 62.3427 11.0764 68.2243C11.3367 71.2849 12.1176 75.2045 14.218 77.3609C16.3184 79.5174 20.0524 80.7154 23.0818 81.3528C26.4198 82.0498 29.8064 82.4851 33.2112 82.6549C42.2634 83.1069 51.3606 82.6549 60.5385 81.7823C70.5887 80.8179 80.5296 79.4616 90.3613 77.7136C90.3981 77.7068 90.432 77.6889 90.4584 77.6623C90.4849 77.6356 90.5027 77.6015 90.5094 77.5644L91.9276 69.1375L103.044 67.7812C102.557 71.847 102.024 75.3039 101.447 78.1521C100.887 80.8917 100.289 83.6329 99.6514 86.3755C99.6441 86.4216 99.6222 86.464 99.5891 86.4966C99.556 86.5292 99.5133 86.5501 99.4674 86.5564C85.615 89.2952 71.6224 91.2573 57.554 92.4335C47.9363 93.2382 37.8832 93.5818 28.1981 92.655C24.9392 92.3483 21.7097 91.7814 18.5399 90.9597C14.3975 89.8792 10.2237 88.0528 7.01475 85.1911C2.10938 80.7787 0.412918 73.7488 0.0987581 67.2613C-0.0873599 63.4768 -0.0138813 59.6838 0.31867 55.9095C0.986405 48.5332 2.15603 41.2118 3.8193 33.9969C4.36983 31.5858 5.02957 28.8733 5.79851 25.8594C5.80729 25.8145 5.83052 25.7738 5.86459 25.7435C5.89867 25.7133 5.9417 25.6952 5.987 25.6921C12.701 24.7879 19.4674 24.0646 26.2862 23.5221" fill="#052ED8"/>
</g>
<path d="M14.4693 128.184C11.8962 128.184 9.8826 127.315 8.42849 125.576C7.12697 124.051 6.47622 122.083 6.47622 119.672V115.006L12.1535 111.986V119.305C12.1535 120.511 12.4034 121.373 12.903 121.891C13.4027 122.41 14.2285 122.661 15.3804 122.646H30.1908C31.3427 122.646 32.161 122.387 32.6457 121.869C33.1304 121.35 33.3727 120.496 33.3727 119.305V110.888L39.0905 107.868V119.672C39.0905 122.447 38.2273 124.613 36.5009 126.168C34.9869 127.509 33.0421 128.18 30.6665 128.18L14.4693 128.184ZM18.8496 106.905C18.4477 106.924 18.0462 106.859 17.6707 106.713C17.2952 106.568 16.9539 106.345 16.6684 106.059C16.3922 105.763 16.1776 105.414 16.0373 105.033C15.897 104.651 15.8339 104.246 15.8516 103.84C15.835 103.444 15.8989 103.049 16.0394 102.679C16.1798 102.308 16.3939 101.971 16.6684 101.688C16.9577 101.409 17.3003 101.193 17.6753 101.052C18.0504 100.911 18.4499 100.849 18.8496 100.869C19.2455 100.837 19.6436 100.892 20.0163 101.03C20.389 101.168 20.7275 101.387 21.0084 101.669C21.2892 101.952 21.5057 102.293 21.6428 102.669C21.78 103.044 21.8345 103.445 21.8027 103.844C21.7907 105.887 20.8064 106.908 18.8496 106.905ZM25.8464 106.905C25.4464 106.924 25.0467 106.861 24.6717 106.719C24.2967 106.578 23.9543 106.361 23.6652 106.082C23.383 105.781 23.165 105.426 23.0245 105.037C22.884 104.648 22.8241 104.234 22.8484 103.821C22.8484 101.838 23.8477 100.847 25.8464 100.847C26.2423 100.815 26.6404 100.87 27.0131 101.008C27.3858 101.146 27.7243 101.364 28.0051 101.647C28.286 101.93 28.5025 102.271 28.6396 102.646C28.7768 103.022 28.8313 103.423 28.7995 103.821C28.7845 105.88 27.7942 106.908 25.8284 106.905H25.8464Z" fill="#052ED8"/>
<path d="M47.2631 128.184V101.719L52.9853 98.6541V128.166L47.2631 128.184Z" fill="#052ED8"/>
<path d="M72.2926 125.345C72.2926 128.884 71.3232 131.747 69.3844 133.935C67.5892 135.978 65.227 137 62.2979 137C60.3433 136.988 58.4227 136.485 56.7103 135.535V130.517C58.1148 131.355 59.7102 131.812 61.3419 131.846C63.0055 131.846 64.2995 131.305 65.224 130.223C66.1486 129.141 66.6108 127.634 66.6108 125.702V110.933L72.2881 107.868L72.2926 125.345Z" fill="#052ED8"/>
<path d="M76.8345 128.184L79.6978 122.646H86.8786C88.4225 122.646 89.1944 121.742 89.1944 119.934C89.1944 116.579 87.5892 114.003 84.3788 112.203L87.1928 107.307C91.9171 110.083 94.4603 113.85 94.8224 118.609C94.942 120.134 95.2831 121.189 95.8456 121.774C96.4081 122.359 97.37 122.648 98.7314 122.642H102.183V128.18H98.4127C96.3606 128.243 94.3515 127.579 92.7354 126.304C91.6134 127.555 90.0082 128.18 87.9198 128.18L76.8345 128.184Z" fill="#052ED8"/>
<path d="M99.454 128.184V122.646H106.72C105.773 121.146 105.303 119.391 105.374 117.615C105.374 114.26 106.282 111.606 108.098 109.653C109.734 107.944 111.869 107.09 114.502 107.09C117.195 107.09 119.289 107.96 120.785 109.699C122.117 111.206 122.783 113.165 122.783 115.576V119.694C122.753 122.319 121.981 124.393 120.467 125.915C118.953 127.437 116.939 128.199 114.426 128.202L99.454 128.184ZM111.037 103.844C110.637 103.864 110.238 103.801 109.863 103.659C109.488 103.518 109.145 103.301 108.856 103.021C108.574 102.721 108.356 102.365 108.216 101.976C108.075 101.587 108.015 101.174 108.039 100.761C108.039 98.7777 109.039 97.7861 111.037 97.7861C111.433 97.7541 111.831 97.809 112.204 97.9472C112.577 98.0853 112.915 98.3034 113.196 98.5863C113.477 98.8692 113.694 99.2101 113.831 99.5856C113.968 99.9611 114.022 100.362 113.991 100.761C113.994 102.816 113.009 103.843 111.037 103.84V103.844ZM117.033 115.467C117.033 113.454 116.185 112.447 114.489 112.447C112.158 112.447 110.993 114.105 110.993 117.42C110.993 120.898 112.113 122.637 114.354 122.637C116.149 122.637 117.047 121.661 117.047 119.708L117.033 115.467ZM118.034 103.84C117.634 103.859 117.235 103.796 116.859 103.655C116.484 103.513 116.142 103.296 115.853 103.017C115.571 102.716 115.353 102.36 115.212 101.972C115.072 101.583 115.012 101.169 115.036 100.756C115.036 98.7732 116.036 97.7816 118.034 97.7816C118.43 97.7495 118.828 97.8045 119.201 97.9426C119.574 98.0808 119.912 98.2989 120.193 98.5817C120.474 98.8646 120.69 99.2056 120.827 99.5811C120.965 99.9565 121.019 100.358 120.987 100.756C120.984 102.815 120 103.843 118.034 103.84Z" fill="#052ED8"/>
</svg>
