<svg width="116" height="116" viewBox="0 0 116 116" fill="none" xmlns="http://www.w3.org/2000/svg">
<path d="M115.989 65.4409C114.846 54.7546 107.489 46.1535 97.7249 43.0512C101.495 40.4702 103.974 36.1361 103.974 31.2326C103.974 23.3394 97.5525 16.9178 89.6591 16.9178C81.7657 16.9178 75.3441 23.3394 75.3441 31.2326C75.3441 32.48 75.5052 33.6903 75.8067 34.8445C73.0468 32.8786 69.9772 31.3827 66.7075 30.4252C71.3603 27.5131 74.4631 22.3448 74.4631 16.4629C74.4631 7.38518 67.0777 0 58.0002 0C48.9227 0 41.5373 7.38518 41.5373 16.4629C41.5373 22.3448 44.6403 27.5131 49.2929 30.4252C46.0232 31.3827 42.9539 32.8783 40.194 34.8442C40.4952 33.6901 40.6563 32.4798 40.6563 31.2326C40.6563 23.3394 34.2347 16.9178 26.3413 16.9178C18.4481 16.9178 12.0265 23.3394 12.0265 31.2326C12.0265 36.1359 14.5058 40.47 18.2753 43.051C8.51119 46.1533 1.15407 54.7546 0.0106732 65.4411C-0.0459236 65.9692 0.124335 66.4961 0.479351 66.8909C0.834368 67.2857 1.34023 67.5111 1.87088 67.5111L27.3259 67.5109C27.2384 68.8893 27.5132 70.3021 28.1762 71.6137L30.2392 75.6955C30.6359 76.4799 30.7664 77.2194 30.6621 78.0922L30.1192 82.6335C29.6969 86.1666 31.6111 89.4817 34.8823 90.8831L37.6733 92.0781L30.9392 106.543C30.5589 107.36 30.6632 108.312 31.2124 109.029C31.761 109.744 32.6528 110.091 33.5413 109.937L40.4589 108.728L43.988 114.801C44.4228 115.548 45.2133 116 46.0688 116C46.1062 116 46.1439 115.999 46.1818 115.997C47.0829 115.956 47.879 115.423 48.2595 114.606L54.7716 100.618L56.7831 100.011C57.6251 99.7561 58.3758 99.7561 59.217 100.011L61.229 100.619L67.7412 114.605C68.1217 115.423 68.9175 115.956 69.8165 115.997C69.8544 115.999 69.8923 116 69.93 116C70.7873 116 71.5778 115.548 72.0135 114.8L75.5417 108.728L82.4592 109.936C83.3469 110.092 84.2391 109.744 84.789 109.028C85.3374 108.312 85.4417 107.36 85.0612 106.542L78.3271 92.0784L81.1184 90.8828C84.3895 89.4819 86.3035 86.1666 85.8812 82.6335L85.3386 78.0922C85.2343 77.2194 85.3645 76.4799 85.7612 75.6955L87.8244 71.6137C88.4874 70.3021 88.7622 68.8893 88.6747 67.5109H114.129C114.66 67.5109 115.166 67.2855 115.521 66.8907C115.875 66.4959 116.046 65.9687 115.989 65.4409ZM89.6591 20.6597C95.4893 20.6597 100.232 25.4026 100.232 31.2326C100.232 37.0616 95.4909 41.8038 89.6622 41.8054C89.6612 41.8054 89.66 41.8054 89.6589 41.8054C89.6582 41.8054 89.6572 41.8054 89.6565 41.8054C83.8278 41.804 79.086 37.0616 79.086 31.2326C79.086 25.4026 83.8289 20.6597 89.6591 20.6597ZM45.2792 16.4629C45.2792 9.4484 50.9857 3.74194 58.0002 3.74194C65.0147 3.74194 70.7212 9.4484 70.7212 16.4629C70.7212 23.4744 65.0191 29.1792 58.0086 29.1836C58.0058 29.1836 58.003 29.1836 58.0002 29.1836C57.9974 29.1836 57.9948 29.1836 57.992 29.1836C50.9813 29.1789 45.2792 23.4744 45.2792 16.4629ZM58.0002 32.9258C58.003 32.9258 58.0056 32.9256 58.0084 32.9256C66.6242 32.9281 74.544 36.9423 79.6284 43.7704C77.8306 44.5076 76.1095 45.4456 74.4898 46.5813C74.0952 46.499 73.6911 46.4424 73.2776 46.4192L68.7115 46.1652C67.8338 46.1164 67.1282 45.8596 66.4245 45.3327L62.7632 42.5922C59.9144 40.4592 56.086 40.4595 53.2374 42.5922L49.5759 45.3329C48.8722 45.8596 48.1671 46.1164 47.2891 46.1652L42.7228 46.4192C42.3091 46.4421 41.905 46.499 41.5106 46.5813C39.8911 45.4459 38.1696 44.5076 36.372 43.7704C41.4566 36.9423 49.3764 32.9281 57.9922 32.9256C57.9946 32.9256 57.9974 32.9258 58.0002 32.9258ZM15.7684 31.2326C15.7684 25.4026 20.5114 20.6597 26.3413 20.6597C32.1715 20.6597 36.9144 25.4026 36.9144 31.2326C36.9144 37.0618 32.1726 41.8042 26.3436 41.8054C26.3429 41.8054 26.342 41.8054 26.3411 41.8054C26.3401 41.8054 26.3392 41.8054 26.338 41.8054C20.5097 41.8038 15.7684 37.0616 15.7684 31.2326ZM29.8299 62.2329C29.332 62.7004 28.9059 63.2173 28.5525 63.7692L4.04823 63.7694C6.15424 53.2471 15.3943 45.5485 26.339 45.5476H26.3415C26.3415 45.5476 26.3432 45.5476 26.3439 45.5476C30.3835 45.5481 34.2576 46.5881 37.6927 48.5764C36.5963 49.6165 35.7923 50.9748 35.4251 52.5422L34.3818 56.9956C34.1816 57.8513 33.8062 58.5012 33.1652 59.103L29.8299 62.2329ZM45.942 110.717L43.039 105.721C42.6452 105.043 41.8706 104.684 41.0993 104.818L35.4066 105.812L40.8544 94.1112C40.8864 94.1568 40.9192 94.2008 40.9505 94.2485L43.4536 98.076C44.9729 100.399 47.4961 101.706 50.1491 101.68L45.942 110.717ZM74.9009 104.818C74.1291 104.684 73.355 105.043 72.9612 105.721L70.0581 110.717L65.8501 101.678C65.8761 101.679 65.902 101.681 65.928 101.681C68.5529 101.681 71.0418 100.376 72.5463 98.0758L75.0499 94.248C75.081 94.2003 75.1137 94.1565 75.1458 94.1109L80.5936 105.812L74.9009 104.818ZM84.4845 69.9259L82.421 74.0076C81.6923 75.4504 81.4311 76.9317 81.6228 78.5363L82.1654 83.0776C82.3925 84.9766 81.403 86.6902 79.645 87.4435L75.4407 89.2436C73.9547 89.8802 72.8024 90.847 71.9179 92.2L69.4145 96.0278C68.3677 97.6281 66.5077 98.305 64.6775 97.7516L60.2994 96.4286C58.7521 95.9613 57.2478 95.9613 55.7005 96.4286L51.3227 97.7516C49.4915 98.3059 47.6325 97.6286 46.5854 96.0275L44.0823 92.2C43.1976 90.8473 42.045 89.8802 40.5595 89.2438L36.3552 87.4435C34.5969 86.6902 33.6074 84.9766 33.8345 83.0776L34.3773 78.5363C34.5691 76.9315 34.3079 75.4501 33.5787 74.0076L31.5157 69.9259C30.6529 68.2191 30.9963 66.2702 32.3908 64.961L35.7258 61.8311C36.9048 60.7247 37.6569 59.4218 38.025 57.8485L39.0683 53.3954C39.5045 51.5333 41.0204 50.2613 42.9302 50.1551L47.4966 49.9011C49.1105 49.8111 50.524 49.2968 51.8181 48.3281L55.4795 45.5873C56.245 45.0141 57.1225 44.7276 58.0002 44.7276C58.8777 44.7276 59.7552 45.0141 60.5206 45.5873L64.1819 48.3281C65.4759 49.2965 66.8894 49.8111 68.5036 49.9011L73.0697 50.1551C74.9795 50.2613 76.4952 51.5333 76.9316 53.3954L77.9749 57.8483C78.3435 59.422 79.0956 60.7247 80.2743 61.8311L83.6091 64.961C85.0037 66.2702 85.3475 68.2188 84.4845 69.9259ZM87.4474 63.7692C87.094 63.217 86.6679 62.7002 86.1698 62.2329L82.835 59.103C82.1939 58.5012 81.8186 57.8511 81.6182 56.9951L80.5749 52.5422C80.2077 50.9748 79.4036 49.6162 78.3072 48.5764C81.7423 46.5881 85.6164 45.5478 89.6563 45.5473H89.6589H89.6612C100.605 45.5485 109.845 53.2469 111.952 63.769H87.4474V63.7692ZM58 53.4847C48.157 53.4847 40.1493 61.4925 40.1493 71.3354C40.1493 81.1786 48.157 89.1863 58 89.1863C67.8429 89.1863 75.8507 81.1786 75.8507 71.3354C75.8507 61.4927 67.8429 53.4847 58 53.4847ZM58 85.4446C50.2202 85.4446 43.8912 79.1153 43.8912 71.3356C43.8912 63.5559 50.2202 57.2269 58 57.2269C65.7797 57.2269 72.1087 63.5559 72.1087 71.3356C72.1087 79.1153 65.7797 85.4446 58 85.4446ZM66.2984 66.3991L62.1853 66.407L60.9217 62.4925C60.5108 61.2205 59.3368 60.3654 57.999 60.3654C56.6627 60.3661 55.4891 61.2207 55.0784 62.4925L53.8148 66.407L49.701 66.3991C49.6992 66.3991 49.6975 66.3991 49.6957 66.3991C48.3617 66.3991 47.1886 67.2511 46.776 68.5205C46.3628 69.7921 46.813 71.1729 47.896 71.9563L51.2285 74.3678L49.9494 78.2776C49.5345 79.548 49.9819 80.9295 51.0641 81.7162C51.6041 82.1082 52.2362 82.304 52.8681 82.304C53.5024 82.304 54.1367 82.1066 54.6771 81.712L58 79.2879L61.3235 81.712C62.4033 82.4999 63.8556 82.5009 64.9373 81.7153C66.0185 80.9295 66.4659 79.548 66.0505 78.2774L64.7719 74.3678L68.1041 71.9563C69.1872 71.1726 69.6376 69.7918 69.2244 68.5205C68.8118 67.2508 67.639 66.3991 66.304 66.3991C66.3022 66.3991 66.3003 66.3991 66.2984 66.3991ZM62.1809 71.6238C61.096 72.4091 60.6467 73.792 61.0632 75.0652L61.8474 77.4626L59.8097 75.9763C59.2687 75.5816 58.6345 75.3842 58.0002 75.3842C57.3662 75.3842 56.7319 75.5816 56.191 75.9763L54.1533 77.4626L54.9374 75.0652C55.3537 73.7924 54.9042 72.4093 53.8191 71.6235L51.776 70.1452L54.2985 70.1501H54.3039C55.6409 70.1501 56.8147 69.2958 57.2256 68.0231L58.0004 65.6226L58.775 68.0221C59.1855 69.2953 60.359 70.1501 61.6972 70.1501H61.7026L64.2247 70.1452L62.1809 71.6238Z" fill="white"/>
</svg>
