<svg width="21" height="20" viewBox="0 0 21 20" fill="none" xmlns="http://www.w3.org/2000/svg">
<path d="M15.4961 8.09162C15.5781 8.01415 15.6432 7.92198 15.6876 7.82043C15.732 7.71888 15.7549 7.60996 15.7549 7.49995C15.7549 7.38994 15.732 7.28102 15.6876 7.17947C15.6432 7.07792 15.5781 6.98575 15.4961 6.90828L11.1211 2.74162C11.0397 2.66351 10.9429 2.60151 10.8363 2.55921C10.7297 2.5169 10.6153 2.49512 10.4998 2.49512C10.3843 2.49512 10.2699 2.5169 10.1633 2.55921C10.0567 2.60151 9.9599 2.66351 9.87856 2.74162L5.50356 6.90828C5.42155 6.98575 5.35645 7.07792 5.31203 7.17947C5.26761 7.28102 5.24474 7.38994 5.24474 7.49995C5.24474 7.60996 5.26761 7.71888 5.31203 7.82043C5.35645 7.92198 5.42155 8.01415 5.50356 8.09162C5.5849 8.16972 5.68168 8.23172 5.7883 8.27402C5.89493 8.31633 6.0093 8.33811 6.12481 8.33811C6.24032 8.33811 6.35469 8.31633 6.46131 8.27402C6.56794 8.23172 6.66472 8.16972 6.74606 8.09162L10.4998 4.50828L14.2536 8.09162C14.3349 8.16972 14.4317 8.23172 14.5383 8.27402C14.6449 8.31633 14.7593 8.33811 14.8748 8.33811C14.9903 8.33811 15.1047 8.31633 15.2113 8.27402C15.3179 8.23172 15.4147 8.16972 15.4961 8.09162ZM11.1211 17.2583L15.4961 13.0916C15.5776 13.0139 15.6424 12.9217 15.6865 12.8202C15.7307 12.7186 15.7534 12.6098 15.7534 12.4999C15.7534 12.278 15.6608 12.0652 15.4961 11.9083C15.4145 11.8306 15.3176 11.7689 15.211 11.7269C15.1044 11.6848 14.9902 11.6632 14.8748 11.6632C14.6418 11.6632 14.4183 11.7514 14.2536 11.9083L10.4998 15.4916L6.74606 11.9083C6.66472 11.8302 6.56794 11.7682 6.46131 11.7259C6.35469 11.6836 6.24032 11.6618 6.12481 11.6618C6.0093 11.6618 5.89493 11.6836 5.7883 11.7259C5.68168 11.7682 5.5849 11.8302 5.50356 11.9083C5.42155 11.9858 5.35645 12.0779 5.31203 12.1795C5.26761 12.281 5.24474 12.3899 5.24474 12.4999C5.24474 12.61 5.26761 12.7189 5.31203 12.8204C5.35645 12.922 5.42155 13.0141 5.50356 13.0916L9.87856 17.2583C9.9599 17.3364 10.0567 17.3984 10.1633 17.4407C10.2699 17.483 10.3843 17.5048 10.4998 17.5048C10.6153 17.5048 10.7297 17.483 10.8363 17.4407C10.9429 17.3984 11.0397 17.3364 11.1211 17.2583Z" fill="#818181"/>
</svg>
