<svg width="47" height="47" viewBox="0 0 47 47" fill="none" xmlns="http://www.w3.org/2000/svg">
<path d="M43.0834 12.8276C43.0601 11.9828 42.9947 11.1397 42.8875 10.3014C42.7411 9.56729 42.4974 8.85603 42.163 8.18636C41.8117 7.46078 41.3417 6.79892 40.7725 6.22803C40.1972 5.66418 39.5362 5.1949 38.8142 4.83761C38.1436 4.50992 37.4323 4.27284 36.6992 4.13261C35.8691 4.00715 35.0318 3.9352 34.1925 3.9172H12.8271C11.9823 3.9405 11.1392 4.00586 10.3009 4.11303C9.5668 4.25948 8.85554 4.50316 8.18587 4.83761C7.46029 5.18892 6.79843 5.65885 6.22754 6.22803C5.66369 6.80339 5.19442 7.46434 4.83712 8.18636C4.50943 8.857 4.27235 9.56823 4.13212 10.3014C4.00666 11.1314 3.93471 11.9687 3.91671 12.808V34.1734C3.94001 35.0183 4.00537 35.8614 4.11254 36.6997C4.25899 37.4338 4.50267 38.145 4.83712 38.8147C5.18843 39.5403 5.65836 40.2021 6.22754 40.773C6.8029 41.3369 7.46385 41.8062 8.18587 42.1634C8.85651 42.4911 9.56775 42.7282 10.3009 42.8684C11.1309 42.9939 11.9682 43.0659 12.8075 43.0839H34.173C35.0178 43.0606 35.8609 42.9952 36.6992 42.888C37.4333 42.7416 38.1445 42.4979 38.8142 42.1634C39.5398 41.8121 40.2017 41.3422 40.7725 40.773C41.3364 40.1977 41.8057 39.5367 42.163 38.8147C42.4907 38.1441 42.7277 37.4328 42.868 36.6997C42.9934 35.8696 43.0654 35.0323 43.0834 34.193V12.8276ZM23.9505 37.2089C21.5984 37.199 19.2873 36.5926 17.2334 35.4464L9.79171 37.4047L11.75 30.1197C10.4863 27.9981 9.81032 25.5782 9.79171 23.1089C9.7995 20.3338 10.6283 17.623 12.1737 15.318C13.7192 13.0131 15.9121 11.2169 18.4764 10.1559C21.0406 9.09484 23.8615 8.8163 26.5838 9.35537C29.3061 9.89443 31.8079 11.227 33.7743 13.1852C35.7407 15.1434 37.0836 17.6397 37.634 20.3597C38.1844 23.0797 37.9176 25.9018 36.8672 28.4704C35.8168 31.0391 34.0298 33.2394 31.7313 34.7945C29.4328 36.3495 26.7255 37.1895 23.9505 37.2089ZM23.9505 11.4959C21.8743 11.5197 19.8414 12.0932 18.0589 13.1581C16.2764 14.2229 14.8079 15.7411 13.803 17.558C12.798 19.3749 12.2924 21.4257 12.3377 23.5016C12.383 25.5774 12.9776 27.6042 14.0609 29.3755L14.335 29.8259L13.16 34.1147L17.625 32.9005L18.0559 33.1551C19.8371 34.2043 21.8637 34.765 23.9309 34.7805C27.0472 34.7805 30.0358 33.5426 32.2394 31.339C34.4429 29.1355 35.6809 26.1468 35.6809 23.0305C35.6809 19.9142 34.4429 16.9256 32.2394 14.722C30.0358 12.5185 27.0472 11.2805 23.9309 11.2805L23.9505 11.4959ZM30.8046 28.1809C30.5481 28.6088 30.2047 28.978 29.7965 29.2647C29.3883 29.5515 28.9245 29.7493 28.435 29.8455C27.7038 29.9816 26.9503 29.9345 26.2417 29.7084C25.5748 29.4994 24.9208 29.2509 24.2834 28.9643C21.8624 27.7495 19.7977 25.9277 18.2909 23.6768C17.474 22.6328 16.9775 21.3743 16.8613 20.0539C16.8496 19.5051 16.9534 18.96 17.166 18.454C17.3785 17.9479 17.695 17.4922 18.095 17.1164C18.2129 16.9828 18.3574 16.8754 18.5193 16.8012C18.6812 16.727 18.8569 16.6876 19.035 16.6855H19.5834C19.7988 16.6855 20.0925 16.6855 20.3667 17.2926C20.6409 17.8997 21.3655 19.7209 21.4634 19.8972C21.5115 19.9911 21.5366 20.0952 21.5366 20.2007C21.5366 20.3063 21.5115 20.4103 21.4634 20.5043C21.378 20.7177 21.259 20.916 21.1109 21.0918C20.9346 21.3072 20.7388 21.5618 20.5821 21.7184C20.4255 21.8751 20.2296 22.0709 20.4255 22.4234C20.9592 23.3221 21.6186 24.1398 22.3838 24.8518C23.2179 25.5888 24.1716 26.1782 25.2038 26.5947C25.5563 26.7709 25.7717 26.7514 25.9675 26.5947C26.1634 26.438 26.8488 25.5764 27.0838 25.2239C27.3188 24.8714 27.5538 24.9301 27.8671 25.0476C28.1805 25.1651 29.9234 26.0072 30.2759 26.1834C30.6284 26.3597 30.8438 26.438 30.9417 26.5947C31.0266 27.1072 30.9795 27.633 30.8046 28.1222V28.1809Z" fill="#008695"/>
</svg>
