<svg width="89" height="15" viewBox="0 0 89 15" fill="none" xmlns="http://www.w3.org/2000/svg">
<path d="M7.41698 11.7937L3.54781 14.7089C3.41147 14.8017 3.2747 14.8426 3.1375 14.8316C3.00031 14.8206 2.87419 14.7823 2.75915 14.7165C2.64411 14.6507 2.55677 14.5517 2.49712 14.4193C2.43747 14.2869 2.43619 14.1465 2.49328 13.9981L3.9709 9.19465L0.296026 6.57032C0.15457 6.48263 0.0642424 6.37091 0.0250437 6.23516C-0.014155 6.09941 -0.00733808 5.96409 0.0454949 5.82918C0.0983279 5.69428 0.177578 5.58593 0.283244 5.50414C0.38891 5.42236 0.517584 5.38146 0.669266 5.38146H5.28363L6.79193 0.478072C6.84987 0.328832 6.93338 0.211633 7.04246 0.126474C7.15068 0.0421578 7.27552 0 7.41698 0C7.55843 0 7.68327 0.0421578 7.79149 0.126474C7.90057 0.211633 7.98408 0.328832 8.04203 0.478072L9.55032 5.38146H14.1647C14.3155 5.38146 14.4442 5.42236 14.5507 5.50414C14.6572 5.58593 14.7365 5.69428 14.7885 5.82918C14.8404 5.96409 14.8473 6.09941 14.8089 6.23516C14.7689 6.37175 14.6785 6.48389 14.5379 6.57158L10.8631 9.19465L12.3407 13.9981C12.3978 14.1474 12.3965 14.2878 12.3368 14.4193C12.2772 14.5508 12.1898 14.6499 12.0748 14.7165C11.9598 14.7831 11.8336 14.8215 11.6964 14.8316C11.5593 14.8417 11.4225 14.8008 11.2861 14.7089L7.41698 11.7937Z" fill="#FFA600"/>
<path d="M25.9586 11.7937L22.0894 14.7089C21.9531 14.8017 21.8163 14.8426 21.6791 14.8316C21.5419 14.8206 21.4158 14.7823 21.3008 14.7165C21.1857 14.6507 21.0984 14.5517 21.0387 14.4193C20.9791 14.2869 20.9778 14.1465 21.0349 13.9981L22.5125 9.19465L18.8377 6.57032C18.6962 6.48263 18.6059 6.37091 18.5667 6.23516C18.5275 6.09941 18.5343 5.96409 18.5871 5.82918C18.64 5.69428 18.7192 5.58593 18.8249 5.50414C18.9305 5.42236 19.0592 5.38146 19.2109 5.38146H23.8253L25.3336 0.478072C25.3915 0.328832 25.475 0.211633 25.5841 0.126474C25.6923 0.0421578 25.8171 0 25.9586 0C26.1001 0 26.2249 0.0421578 26.3331 0.126474C26.4422 0.211633 26.5257 0.328832 26.5837 0.478072L28.0919 5.38146H32.7063C32.8571 5.38146 32.9858 5.42236 33.0923 5.50414C33.1989 5.58593 33.2781 5.69428 33.3301 5.82918C33.3821 5.96409 33.3889 6.09941 33.3505 6.23516C33.3105 6.37175 33.2202 6.48389 33.0796 6.57158L29.4047 9.19465L30.8823 13.9981C30.9394 14.1474 30.9381 14.2878 30.8785 14.4193C30.8188 14.5508 30.7315 14.6499 30.6164 14.7165C30.5014 14.7831 30.3753 14.8215 30.2381 14.8316C30.1009 14.8417 29.9641 14.8008 29.8278 14.7089L25.9586 11.7937Z" fill="#FFA600"/>
<path d="M44.5003 11.7937L40.6311 14.7089C40.4948 14.8017 40.358 14.8426 40.2208 14.8316C40.0836 14.8206 39.9575 14.7823 39.8425 14.7165C39.7274 14.6507 39.6401 14.5517 39.5804 14.4193C39.5208 14.2869 39.5195 14.1465 39.5766 13.9981L41.0542 9.19465L37.3793 6.57032C37.2379 6.48263 37.1476 6.37091 37.1084 6.23516C37.0692 6.09941 37.076 5.96409 37.1288 5.82918C37.1816 5.69428 37.2609 5.58593 37.3666 5.50414C37.4722 5.42236 37.6009 5.38146 37.7526 5.38146H42.3669L43.8752 0.478072C43.9332 0.328832 44.0167 0.211633 44.1258 0.126474C44.234 0.0421578 44.3588 0 44.5003 0C44.6417 0 44.7666 0.0421578 44.8748 0.126474C44.9839 0.211633 45.0674 0.328832 45.1253 0.478072L46.6336 5.38146H51.248C51.3988 5.38146 51.5275 5.42236 51.634 5.50414C51.7405 5.58593 51.8198 5.69428 51.8718 5.82918C51.9238 5.96409 51.9306 6.09941 51.8922 6.23516C51.8522 6.37175 51.7618 6.48389 51.6212 6.57158L47.9464 9.19465L49.424 13.9981C49.4811 14.1474 49.4798 14.2878 49.4201 14.4193C49.3605 14.5508 49.2732 14.6499 49.1581 14.7165C49.0431 14.7831 48.917 14.8215 48.7798 14.8316C48.6426 14.8417 48.5058 14.8008 48.3695 14.7089L44.5003 11.7937Z" fill="#FFA600"/>
<path d="M63.042 11.7937L59.1728 14.7089C59.0365 14.8017 58.8997 14.8426 58.7625 14.8316C58.6253 14.8206 58.4992 14.7823 58.3842 14.7165C58.2691 14.6507 58.1818 14.5517 58.1221 14.4193C58.0625 14.2869 58.0612 14.1465 58.1183 13.9981L59.5959 9.19465L55.921 6.57032C55.7796 6.48263 55.6892 6.37091 55.65 6.23516C55.6108 6.09941 55.6177 5.96409 55.6705 5.82918C55.7233 5.69428 55.8026 5.58593 55.9082 5.50414C56.0139 5.42236 56.1426 5.38146 56.2943 5.38146H60.9086L62.4169 0.478072C62.4749 0.328832 62.5584 0.211633 62.6675 0.126474C62.7757 0.0421578 62.9005 0 63.042 0C63.1834 0 63.3083 0.0421578 63.4165 0.126474C63.5256 0.211633 63.6091 0.328832 63.667 0.478072L65.1753 5.38146H69.7897C69.9405 5.38146 70.0692 5.42236 70.1757 5.50414C70.2822 5.58593 70.3615 5.69428 70.4135 5.82918C70.4654 5.96409 70.4723 6.09941 70.4339 6.23516C70.3939 6.37175 70.3035 6.48389 70.1629 6.57158L66.4881 9.19465L67.9657 13.9981C68.0228 14.1474 68.0215 14.2878 67.9618 14.4193C67.9022 14.5508 67.8148 14.6499 67.6998 14.7165C67.5848 14.7831 67.4586 14.8215 67.3214 14.8316C67.1843 14.8417 67.0475 14.8008 66.9111 14.7089L63.042 11.7937Z" fill="#FFA600"/>
<path d="M81.5836 11.7937L77.7144 14.7089C77.5781 14.8017 77.4413 14.8426 77.3041 14.8316C77.1669 14.8206 77.0408 14.7823 76.9258 14.7165C76.8107 14.6507 76.7234 14.5517 76.6637 14.4193C76.6041 14.2869 76.6028 14.1465 76.6599 13.9981L78.1375 9.19465L74.4627 6.57032C74.3212 6.48263 74.2309 6.37091 74.1917 6.23516C74.1525 6.09941 74.1593 5.96409 74.2121 5.82918C74.265 5.69428 74.3442 5.58593 74.4499 5.50414C74.5555 5.42236 74.6842 5.38146 74.8359 5.38146H79.4503L80.9586 0.478072C81.0165 0.328832 81.1 0.211633 81.2091 0.126474C81.3173 0.0421578 81.4421 0 81.5836 0C81.7251 0 81.8499 0.0421578 81.9581 0.126474C82.0672 0.211633 82.1507 0.328832 82.2087 0.478072L83.7169 5.38146H88.3313C88.4821 5.38146 88.6108 5.42236 88.7173 5.50414C88.8239 5.58593 88.9031 5.69428 88.9551 5.82918C89.0071 5.96409 89.0139 6.09941 88.9755 6.23516C88.9355 6.37175 88.8452 6.48389 88.7046 6.57158L85.0297 9.19465L86.5073 13.9981C86.5644 14.1474 86.5631 14.2878 86.5035 14.4193C86.4438 14.5508 86.3565 14.6499 86.2414 14.7165C86.1264 14.7831 86.0003 14.8215 85.8631 14.8316C85.7259 14.8417 85.5891 14.8008 85.4528 14.7089L81.5836 11.7937Z" fill="#FFA600"/>
</svg>
