<svg width="97" height="117" viewBox="0 0 97 117" fill="none" xmlns="http://www.w3.org/2000/svg">
<path d="M89.4066 78.2997C91.0318 73.8148 91.8571 69.0257 91.8571 64.0365V17.7948C91.8571 17.078 91.5186 16.4031 90.9439 15.9743C90.3695 15.5454 89.6263 15.4132 88.9389 15.6172C74.8963 19.7866 52.57 16.4776 48.1069 1.61817C47.8184 0.657578 46.9346 0.000227143 45.932 0C45.9317 0 45.9317 0 45.9315 0C44.9291 0 44.0451 0.657351 43.7564 1.61726C39.2876 16.4769 16.9588 19.7866 2.91794 15.6172C2.23083 15.4132 1.48762 15.5457 0.912948 15.9743C0.338504 16.4031 6.11915e-05 17.0777 6.11915e-05 17.7948V32.9964C6.11915e-05 34.2506 1.01698 35.2678 2.27149 35.2678C3.526 35.2678 4.54292 34.2506 4.54292 32.9964V20.725C12.4118 22.4637 21.3249 22.1823 28.9562 19.8886C36.7472 17.547 42.6052 13.3515 45.9308 7.83188C49.2546 13.351 55.1115 17.547 62.9016 19.8886C70.5324 22.1828 79.4453 22.4635 87.3142 20.725V64.0365C87.3142 68.0865 86.7105 71.9813 85.5166 75.6504C84.0474 74.8681 82.4781 74.2496 80.8325 73.8207C81.806 70.7289 82.3002 67.4498 82.3002 64.0363V29.0109C82.3002 28.3872 82.0438 27.7909 81.5909 27.3618C81.138 26.9328 80.5274 26.7072 79.9059 26.7427C67.245 27.4289 55.0981 23.8877 47.4138 17.271C46.5621 16.5378 45.3021 16.5374 44.4503 17.2706C36.7597 23.8877 24.6137 27.4293 11.9573 26.7427C11.3343 26.7095 10.7253 26.9328 10.2724 27.3618C9.81944 27.7909 9.563 28.3872 9.563 29.0109V64.0365C9.563 68.871 10.4902 73.2358 12.3952 77.376C18.3907 90.4794 33.8105 99.616 44.8876 105.348C45.2149 105.518 45.5733 105.603 45.9315 105.603C46.2897 105.603 46.6477 105.518 46.975 105.349C49.7782 103.899 52.3285 102.493 54.7044 101.091C55.2069 102.709 55.8958 104.244 56.7446 105.675C53.4906 107.578 49.926 109.495 45.9308 111.49C16.9358 97.0186 4.54292 82.7885 4.54292 64.0365V53.3938C4.54292 52.1395 3.526 51.1223 2.27149 51.1223C1.01698 51.1223 6.11915e-05 52.1395 6.11915e-05 53.3938V64.0365C6.11915e-05 75.5559 4.22832 85.5483 12.9261 94.5854C20.055 101.992 30.2237 108.817 44.9278 116.063C45.2444 116.219 45.5881 116.297 45.9317 116.297C46.2761 116.297 46.6204 116.219 46.9373 116.062C51.6221 113.749 55.7441 111.54 59.4783 109.338C63.4331 113.614 69.0933 116.297 75.3699 116.297C87.2967 116.297 97 106.613 97 94.7099C97 88.1484 94.0508 82.2623 89.4066 78.2997ZM16.5245 75.4814C14.897 71.9452 14.1061 68.2014 14.1061 64.0365V31.3614C19.7958 31.4477 25.4902 30.741 30.7114 29.2955C36.5898 27.6683 41.7003 25.1917 45.9315 21.9225C50.1602 25.1915 55.2693 27.6685 61.1476 29.2955C66.3698 30.7408 72.0643 31.4468 77.7576 31.3614V64.0365C77.7576 67.2895 77.2699 70.2841 76.2753 73.1432C75.975 73.1307 75.6736 73.1229 75.3701 73.1229C72.8977 73.1229 70.5213 73.5402 68.3064 74.3061C66.8698 68.5692 63.2228 63.5489 58.1934 60.3698C60.4493 57.6341 61.8061 54.1336 61.8061 50.3226C61.8061 41.586 54.6849 34.4785 45.932 34.4785C37.179 34.4785 30.0576 41.586 30.0576 50.3226C30.0576 54.132 31.4132 57.6313 33.6678 60.3666C27.0207 64.5538 22.869 71.8893 22.869 79.8307V84.5864C20.2385 81.8003 18.0277 78.7668 16.5245 75.4814ZM34.6005 50.3226C34.6005 44.0909 39.6837 39.0213 45.932 39.0213C52.18 39.0213 57.2632 44.0909 57.2632 50.3226C57.2632 56.5504 52.18 61.6172 45.932 61.6172C39.6837 61.6172 34.6005 56.5504 34.6005 50.3226ZM45.9315 100.77C40.1269 97.7248 33.2569 93.7552 27.4119 88.8474V79.8307C27.4119 73.0223 31.222 66.7652 37.2188 63.5518C39.7219 65.1984 42.7158 66.1603 45.9317 66.1603C49.1474 66.1603 52.1407 65.1988 54.6436 63.5525C59.5396 66.1849 63.0299 70.8969 64.0957 76.2945C57.8892 80.093 53.7398 86.9269 53.7398 94.7101C53.7398 95.2578 53.7607 95.8006 53.8011 96.3381C51.3957 97.8011 48.8031 99.2616 45.9315 100.77ZM75.3699 111.754C65.948 111.754 58.2826 104.108 58.2826 94.7099C58.2826 85.3116 65.948 77.6658 75.3699 77.6658C84.7918 77.6658 92.4572 85.3116 92.4572 94.7099C92.4572 104.108 84.792 111.754 75.3699 111.754Z" fill="white"/>
<path d="M84.5351 87.4775C83.5743 86.6705 82.1415 86.7956 81.3349 87.7564L72.7352 97.9981L69.133 94.9462C68.176 94.1357 66.7423 94.2536 65.9316 95.211C65.1207 96.1682 65.2393 97.6013 66.1965 98.4124L71.5393 102.939C71.9512 103.288 72.4718 103.477 73.0074 103.477C73.0714 103.477 73.1355 103.474 73.1998 103.469C73.8017 103.418 74.3586 103.129 74.7471 102.667L84.8136 90.6779C85.6208 89.7169 85.4959 88.2843 84.5351 87.4775Z" fill="white"/>
<path d="M2.27143 45.9679C3.52594 45.9679 4.54286 44.9508 4.54286 43.6965V43.6901C4.54286 42.4358 3.52594 41.4221 2.27143 41.4221C1.01692 41.4221 0 42.4422 0 43.6967C0 44.9512 1.01692 45.9679 2.27143 45.9679Z" fill="white"/>
</svg>
