<svg width="40" height="40" viewBox="0 0 40 40" fill="none" xmlns="http://www.w3.org/2000/svg">
<path d="M29.3135 25.7963H27.4611L26.8046 25.1632C28.27 23.4608 29.3409 21.4555 29.9409 19.2909C30.5408 17.1263 30.6549 14.8558 30.2749 12.6419C29.1728 6.12333 23.7329 0.917852 17.1674 0.120616C14.8592 -0.171393 12.5148 0.0684949 10.3136 0.821923C8.11235 1.57535 6.11265 2.82235 4.4675 4.4675C2.82235 6.11265 1.57535 8.11235 0.821923 10.3136C0.0684949 12.5148 -0.171393 14.8592 0.120616 17.1674C0.917852 23.7329 6.12333 29.1728 12.6419 30.2749C14.8558 30.6549 17.1263 30.5408 19.2909 29.9409C21.4555 29.3409 23.4608 28.27 25.1632 26.8046L25.7963 27.4611V29.3135L35.7617 39.279C36.7231 40.2403 38.2941 40.2403 39.2555 39.279C40.2169 38.3176 40.2169 36.7466 39.2555 35.7852L29.3135 25.7963ZM15.2446 25.7963C9.40607 25.7963 4.693 21.0832 4.693 15.2446C4.693 9.40607 9.40607 4.693 15.2446 4.693C21.0832 4.693 25.7963 9.40607 25.7963 15.2446C25.7963 21.0832 21.0832 25.7963 15.2446 25.7963Z" fill="#818181"/>
</svg>
