<svg width="47" height="47" viewBox="0 0 47 47" fill="none" xmlns="http://www.w3.org/2000/svg">
<path d="M40.3904 5.14111H6.60912C5.79672 5.14111 5.14037 5.79745 5.14037 6.60986V40.3911C5.14037 41.2035 5.79672 41.8599 6.60912 41.8599H40.3904C41.2028 41.8599 41.8591 41.2035 41.8591 40.3911V6.60986C41.8591 5.79745 41.2028 5.14111 40.3904 5.14111ZM36.1494 15.8584H33.2164C30.9169 15.8584 30.4717 16.9508 30.4717 18.5572V22.096H35.9612L35.2452 27.6359H30.4717V41.8599H24.7482V27.6405H19.961V22.096H24.7482V18.011C24.7482 13.2697 27.6444 10.6856 31.8762 10.6856C33.9049 10.6856 35.6445 10.8371 36.1539 10.906V15.8584H36.1494Z" fill="#008695"/>
</svg>
