<svg width="42" height="47" viewBox="0 0 42 47" fill="none" xmlns="http://www.w3.org/2000/svg">
<g clip-path="url(#clip0_0_243)">
<path d="M25.8867 23.5184L17.1477 18.5522V28.4846L25.8867 23.5184ZM35.25 2.93753H5.875C2.63457 2.93753 0 5.5721 0 8.81253V38.1875C0 41.428 2.63457 44.0625 5.875 44.0625H35.25C38.4904 44.0625 41.125 41.428 41.125 38.1875V8.81253C41.125 5.5721 38.4904 2.93753 35.25 2.93753ZM36.5719 15.4311C37.2695 18.0565 37.2695 23.5276 37.2695 23.5276C37.2695 23.5276 37.2695 28.9987 36.5719 31.6149C36.1863 33.0653 35.0572 34.1576 33.616 34.5432C31.0182 35.25 20.5625 35.25 20.5625 35.25C20.5625 35.25 10.1068 35.25 7.50898 34.5524C6.06777 34.1668 4.93867 33.0744 4.55312 31.6241C3.85547 28.9987 3.85547 23.5276 3.85547 23.5276C3.85547 23.5276 3.85547 18.0473 4.55312 15.4311C4.93867 13.9807 6.06777 12.8424 7.50898 12.4569C10.1068 11.75 20.5625 11.75 20.5625 11.75C20.5625 11.75 31.0182 11.75 33.616 12.4569C35.0572 12.8424 36.1863 13.9807 36.5719 15.4311Z" fill="#008695"/>
</g>
<defs>
<clipPath id="clip0_0_243">
<rect width="41.0255" height="46.8862" fill="white" transform="scale(1.00243)"/>
</clipPath>
</defs>
</svg>
