<svg width="47" height="47" viewBox="0 0 47 47" fill="none" xmlns="http://www.w3.org/2000/svg">
<path d="M23.4999 17.3816C20.1309 17.3816 17.3816 20.1309 17.3816 23.4998C17.3816 26.8688 20.1309 29.6181 23.4999 29.6181C26.8688 29.6181 29.6181 26.8688 29.6181 23.4998C29.6181 20.1309 26.8688 17.3816 23.4999 17.3816ZM41.8501 23.4998C41.8501 20.9662 41.873 18.4556 41.7307 15.9266C41.5885 12.9891 40.9183 10.3821 38.7703 8.234C36.6177 6.08137 34.0152 5.41584 31.0777 5.27356C28.5441 5.13127 26.0335 5.15422 23.5045 5.15422C20.9709 5.15422 18.4602 5.13127 15.9312 5.27356C12.9937 5.41584 10.3867 6.08596 8.23865 8.234C6.08602 10.3866 5.42049 12.9891 5.27821 15.9266C5.13592 18.4602 5.15887 20.9708 5.15887 23.4998C5.15887 26.0288 5.13592 28.5441 5.27821 31.0731C5.42049 34.0106 6.09061 36.6176 8.23865 38.7656C10.3913 40.9183 12.9937 41.5838 15.9312 41.7261C18.4648 41.8684 20.9755 41.8454 23.5045 41.8454C26.0381 41.8454 28.5487 41.8684 31.0777 41.7261C34.0152 41.5838 36.6222 40.9137 38.7703 38.7656C40.9229 36.613 41.5885 34.0106 41.7307 31.0731C41.8776 28.5441 41.8501 26.0334 41.8501 23.4998ZM23.4999 32.9136C18.2904 32.9136 14.0861 28.7093 14.0861 23.4998C14.0861 18.2904 18.2904 14.0861 23.4999 14.0861C28.7094 14.0861 32.9137 18.2904 32.9137 23.4998C32.9137 28.7093 28.7094 32.9136 23.4999 32.9136ZM33.2992 15.899C32.0829 15.899 31.1007 14.9168 31.1007 13.7005C31.1007 12.4842 32.0829 11.502 33.2992 11.502C34.5155 11.502 35.4977 12.4842 35.4977 13.7005C35.4981 13.9893 35.4415 14.2754 35.3311 14.5423C35.2208 14.8092 35.0588 15.0517 34.8546 15.2559C34.6504 15.4601 34.4079 15.6221 34.141 15.7324C33.8741 15.8428 33.588 15.8994 33.2992 15.899Z" fill="#008695"/>
</svg>
