<svg width="44" height="44" viewBox="0 0 44 44" fill="none" xmlns="http://www.w3.org/2000/svg">
<circle cx="22" cy="22" r="22" fill="#008695"/>
<path d="M16 27.6122L16 16.3878C15.9993 15.9446 16.1359 15.5104 16.3939 15.1353C16.6519 14.7602 17.0207 14.4595 17.4578 14.2682C17.9765 14.0442 18.5535 13.9579 19.1231 14.0192C19.6927 14.0805 20.2321 14.2868 20.6797 14.6148L28.1146 20.227C28.3926 20.4473 28.6154 20.7196 28.7682 21.0255C28.9209 21.3314 29 21.6637 29 22C29 22.3363 28.9209 22.6686 28.7682 22.9745C28.6154 23.2804 28.3926 23.5527 28.1146 23.773L20.6797 29.3852C20.2321 29.7132 19.6927 29.9195 19.1231 29.9808C18.5535 30.0421 17.9765 29.9558 17.4578 29.7318C17.0207 29.5405 16.6519 29.2398 16.3939 28.8647C16.1359 28.4896 15.9993 28.0554 16 27.6122Z" fill="white"/>
</svg>
