<svg width="600" height="626" viewBox="0 0 600 626" fill="none" xmlns="http://www.w3.org/2000/svg">
<path d="M532.704 413.034H315.804C313.94 413.03 312.153 412.257 310.835 410.883C309.517 409.509 308.775 407.647 308.772 405.704V76.3774C308.775 74.4344 309.517 72.5719 310.835 71.1979C312.153 69.824 313.94 69.0507 315.804 69.0474H532.704C534.568 69.0507 536.355 69.824 537.673 71.1979C538.991 72.5719 539.733 74.4344 539.736 76.3774V405.704C539.733 407.647 538.991 409.509 537.673 410.883C536.355 412.257 534.568 413.03 532.704 413.034ZM315.804 69.3601C314.02 69.3634 312.309 70.1038 311.047 71.4191C309.785 72.7343 309.075 74.5173 309.072 76.3774V405.704C309.075 407.564 309.785 409.347 311.047 410.662C312.309 411.977 314.02 412.718 315.804 412.721H532.704C534.489 412.721 536.202 411.982 537.464 410.666C538.727 409.35 539.436 407.565 539.436 405.704V76.3774C539.436 74.5163 538.727 72.7314 537.464 71.4154C536.202 70.0994 534.489 69.3601 532.704 69.3601H315.804Z" fill="#E0E0E0"/>
<path d="M282.588 413.034H65.7C63.8339 413.034 62.044 412.262 60.7234 410.888C59.4027 409.513 58.6592 407.649 58.656 405.704V76.3774C58.6592 74.4322 59.4027 72.5678 60.7234 71.1935C62.044 69.8192 63.8339 69.0474 65.7 69.0474H282.588C284.453 69.0474 286.242 69.8196 287.56 71.1943C288.879 72.5689 289.62 74.4334 289.62 76.3774V405.704C289.62 407.648 288.879 409.512 287.56 410.887C286.242 412.261 284.453 413.034 282.588 413.034ZM65.7 69.3601C63.9135 69.3601 62.1999 70.099 60.9355 71.4146C59.6711 72.7303 58.9592 74.5151 58.956 76.3774V405.704C58.9497 406.631 59.1194 407.551 59.4555 408.409C59.7916 409.268 60.2874 410.049 60.9142 410.707C61.5411 411.365 62.2867 411.887 63.1081 412.244C63.9294 412.6 64.8103 412.784 65.7 412.784H282.588C283.472 412.784 284.347 412.602 285.164 412.249C285.981 411.897 286.723 411.38 287.348 410.728C287.973 410.077 288.469 409.303 288.808 408.452C289.146 407.6 289.32 406.688 289.32 405.766V76.3774C289.32 75.4559 289.146 74.5434 288.808 73.692C288.469 72.8406 287.973 72.067 287.348 71.4154C286.723 70.7638 285.981 70.2469 285.164 69.8942C284.347 69.5416 283.472 69.3601 282.588 69.3601H65.7Z" fill="#E0E0E0"/>
<path d="M600 489.424H0V489.737H600V489.424Z" fill="#E0E0E0"/>
<path d="M81.276 507.261H62.004V507.574H81.276V507.261Z" fill="#E0E0E0"/>
<path d="M268.656 503.871H204.42V504.185H268.656V503.871Z" fill="#E0E0E0"/>
<path d="M125.976 518.882H82.476V519.195H125.976V518.882Z" fill="#E0E0E0"/>
<path d="M505.848 503.708H454.02V504.022H505.848V503.708Z" fill="#E0E0E0"/>
<path d="M524.136 503.708H516.54V504.022H524.136V503.708Z" fill="#E0E0E0"/>
<path d="M444.12 511.501H379.452V511.815H444.12V511.501Z" fill="#E0E0E0"/>
<path d="M545.016 466.133C545.34 462.218 544.824 457.152 540.444 455.651C533.016 453.149 528.624 447.107 528.864 440.328C529.104 433.548 521.304 426.956 515.436 433.31C509.568 439.665 510.36 428.419 502.536 425.68C494.712 422.941 488.136 429.583 490.248 435.687C492.36 441.791 484.68 445.531 475.44 440.378C466.2 435.224 456.048 444.593 458.004 451.923C459.96 459.253 458.352 460.141 452.508 457.627C447.792 455.651 440.076 459.791 439.2 466.183L545.016 466.133Z" fill="#EBEBEB"/>
<path d="M124.968 466.133C125.316 463.031 125.16 458.515 121.488 457.252C115.716 455.263 112.296 450.61 112.488 445.356C112.68 440.102 106.62 434.961 102.072 439.877C97.524 444.793 98.136 436.125 92.064 433.961C85.992 431.797 80.844 436.988 82.464 441.691C84.084 446.394 78.132 449.321 70.968 445.331C63.804 441.341 55.92 448.621 57.432 454.325C58.944 460.028 57.708 460.579 53.172 458.74C49.32 457.139 42.948 460.754 42.792 466.133H124.968Z" fill="#EBEBEB"/>
<path d="M104.4 466.133H239.292C241.2 459.541 236.292 451.623 230.892 450.497C224.328 449.134 217.752 437.088 217.416 429.42C217.08 421.752 205.284 398.149 186.888 412.721C168.492 427.294 174.096 414.873 160.788 410.782C147.48 406.692 139.092 418.463 144.936 427.294C144.936 427.294 131.568 423.804 126.06 436.813C120.552 449.822 126.06 457.89 126.06 457.89C126.06 457.89 109.2 457.389 104.4 466.133Z" fill="#EBEBEB"/>
<path d="M284.772 106.398C284.774 105.528 284.94 104.666 285.261 103.862C285.582 103.058 286.052 102.328 286.643 101.714C287.235 101.1 287.937 100.613 288.709 100.281C289.481 99.9493 290.309 99.7794 291.144 99.7811C291.753 99.7848 292.359 99.8774 292.944 100.056C292.422 96.389 293.318 92.6555 295.435 89.6766C297.552 86.6976 300.718 84.7171 304.236 84.1704C304.896 84.0706 305.561 84.0205 306.228 84.0203C307.061 84.0237 307.892 84.1033 308.712 84.2579C310.043 81.9914 312.044 80.2375 314.415 79.2609C316.786 78.2843 319.397 78.138 321.855 78.8441C324.312 79.5502 326.483 81.0703 328.038 83.1751C329.594 85.2799 330.451 87.8552 330.48 90.5122H330.672C333.536 90.5122 336.283 91.6983 338.309 93.8095C340.334 95.9208 341.472 98.7842 341.472 101.77C341.472 104.756 340.334 107.619 338.309 109.73C336.283 111.842 333.536 113.028 330.672 113.028H290.94C289.285 112.982 287.712 112.263 286.56 111.023C285.407 109.784 284.765 108.124 284.772 106.398Z" fill="#F0F0F0"/>
<path d="M186.492 59.7411C186.492 57.985 187.16 56.3006 188.351 55.0577C189.541 53.8148 191.155 53.1149 192.84 53.1115C193.458 53.1205 194.071 53.2173 194.664 53.3992C194.555 52.7299 194.507 52.0515 194.52 51.3728C194.52 47.6606 195.935 44.1004 198.453 41.4754C200.971 38.8504 204.387 37.3757 207.948 37.3757C208.777 37.3756 209.604 37.451 210.42 37.6009C211.745 35.3335 213.741 33.5764 216.107 32.5941C218.473 31.6119 221.081 31.4577 223.539 32.1549C225.996 32.8522 228.17 34.363 229.732 36.4597C231.294 38.5565 232.16 41.1256 232.2 43.7801H232.392C233.81 43.7801 235.215 44.0713 236.525 44.6371C237.835 45.2028 239.026 46.0321 240.029 47.0774C241.032 48.1228 241.827 49.3639 242.37 50.7297C242.913 52.0956 243.192 53.5595 243.192 55.0379C243.192 56.5163 242.913 57.9802 242.37 59.346C241.827 60.7119 241.032 61.9529 240.029 62.9983C239.026 64.0437 237.835 64.8729 236.525 65.4387C235.215 66.0044 233.81 66.2956 232.392 66.2956H192.636C190.996 66.247 189.439 65.5361 188.293 64.3132C187.146 63.0903 186.501 61.4509 186.492 59.7411Z" fill="#F5F5F5"/>
<path d="M483.216 107.474C483.214 106.93 483.317 106.391 483.517 105.888C483.717 105.386 484.011 104.93 484.381 104.547C484.752 104.164 485.192 103.862 485.676 103.658C486.16 103.454 486.678 103.352 487.2 103.359C487.606 103.354 488.011 103.414 488.4 103.534C488.339 103.12 488.307 102.702 488.304 102.283C488.304 99.9605 489.189 97.7334 490.764 96.0913C492.34 94.4493 494.476 93.5268 496.704 93.5268C497.219 93.5265 497.734 93.5767 498.24 93.6769C499.093 92.3358 500.332 91.3108 501.778 90.7488C503.225 90.1869 504.805 90.1169 506.292 90.5489C507.779 90.9809 509.097 91.8926 510.056 93.1534C511.016 94.4142 511.567 95.9593 511.632 97.567H511.74C513.482 97.5583 515.16 98.2527 516.422 99.5048C517.684 100.757 518.432 102.47 518.51 104.284C518.587 106.098 517.988 107.873 516.838 109.237C515.688 110.602 514.076 111.449 512.34 111.602C512.14 111.614 511.94 111.614 511.74 111.602H487.044C486.015 111.572 485.038 111.124 484.322 110.352C483.606 109.58 483.209 108.547 483.216 107.474Z" fill="#F0F0F0"/>
<path d="M73.416 96.9542C73.4145 96.4144 73.5151 95.8795 73.7122 95.3803C73.9093 94.8811 74.199 94.4273 74.5646 94.045C74.9303 93.6627 75.3647 93.3594 75.843 93.1524C76.3213 92.9454 76.8341 92.8389 77.352 92.8389C77.7588 92.8229 78.1651 92.8822 78.552 93.014C78.4967 92.5994 78.4646 92.1817 78.456 91.7632C78.456 89.4409 79.341 87.2138 80.9163 85.5717C82.4916 83.9296 84.6282 83.0071 86.856 83.0071C87.3714 83.0069 87.8857 83.0571 88.392 83.1572C89.2161 81.7473 90.4573 80.6546 91.9287 80.0437C93.4002 79.4327 95.0222 79.3366 96.5506 79.7699C98.0789 80.2031 99.4309 81.1421 100.403 82.4457C101.375 83.7492 101.914 85.3466 101.94 86.9974H102C103.735 87.0738 105.374 87.8458 106.576 89.1523C107.777 90.4588 108.448 92.1986 108.448 94.0084C108.448 95.8183 107.777 97.5581 106.576 98.8646C105.374 100.171 103.735 100.943 102 101.02H77.292C76.2648 101.003 75.2843 100.569 74.5601 99.8093C73.8359 99.0497 73.4253 98.0251 73.416 96.9542Z" fill="#F0F0F0"/>
<path d="M116.28 281.881C116.278 281.342 116.379 280.809 116.575 280.31C116.771 279.812 117.06 279.358 117.424 278.976C117.789 278.594 118.222 278.291 118.699 278.083C119.176 277.875 119.687 277.767 120.204 277.766C120.611 277.755 121.016 277.815 121.404 277.941C121.353 277.526 121.325 277.108 121.32 276.69C121.32 274.368 122.205 272.141 123.78 270.499C125.356 268.857 127.492 267.934 129.72 267.934C130.235 267.934 130.75 267.984 131.256 268.084C132.081 266.673 133.323 265.58 134.796 264.97C136.268 264.359 137.891 264.264 139.42 264.699C140.949 265.134 142.301 266.075 143.272 267.38C144.243 268.686 144.781 270.285 144.804 271.937H144.912C145.795 271.937 146.668 272.118 147.484 272.47C148.299 272.822 149.04 273.338 149.664 273.988C150.288 274.639 150.783 275.411 151.121 276.261C151.458 277.111 151.632 278.022 151.632 278.942C151.632 279.862 151.458 280.772 151.121 281.622C150.783 282.472 150.288 283.244 149.664 283.895C149.04 284.545 148.299 285.061 147.484 285.413C146.668 285.765 145.795 285.946 144.912 285.946H120.156C119.129 285.93 118.148 285.496 117.424 284.736C116.7 283.977 116.289 282.952 116.28 281.881Z" fill="#F0F0F0"/>
<path d="M387.48 75.1767C387.478 74.4627 387.612 73.7554 387.873 73.0954C388.134 72.4353 388.517 71.8353 389.001 71.3299C389.485 70.8245 390.06 70.4235 390.692 70.1499C391.325 69.8763 392.003 69.7354 392.688 69.7354C393.195 69.7377 393.699 69.8092 394.188 69.9481C394.116 69.3967 394.08 68.8409 394.08 68.2844C394.08 65.229 395.244 62.2988 397.317 60.1383C399.39 57.9778 402.201 56.764 405.132 56.764C405.817 56.7618 406.5 56.8288 407.172 56.9642C408.237 55.0612 409.875 53.5777 411.831 52.744C413.788 51.9102 415.953 51.7728 417.992 52.353C420.031 52.9331 421.829 54.1985 423.108 55.9527C424.387 57.707 425.074 59.852 425.064 62.0552H425.244C427.547 62.1434 429.728 63.1591 431.328 64.8889C432.927 66.6187 433.821 68.9277 433.821 71.3303C433.821 73.7329 432.927 76.0419 431.328 77.7716C429.728 79.5014 427.547 80.5172 425.244 80.6054H392.544C391.187 80.5695 389.897 79.9813 388.951 78.9667C388.004 77.9522 387.476 76.5918 387.48 75.1767Z" fill="#F5F5F5"/>
<path d="M289.128 170.405C287.844 169.254 286.224 167.728 286.788 166.114C287.232 164.801 288.84 164.363 289.74 163.337C291.588 161.223 289.86 157.796 287.688 156.07C285.516 154.344 282.72 153.005 281.82 150.303C281.668 149.572 281.422 148.865 281.088 148.202C279.78 146.175 276.756 147.514 274.872 148.965C274.193 149.476 273.455 149.897 272.676 150.216C272.461 149.164 271.946 148.205 271.2 147.464C269.928 146.313 268.296 144.787 268.8 143.173C269.256 141.847 270.852 141.422 271.776 140.384C273.6 138.283 271.884 134.855 269.7 133.129C267.516 131.403 264.732 130.064 263.856 127.363C263.7 126.63 263.45 125.923 263.112 125.261C261.804 123.235 258.78 124.548 256.896 125.999C255.012 127.45 251.976 128.738 250.68 126.687C249.936 125.436 250.38 123.823 249.66 122.622C248.46 120.608 245.424 121.571 243.66 123.085C241.896 124.598 240.06 126.65 237.828 126.112C238.392 125.861 239.028 125.649 239.544 125.374C242.364 123.823 241.944 118.156 239.832 116.255C238.548 115.104 236.928 113.603 237.492 111.989C237.948 110.664 239.544 110.238 240.444 109.188C242.292 107.086 240.564 103.634 238.392 101.92C236.22 100.206 233.424 98.8554 232.524 96.1536C232.37 95.4225 232.124 94.7158 231.792 94.0521C230.484 92.0257 227.448 93.3642 225.588 94.8152C223.728 96.2662 220.656 97.5295 219.372 95.4781C218.64 94.3023 219.06 92.6262 218.352 91.4128C217.152 89.4114 214.128 90.3496 212.352 91.8881C210.576 93.4267 208.752 95.4406 206.52 94.9152C204.588 94.4399 203.532 92.1758 201.48 91.9132C199.428 91.6505 197.808 93.8395 197.304 95.9284C196.8 98.0174 196.848 100.319 195.756 102.183H195.456C194.048 101.306 192.937 99.9944 192.276 98.4301C192.128 97.6974 191.881 96.99 191.544 96.3287C190.248 94.3148 187.2 95.6157 185.34 97.0792C183.48 98.5427 180.42 99.8061 179.124 97.7547C178.404 96.5789 178.812 94.8902 178.104 93.6894C176.904 91.688 173.88 92.6387 172.104 94.1647C170.328 95.6908 168.504 97.7297 166.272 97.1793C164.352 96.704 163.296 94.4399 161.244 94.1772C159.192 93.9145 157.56 96.1035 157.068 98.1925C156.576 100.281 156.6 102.583 155.508 104.447C152.532 103.846 148.452 103.959 147.744 106.948C147.654 107.598 147.694 108.26 147.862 108.893C148.029 109.526 148.32 110.116 148.716 110.626C148.357 110.831 148.019 111.074 147.708 111.352C145.968 112.865 144.108 114.904 141.852 114.366C139.944 113.903 138.9 111.639 136.836 111.377C134.772 111.114 133.14 113.303 132.66 115.392C132.18 117.481 132.192 119.782 131.1 121.646C128.112 121.058 124.044 121.171 123.336 124.223C122.88 126.224 124.368 128.088 125.592 129.714C126.816 131.34 127.848 133.729 126.576 135.356C124.516 135.243 122.472 135.779 120.708 136.894C119.842 137.469 119.199 138.343 118.892 139.364C118.584 140.385 118.633 141.486 119.028 142.473C119.935 143.794 121.247 144.751 122.748 145.187C127.164 147.051 125.76 151.129 124.44 154.419C124.292 154.431 124.144 154.431 123.996 154.419C122.064 153.943 121.008 151.679 118.968 151.429C116.928 151.179 115.284 153.355 114.792 155.432C114.3 157.508 114.324 159.822 113.232 161.686C110.232 161.111 106.164 161.223 105.468 164.263C105 166.264 106.512 168.128 107.724 169.767C108.936 171.405 109.956 173.782 108.696 175.396C106.629 175.32 104.586 175.886 102.828 177.022C101.967 177.601 101.328 178.475 101.019 179.494C100.71 180.512 100.751 181.611 101.136 182.6C102.118 183.885 103.496 184.778 105.036 185.127C112.764 188.379 102.636 198.499 106.452 199.162C111.36 200.025 117.132 199.012 117.492 205.316C117.534 206.342 117.679 207.361 117.924 208.356C118.86 211.846 121.248 213.359 126.168 210.857C129.288 209.319 130.044 207.418 133.608 207.88C136.152 208.193 138 210.044 140.808 209.807C141.197 209.806 141.58 209.708 141.924 209.519C142.278 209.284 142.57 208.962 142.776 208.581C145.284 204.828 147.24 206.379 151.32 206.192C151.642 206.214 151.961 206.117 152.22 205.916C152.341 205.788 152.436 205.635 152.5 205.467C152.563 205.3 152.595 205.121 152.592 204.941C152.699 203.852 152.605 202.753 152.316 201.701C152.109 201.188 152.054 200.621 152.16 200.075C152.364 199.349 153.24 199.074 153.912 198.737C154.167 198.589 154.412 198.422 154.644 198.236C155.242 197.755 155.74 197.152 156.107 196.464C156.474 195.776 156.703 195.017 156.78 194.233C160.62 194.609 164.208 195.097 164.484 199.987C164.528 201.015 164.681 202.034 164.94 203.027C165.852 206.517 168.24 208.03 173.148 205.529C176.268 203.99 177.036 202.076 180.588 202.552C183.132 202.864 184.98 204.716 187.788 204.478C188.177 204.478 188.56 204.379 188.904 204.19C189.259 203.953 189.555 203.631 189.768 203.252C192.264 199.5 194.22 201.051 198.3 200.863C198.388 200.876 198.476 200.876 198.564 200.863C198.856 200.834 199.125 200.687 199.314 200.453C199.503 200.219 199.595 199.917 199.572 199.612C199.666 198.553 199.573 197.484 199.296 196.46C199.09 195.951 199.035 195.388 199.14 194.846C199.344 194.121 200.232 193.821 200.892 193.495C201.159 193.344 201.416 193.172 201.66 192.983C202.33 192.426 202.868 191.715 203.232 190.906C204.54 191.319 206.292 191.056 208.608 189.893C211.752 188.367 212.508 186.441 216.06 186.928C218.616 187.241 220.452 189.08 223.26 188.855C223.65 188.838 224.031 188.731 224.376 188.542C224.724 188.3 225.015 187.979 225.228 187.604L225.432 187.329C225.474 187.626 225.457 187.929 225.383 188.219C225.308 188.51 225.178 188.781 225 189.017C223.359 188.941 221.734 189.377 220.332 190.268C219.651 190.724 219.145 191.414 218.904 192.219C218.662 193.025 218.701 193.893 219.012 194.671C219.732 195.71 220.768 196.463 221.952 196.81C228.036 199.312 220.044 207.33 223.068 207.843C226.932 208.531 231.468 207.73 231.768 212.696C231.796 213.507 231.908 214.312 232.104 215.098C232.836 217.85 234.72 218.95 238.644 217.074C241.116 215.823 241.704 214.347 244.512 214.723C246.528 214.998 247.968 216.436 250.176 216.249C250.484 216.238 250.786 216.161 251.064 216.023C251.329 215.817 251.557 215.563 251.736 215.273C253.692 212.358 255.24 213.547 258.456 213.397C258.707 213.405 258.955 213.33 259.164 213.184C259.352 212.974 259.456 212.696 259.452 212.408C259.53 211.569 259.461 210.721 259.248 209.907C259.08 209.515 259.03 209.078 259.104 208.656C259.308 208.08 259.956 207.868 260.508 207.593C260.703 207.475 260.891 207.346 261.072 207.205C261.7 206.693 262.183 206.013 262.471 205.238C262.758 204.463 262.839 203.621 262.704 202.802C263.544 202.561 264.422 202.505 265.284 202.639C267.828 202.952 269.676 204.803 272.484 204.566C272.875 204.553 273.26 204.455 273.612 204.278C273.952 204.026 274.241 203.707 274.464 203.34C276.948 199.587 278.916 201.138 282.996 200.951C283.318 200.976 283.638 200.878 283.896 200.675C284.016 200.544 284.11 200.389 284.172 200.219C284.233 200.049 284.262 199.869 284.256 199.687C284.366 198.629 284.277 197.558 283.992 196.535C283.788 196.025 283.73 195.465 283.824 194.921C284.04 194.196 284.916 193.896 285.588 193.571C285.837 193.434 286.074 193.275 286.296 193.095C287.477 192.141 288.247 190.738 288.438 189.193C288.629 187.648 288.226 186.088 287.316 184.852C286.524 183.914 285.3 183.101 285.588 181.75C285.876 180.399 287.628 180.174 288.804 179.523C291.6 177.96 291.252 172.293 289.128 170.405ZM154.068 188.167C153.961 187.96 153.896 187.733 153.876 187.499C153.856 187.265 153.881 187.03 153.951 186.807C154.02 186.583 154.132 186.377 154.28 186.2C154.428 186.023 154.609 185.88 154.812 185.778C154.622 186.592 154.373 187.391 154.068 188.167Z" fill="#E6E6E6"/>
<path d="M143.22 189.981C143.22 189.981 153.42 204.991 156.936 209.807C160.452 214.622 178.068 244.318 180.468 263.981C180.708 266.07 180.972 267.884 181.224 269.448C173.652 321.558 174.828 416.886 175.104 433.198H199.104C199.32 414.798 201.36 246.582 202.116 241.453C202.908 236.012 212.988 215.31 228.432 206.817C243.876 198.324 257.316 170.179 257.316 170.179H252.36C252.36 170.179 243.204 187.416 230.172 196.96C228.309 198.313 226.356 199.525 224.328 200.588C224.36 190.21 222.604 179.91 219.144 170.179L216.468 172.681C220.068 188.054 219.576 197.899 218.496 203.552C213.579 205.951 209.042 209.118 205.044 212.946C191.52 194.634 183.924 152.73 183.924 152.73L180.468 154.706C181.444 163.359 182.935 171.939 184.932 180.399C187.464 191.244 194.916 211.67 198.384 220.864C194.233 227.089 190.809 233.808 188.184 240.878C187.811 240.284 187.372 239.738 186.876 239.252C178.068 230.946 161.52 191.719 161.52 191.719C157.512 182.613 163.632 158.684 163.632 158.684H158.976L156.912 179.598L145.296 166.389L143.184 168.216L155.496 184.739L161.832 205.666L145.296 186.578L143.22 189.981Z" fill="#EBEBEB"/>
<path d="M575.544 230.571C573.788 229.471 571.759 228.935 569.712 229.032C568.512 227.469 569.472 225.055 570.696 223.441C571.92 221.827 573.384 219.976 572.928 217.975C572.244 214.948 568.128 214.848 565.26 215.473C564.441 213.502 563.907 211.416 563.676 209.281C563.148 207.192 561.564 205.091 559.512 205.279C557.46 205.466 556.416 207.78 554.52 208.256C554.376 208.268 554.232 208.268 554.088 208.256C552.768 204.966 551.34 200.875 555.756 199.024C557.249 198.592 558.554 197.638 559.452 196.322C559.84 195.339 559.885 194.246 559.58 193.231C559.276 192.217 558.64 191.346 557.784 190.769C556.042 189.679 554.029 189.152 552 189.255C550.728 187.654 551.76 185.265 552.96 183.651C554.16 182.038 555.684 180.174 555.216 178.185C554.508 175.17 550.476 175.058 547.536 175.683C546.729 173.712 546.195 171.632 545.952 169.504C545.424 167.402 543.936 165.314 541.8 165.501C539.664 165.689 538.704 168.003 536.82 168.478C534.936 168.954 532.8 166.99 531 165.476C530.697 165.22 530.372 164.994 530.028 164.801C530.415 164.294 530.697 163.708 530.854 163.081C531.011 162.454 531.04 161.8 530.94 161.161C530.256 158.146 526.14 158.034 523.284 158.659C522.456 156.67 521.922 154.561 521.7 152.405C521.172 150.316 519.588 148.214 517.536 148.402C515.484 148.59 514.44 150.904 512.544 151.379C510.348 151.929 508.524 149.89 506.736 148.389C504.948 146.888 502.008 145.888 500.844 147.927C500.112 149.177 500.544 150.779 499.812 151.967C498.528 154.068 495.516 152.73 493.62 151.279C491.724 149.828 488.76 148.527 487.428 150.541C487.093 151.202 486.85 151.91 486.708 152.642C485.993 154.29 484.807 155.666 483.312 156.583C482.503 154.618 481.973 152.54 481.74 150.416C481.212 148.327 479.724 146.225 477.6 146.438C475.476 146.651 474.504 148.94 472.608 149.39C470.712 149.84 468.588 147.927 466.8 146.388C465.012 144.849 462.072 143.886 460.884 145.938C460.176 147.189 460.608 148.802 459.864 149.978C458.592 152.079 455.556 150.754 453.684 149.303C451.812 147.852 448.8 146.538 447.468 148.552C447.143 149.218 446.901 149.924 446.748 150.653C445.86 153.33 443.088 154.656 440.94 156.37C438.792 158.084 437.052 161.511 438.924 163.6C439.836 164.626 441.42 165.051 441.864 166.364C442.428 168.003 440.82 169.491 439.524 170.567C437.412 172.431 437.016 178.072 439.836 179.623C440.316 179.886 440.904 180.074 441.432 180.299C439.284 180.749 437.472 178.785 435.708 177.297C433.944 175.808 430.98 174.795 429.792 176.809C429.096 178.06 429.516 179.686 428.772 180.849C427.5 182.951 424.464 181.625 422.58 180.186C420.696 178.748 417.708 177.422 416.388 179.423C416.068 180.092 415.823 180.797 415.656 181.525C414.78 184.214 412.056 185.527 409.824 187.241C407.592 188.955 405.972 192.382 407.82 194.484C408.696 195.509 410.292 195.922 410.748 197.248C411.204 198.574 409.692 200.375 408.42 201.438C407.656 202.203 407.136 203.194 406.932 204.278C406.162 203.953 405.433 203.533 404.76 203.027C402.888 201.576 399.876 200.263 398.568 202.276C398.22 202.93 397.969 203.634 397.824 204.365C396.936 207.055 394.164 208.368 392.016 210.094C389.868 211.821 388.128 215.223 390 217.324C390.9 218.35 392.496 218.763 392.94 220.089C393.504 221.727 391.884 223.191 390.54 224.279C388.536 226.168 388.032 231.784 390.84 233.36C392.04 233.986 393.756 234.198 394.044 235.562C394.332 236.925 393.12 237.651 392.328 238.639C391.423 239.864 391.021 241.413 391.21 242.946C391.399 244.48 392.164 245.873 393.336 246.82C393.56 246.997 393.797 247.156 394.044 247.295C394.728 247.633 395.556 247.908 395.796 248.658C395.909 249.209 395.85 249.783 395.628 250.297C395.367 251.315 395.277 252.374 395.364 253.424C395.363 253.787 395.496 254.136 395.736 254.4C395.991 254.589 396.299 254.686 396.612 254.675C400.632 254.863 402.612 253.424 405.12 257.039C405.322 257.42 405.616 257.739 405.972 257.965C406.309 258.163 406.689 258.266 407.076 258.265C409.872 258.515 411.672 256.689 414.276 256.351C415.126 256.217 415.993 256.273 416.82 256.514C416.706 257.31 416.796 258.124 417.081 258.873C417.365 259.622 417.834 260.28 418.44 260.779C418.629 260.924 418.825 261.058 419.028 261.179C419.544 261.442 420.228 261.655 420.408 262.243C420.493 262.664 420.446 263.102 420.276 263.493C420.059 264.307 419.989 265.155 420.072 265.995C420.045 266.225 420.105 266.457 420.239 266.642C420.374 266.827 420.572 266.949 420.792 266.983C420.88 266.996 420.968 266.996 421.056 266.983C424.248 267.121 425.784 265.958 427.728 268.847C427.907 269.134 428.135 269.384 428.4 269.585C428.672 269.727 428.972 269.804 429.276 269.81C431.472 269.998 432.876 268.559 434.916 268.297C437.712 267.947 438.288 269.435 440.748 270.623C444.66 272.687 446.532 271.512 447.264 268.76C447.448 267.985 447.561 267.193 447.6 266.396C447.876 261.467 452.4 262.205 456.252 261.567C459.24 261.042 451.296 253.186 457.356 250.585C458.531 250.261 459.562 249.523 460.272 248.496C460.572 247.716 460.603 246.853 460.36 246.052C460.117 245.251 459.615 244.563 458.94 244.105C457.557 243.248 455.963 242.835 454.356 242.917C454.175 242.673 454.044 242.392 453.972 242.093C453.9 241.794 453.887 241.483 453.936 241.178L454.08 241.366C454.295 241.735 454.581 242.055 454.92 242.304C455.27 242.491 455.655 242.594 456.048 242.604C458.844 242.829 460.656 241.028 463.248 240.69C466.788 240.215 467.532 242.116 470.652 243.655C472.968 244.906 474.708 245.156 476.016 244.756C476.38 245.551 476.914 246.248 477.576 246.795C477.81 246.983 478.059 247.15 478.32 247.295C479.004 247.633 479.82 247.908 480.06 248.658C480.171 249.208 480.117 249.781 479.904 250.297C479.636 251.314 479.547 252.374 479.64 253.424C479.635 253.603 479.664 253.782 479.726 253.95C479.788 254.117 479.881 254.27 480 254.4C480.26 254.588 480.571 254.684 480.888 254.675C484.908 254.863 486.888 253.424 489.372 257.039C489.585 257.411 489.876 257.728 490.224 257.965C490.57 258.15 490.951 258.253 491.34 258.265C494.124 258.515 495.948 256.689 498.54 256.351C502.08 255.888 502.824 257.777 505.944 259.303C510.804 261.805 513.144 260.266 514.104 256.801C514.354 255.816 514.503 254.805 514.548 253.787C514.824 248.871 518.352 248.408 522.24 248.045C522.324 248.81 522.553 249.55 522.913 250.222C523.274 250.895 523.759 251.485 524.34 251.961C524.573 252.15 524.822 252.318 525.084 252.461C525.744 252.799 526.572 253.074 526.836 253.812C526.943 254.367 526.884 254.943 526.668 255.463C526.403 256.481 526.309 257.539 526.392 258.59C526.394 258.954 526.522 259.305 526.752 259.578C527.024 259.759 527.342 259.851 527.664 259.841C531.684 260.029 533.664 258.59 536.148 262.218C536.357 262.585 536.644 262.898 536.988 263.131C537.325 263.329 537.705 263.432 538.092 263.431C540.888 263.681 542.724 261.855 545.292 261.517C548.892 261.054 549.576 262.943 552.684 264.482C557.556 266.983 559.884 265.545 560.856 262.068C561.086 261.078 561.226 260.069 561.276 259.053C561.636 252.799 567.276 253.762 572.256 252.924C576.072 252.261 565.98 242.216 573.66 238.989C575.158 238.56 576.467 237.606 577.368 236.287C577.782 235.266 577.825 234.123 577.489 233.071C577.153 232.019 576.462 231.131 575.544 230.571ZM524.04 239.477C524.258 239.578 524.451 239.728 524.607 239.916C524.762 240.104 524.876 240.326 524.94 240.565C525.04 240.991 524.976 241.44 524.76 241.816C524.463 241.057 524.223 240.275 524.04 239.477Z" fill="#E6E6E6"/>
<path d="M535.584 243.642C535.584 243.642 525.432 258.653 521.928 263.356C518.424 268.059 500.928 297.617 498.564 317.143C498.3 319.232 498.036 321.021 497.796 322.597C505.32 374.37 504.156 469.097 503.796 485.321H480C479.772 467.021 477.744 299.844 477 294.753C476.22 289.349 466.2 268.785 450.864 260.341C435.528 251.898 422.184 223.904 422.184 223.904H427.092C427.092 223.904 436.2 241.041 449.208 250.535C451.075 251.86 453.018 253.063 455.028 254.137C454.971 243.823 456.695 233.582 460.116 223.904L462.768 226.406C459.168 241.691 459.672 251.56 460.752 257.077C465.645 259.469 470.161 262.624 474.144 266.433C487.584 248.221 495.12 206.592 495.12 206.592L498.576 208.556C497.564 217.171 496.049 225.713 494.04 234.136C491.52 244.906 484.104 265.195 480.66 274.401C484.75 280.582 488.126 287.246 490.716 294.252C491.079 293.68 491.51 293.159 492 292.701C500.748 284.446 517.2 245.494 517.2 245.494C521.22 236.438 515.088 212.671 515.088 212.671H519.696L521.7 233.46L533.244 220.339L535.356 222.165L523.356 238.614L517.044 259.416L533.496 240.44L535.584 243.642Z" fill="#EBEBEB"/>
<path d="M32.22 463.481H574.62C577.451 463.407 580.194 464.508 582.246 466.542C584.298 468.575 585.492 471.375 585.564 474.326V490.65H21.276V474.313C21.3546 471.366 22.5504 468.571 24.6016 466.541C26.6528 464.511 29.3922 463.41 32.22 463.481Z" fill="#F0F0F0"/>
<path d="M89.7601 168.328L85.9561 206.429H66.9001L63.0961 168.328H89.7601Z" fill="#E0E0E0"/>
<path d="M79.9801 198.236H72.8881V457.127H79.9801V198.236Z" fill="#E0E0E0"/>
<path d="M83.952 204.103H68.904L65.568 170.642H87.288L83.952 204.103Z" fill="#F0F0F0"/>
<path d="M74.448 204.628H73.428L72.312 169.491H73.332L74.448 204.628Z" fill="#E0E0E0"/>
<path d="M76.428 156.082C76.428 156.082 65.136 167.678 56.484 167.678L59.16 169.517H93.6L96.288 167.678C87.72 167.703 76.428 156.082 76.428 156.082Z" fill="#E0E0E0"/>
<path d="M449.304 488.949H455.724L442.584 411.67H436.164L449.304 488.949Z" fill="#E0E0E0"/>
<path d="M249.648 488.949H256.068L242.94 411.67H236.508L249.648 488.949Z" fill="#E0E0E0"/>
<path d="M445.956 450.31H193.764V457.089H445.956V450.31Z" fill="#E0E0E0"/>
<path d="M390.048 488.949H383.628L396.756 411.67H403.188L390.048 488.949Z" fill="#E0E0E0"/>
<path d="M190.392 488.949H183.972L197.112 411.67H203.532L190.392 488.949Z" fill="#E0E0E0"/>
<path d="M248.664 408.656H255.06L265.752 346.651H259.368L248.664 408.656Z" fill="#E0E0E0"/>
<path d="M434.04 408.656H440.436L451.14 346.651H444.744L434.04 408.656Z" fill="#E0E0E0"/>
<path d="M341.352 408.656H347.736L358.44 346.651H352.044L341.352 408.656Z" fill="#E0E0E0"/>
<path d="M237.612 350.879H463.944L465.948 339.271H239.628L237.612 350.879Z" fill="#E0E0E0"/>
<path d="M233.988 371.881H460.32L462.324 360.273H236.004L233.988 371.881Z" fill="#E0E0E0"/>
<path d="M230.364 392.87H456.696L458.7 381.262H232.38L230.364 392.87Z" fill="#E0E0E0"/>
<path d="M455.016 406.842H182.616V414.86H455.016V406.842Z" fill="#E0E0E0"/>
<path d="M550.656 568.803C550.656 573.031 438.432 576.471 300 576.471C161.568 576.471 49.344 573.031 49.344 568.803C49.344 564.575 161.568 561.123 300 561.123C438.432 561.123 550.656 564.563 550.656 568.803Z" fill="#F5F5F5"/>
<path d="M279.756 216.799L270.948 241.228L217.812 265.658L220.212 276.165C220.212 276.165 278.292 267.834 282.612 262.968C286.932 258.102 301.236 224.192 301.236 224.192L279.756 216.799Z" fill="#E9B376"/>
<path opacity="0.3" d="M277.596 222.791L276.204 226.631L292.98 233.648L295.008 238.727L296.412 235.562L295.764 227.219L277.596 222.791Z" fill="black"/>
<path d="M229.824 262.993C229.824 262.993 227.796 258.428 224.028 257.039C220.26 255.651 217.62 253.512 214.752 252.686C211.884 251.861 214.116 255.338 215.664 256.939C217.212 258.54 218.94 260.366 217.596 261.392C216.252 262.418 202.08 263.931 200.4 265.608C198.72 267.284 201.06 267.722 201.06 267.722C201.06 267.722 197.628 268.209 197.46 269.673C197.46 270.061 197.892 271.024 199.488 271.061C203.088 271.149 210.624 270.911 210.624 270.911C210.192 270.911 200.892 271.899 199.524 272.237C197.724 272.675 197.124 273.838 197.376 274.914C197.772 276.453 209.376 275.639 209.844 275.965C209.844 275.965 203.172 276.19 202.284 278.016C201.396 279.842 205.608 279.942 209.34 279.267C212.748 278.667 219.6 278.429 223.02 277.466C227.232 276.215 229.8 274.501 230.46 270.298C230.852 267.847 230.633 265.331 229.824 262.993Z" fill="#E9B376"/>
<path opacity="0.3" d="M201.48 267.684C201.447 267.674 201.419 267.654 201.398 267.626C201.378 267.597 201.367 267.563 201.367 267.528C201.367 267.492 201.378 267.458 201.398 267.43C201.419 267.401 201.447 267.381 201.48 267.371C204.24 267.059 207.048 266.871 209.808 266.821C209.828 266.819 209.848 266.822 209.867 266.828C209.886 266.835 209.903 266.846 209.918 266.86C209.932 266.874 209.944 266.891 209.952 266.91C209.96 266.93 209.964 266.95 209.964 266.971C209.964 267.014 209.948 267.055 209.918 267.086C209.889 267.116 209.849 267.134 209.808 267.134C207.06 267.134 204.264 267.371 201.516 267.684H201.48Z" fill="black"/>
<path opacity="0.3" d="M212.4 276.115C212.372 276.115 212.345 276.107 212.322 276.091C212.298 276.076 212.28 276.053 212.268 276.027C210.948 272.487 210.648 268.622 211.404 264.907C211.409 264.887 211.417 264.869 211.429 264.852C211.44 264.836 211.455 264.822 211.472 264.812C211.488 264.801 211.507 264.794 211.526 264.791C211.546 264.788 211.565 264.789 211.584 264.794C211.603 264.799 211.621 264.808 211.636 264.82C211.652 264.832 211.665 264.847 211.675 264.865C211.685 264.882 211.692 264.902 211.695 264.922C211.698 264.942 211.697 264.962 211.692 264.982C210.95 268.631 211.246 272.426 212.544 275.902C212.56 275.942 212.56 275.987 212.544 276.026C212.537 276.046 212.525 276.064 212.511 276.079C212.496 276.094 212.479 276.106 212.46 276.115H212.4Z" fill="black"/>
<path opacity="0.3" d="M224.952 267.847C223.519 267.856 222.123 267.37 220.983 266.465C219.843 265.56 219.024 264.286 218.652 262.843C218.644 262.803 218.651 262.762 218.671 262.728C218.691 262.693 218.723 262.667 218.76 262.655C218.798 262.643 218.839 262.647 218.875 262.666C218.911 262.684 218.938 262.716 218.952 262.756C219.316 264.208 220.155 265.483 221.326 266.358C222.496 267.233 223.923 267.653 225.36 267.546C225.401 267.546 225.44 267.561 225.471 267.588C225.502 267.616 225.522 267.654 225.528 267.696C225.53 267.717 225.527 267.738 225.521 267.758C225.514 267.777 225.504 267.795 225.49 267.811C225.477 267.826 225.46 267.838 225.442 267.847C225.424 267.855 225.404 267.859 225.384 267.859L224.952 267.847Z" fill="black"/>
<path d="M241.392 196.185C241.392 196.185 251.496 196.185 254.652 208.919C257.808 221.652 257.172 269.935 258.78 277.078C260.388 284.22 273.852 337.407 276.912 363.112C276.912 363.112 262.632 364.363 261.312 364.125C259.992 363.888 238.668 259.216 238.668 259.216L241.392 196.185Z" fill="#008695"/>
<g opacity="0.3">
<path d="M241.392 196.185C241.392 196.185 251.496 196.185 254.652 208.919C257.808 221.652 257.172 269.935 258.78 277.078C260.388 284.22 273.852 337.407 276.912 363.112C276.912 363.112 262.632 364.363 261.312 364.125C259.992 363.888 238.668 259.216 238.668 259.216L241.392 196.185Z" fill="black"/>
</g>
<path d="M261.48 219.326C268.596 234.336 279.924 250.21 279.924 250.21C283.524 249.634 307.644 239.365 307.644 239.365L310.296 250.097C305.36 255.162 300.008 259.766 294.3 263.856C279.756 273.863 274.392 273.175 266.976 265.107C259.56 257.039 244.44 227.306 244.44 227.306L249.72 200.338L248.4 198.774C256.404 202.402 258 212.108 261.48 219.326Z" fill="#008695"/>
<g opacity="0.3">
<path d="M261.48 219.326C268.596 234.336 279.924 250.21 279.924 250.21C283.524 249.634 307.644 239.365 307.644 239.365L310.296 250.097C305.36 255.162 300.008 259.766 294.3 263.856C279.756 273.863 274.392 273.175 266.976 265.107C259.56 257.039 244.44 227.306 244.44 227.306L249.72 200.338L248.4 198.774C256.404 202.402 258 212.108 261.48 219.326Z" fill="black"/>
</g>
<path opacity="0.3" d="M257.472 251.023C257.472 251.023 258.672 238.039 257.472 230.821C256.272 223.604 254.964 216.799 254.964 216.799C254.964 216.799 259.548 227.719 260.064 235.687C260.58 243.655 260.256 255.701 260.256 255.701L257.472 251.023Z" fill="black"/>
<path opacity="0.3" d="M294.06 245.018C293.964 245.018 296.04 262.618 296.04 262.618L299.46 259.979L297.264 243.718L294.06 245.018Z" fill="black"/>
<path d="M177.456 555.269L190.392 556.583L197.46 522.146L177.456 520.195V555.269Z" fill="#E9B376"/>
<path d="M192.276 551.091H187.656C187.139 551.1 186.631 551.234 186.172 551.484C185.714 551.733 185.318 552.092 185.016 552.53C182.352 556.282 180.36 554.881 177.456 551.279C175.608 551.054 175.116 553.268 174.972 553.856L171.516 566.952C171.383 567.471 171.45 568.024 171.704 568.492C171.957 568.96 172.377 569.305 172.872 569.454C173.058 569.514 173.253 569.544 173.448 569.541H210C215.82 569.541 217.032 563.425 214.632 562.862C203.832 560.36 196.212 557.07 192.876 553.793C192.312 553.293 192.936 552.88 192.276 551.091Z" fill="#008695"/>
<path opacity="0.3" d="M192.276 551.091H187.656C187.139 551.1 186.631 551.234 186.172 551.484C185.714 551.733 185.318 552.092 185.016 552.53C182.352 556.282 180.36 554.881 177.456 551.279C175.608 551.054 175.116 553.268 174.972 553.856L171.516 566.952C171.383 567.471 171.45 568.024 171.704 568.492C171.957 568.96 172.377 569.305 172.872 569.454C173.058 569.514 173.253 569.544 173.448 569.541H210C215.82 569.541 217.032 563.425 214.632 562.862C203.832 560.36 196.212 557.07 192.876 553.793C192.312 553.293 192.936 552.88 192.276 551.091Z" fill="black"/>
<path d="M202.296 554.819C202.536 554.638 202.731 554.402 202.866 554.128C203.002 553.854 203.074 553.551 203.076 553.243C203.1 553.08 203.077 552.914 203.011 552.765C202.945 552.616 202.838 552.491 202.704 552.405C201.252 551.329 195.504 554.143 194.832 554.469C194.797 554.484 194.765 554.506 194.738 554.534C194.712 554.562 194.69 554.595 194.676 554.631C194.653 554.699 194.656 554.774 194.685 554.84C194.714 554.905 194.767 554.956 194.832 554.981C196.253 555.33 197.705 555.523 199.164 555.557C200.257 555.666 201.355 555.407 202.296 554.819ZM202.296 552.855C202.355 552.891 202.4 552.946 202.426 553.011C202.452 553.077 202.457 553.149 202.44 553.218C202.428 553.44 202.371 553.657 202.274 553.855C202.177 554.053 202.042 554.228 201.876 554.368C200.556 555.382 197.388 554.944 195.684 554.619C198.132 553.518 201.6 552.28 202.344 552.88L202.296 552.855Z" fill="#263238"/>
<path d="M195.024 555.044C196.764 554.281 200.4 551.291 200.196 549.74C200.196 549.415 199.944 549.015 199.164 548.915C195.996 548.527 194.628 554.456 194.628 554.706C194.615 554.758 194.616 554.812 194.631 554.862C194.646 554.913 194.674 554.959 194.712 554.994H194.892L195.024 555.044ZM199.056 549.403C199.644 549.403 199.644 549.678 199.644 549.753C199.812 550.716 197.172 553.18 195.288 554.218C195.672 552.842 196.836 549.378 198.888 549.378L199.056 549.403Z" fill="#263238"/>
<path d="M190.572 557.758C190.521 557.775 190.467 557.775 190.416 557.758C190.35 557.715 190.303 557.646 190.285 557.566C190.267 557.487 190.28 557.403 190.32 557.333C190.778 556.587 191.385 555.953 192.099 555.473C192.814 554.994 193.619 554.681 194.46 554.556C194.538 554.545 194.617 554.567 194.679 554.616C194.742 554.665 194.784 554.738 194.796 554.819C194.803 554.859 194.802 554.901 194.792 554.941C194.783 554.981 194.766 555.018 194.743 555.051C194.719 555.084 194.689 555.111 194.655 555.131C194.621 555.152 194.583 555.165 194.544 555.169C193.789 555.281 193.067 555.563 192.426 555.995C191.786 556.427 191.244 556.999 190.836 557.671C190.802 557.706 190.76 557.733 190.714 557.748C190.668 557.764 190.62 557.767 190.572 557.758Z" fill="#263238"/>
<path d="M193.32 559.76C193.27 559.778 193.215 559.778 193.164 559.76C193.13 559.739 193.101 559.712 193.077 559.679C193.054 559.646 193.037 559.608 193.028 559.569C193.019 559.529 193.018 559.487 193.025 559.447C193.032 559.407 193.046 559.368 193.068 559.334C193.523 558.586 194.13 557.95 194.845 557.47C195.559 556.991 196.366 556.679 197.208 556.557C197.286 556.547 197.365 556.568 197.428 556.617C197.49 556.666 197.532 556.739 197.544 556.82C197.554 556.905 197.533 556.99 197.483 557.058C197.434 557.125 197.361 557.17 197.28 557.183C196.525 557.295 195.803 557.577 195.162 558.009C194.522 558.441 193.98 559.013 193.572 559.685C193.538 559.715 193.498 559.738 193.454 559.751C193.411 559.764 193.365 559.767 193.32 559.76Z" fill="#263238"/>
<path d="M197.244 561.774C197.193 561.786 197.139 561.786 197.088 561.774C197.054 561.752 197.024 561.723 197 561.689C196.977 561.655 196.96 561.617 196.951 561.576C196.942 561.535 196.941 561.493 196.948 561.451C196.955 561.41 196.97 561.371 196.992 561.336C197.447 560.587 198.054 559.951 198.769 559.472C199.483 558.992 200.29 558.681 201.132 558.559C201.21 558.548 201.289 558.57 201.352 558.619C201.414 558.668 201.456 558.741 201.468 558.822C201.475 558.863 201.473 558.905 201.463 558.946C201.453 558.987 201.436 559.025 201.411 559.058C201.386 559.091 201.355 559.118 201.319 559.138C201.283 559.157 201.244 559.169 201.204 559.172C200.45 559.288 199.729 559.572 199.09 560.003C198.45 560.435 197.907 561.004 197.496 561.673C197.464 561.709 197.425 561.736 197.381 561.753C197.337 561.771 197.291 561.778 197.244 561.774Z" fill="#263238"/>
<path d="M240.168 554.218L253.104 555.544L259.104 520.983L240.72 518.894L240.168 554.218Z" fill="#E9B376"/>
<path d="M254.988 550.053H250.368C249.852 550.059 249.344 550.191 248.885 550.438C248.427 550.686 248.03 551.043 247.728 551.479C245.064 555.232 243.072 553.843 240.168 550.228C238.332 550.003 237.828 552.204 237.684 552.792L234.228 565.889C234.095 566.408 234.162 566.961 234.416 567.429C234.669 567.896 235.089 568.242 235.584 568.391C235.771 568.447 235.966 568.472 236.16 568.466H272.76C278.58 568.466 279.792 562.349 277.392 561.786C266.592 559.284 258.972 555.995 255.636 552.73C255.024 552.255 255.66 551.829 254.988 550.053Z" fill="#008695"/>
<path d="M265.008 553.781C265.247 553.599 265.442 553.362 265.577 553.089C265.713 552.815 265.785 552.512 265.788 552.204C265.811 552.04 265.788 551.873 265.722 551.722C265.656 551.571 265.55 551.443 265.416 551.354C263.964 550.291 258.216 553.105 257.544 553.43C257.493 553.447 257.449 553.481 257.417 553.526C257.386 553.571 257.369 553.625 257.369 553.681C257.369 553.736 257.386 553.79 257.417 553.835C257.449 553.88 257.493 553.914 257.544 553.931C258.965 554.283 260.416 554.48 261.876 554.519C262.969 554.622 264.064 554.364 265.008 553.781ZM265.008 551.817C265.066 551.85 265.111 551.903 265.137 551.966C265.163 552.03 265.168 552.1 265.152 552.167C265.141 552.389 265.086 552.607 264.988 552.805C264.891 553.004 264.755 553.178 264.588 553.318C263.268 554.343 260.1 553.906 258.396 553.568C260.844 552.467 264.252 551.229 265.056 551.817H265.008Z" fill="#263238"/>
<path d="M257.736 553.993C259.476 553.243 263.112 550.241 262.908 548.702C262.908 548.364 262.656 547.977 261.876 547.864C258.708 547.489 257.352 553.418 257.352 553.668C257.334 553.716 257.331 553.768 257.344 553.818C257.357 553.868 257.385 553.912 257.424 553.943C257.453 553.956 257.483 553.962 257.514 553.962C257.545 553.962 257.576 553.956 257.604 553.943L257.736 553.993ZM261.768 548.352C262.356 548.414 262.356 548.64 262.356 548.715C262.524 549.678 259.884 552.142 258 553.18C258.384 551.792 259.548 548.339 261.6 548.339L261.768 548.352Z" fill="#263238"/>
<path d="M254.268 556.72C254.217 556.733 254.163 556.733 254.112 556.72C254.078 556.698 254.048 556.67 254.024 556.636C254.001 556.602 253.984 556.563 253.975 556.522C253.966 556.481 253.965 556.439 253.972 556.398C253.979 556.357 253.994 556.317 254.016 556.282C254.47 555.535 255.074 554.9 255.787 554.421C256.5 553.941 257.304 553.629 258.144 553.505C258.225 553.498 258.305 553.522 258.369 553.573C258.434 553.623 258.477 553.698 258.492 553.78C258.499 553.863 258.476 553.945 258.427 554.01C258.378 554.075 258.307 554.118 258.228 554.131C257.474 554.245 256.752 554.527 256.112 554.959C255.472 555.391 254.929 555.962 254.52 556.632C254.487 556.666 254.448 556.692 254.404 556.707C254.36 556.722 254.314 556.727 254.268 556.72Z" fill="#263238"/>
<path d="M257.136 558.972C257.085 558.982 257.032 558.982 256.98 558.972C256.913 558.925 256.866 558.854 256.848 558.773C256.83 558.691 256.843 558.606 256.884 558.534C257.343 557.789 257.95 557.155 258.664 556.676C259.379 556.197 260.183 555.884 261.024 555.757C261.103 555.75 261.182 555.774 261.244 555.825C261.307 555.876 261.348 555.95 261.36 556.032C261.365 556.073 261.362 556.115 261.352 556.155C261.341 556.195 261.323 556.232 261.298 556.265C261.274 556.297 261.243 556.325 261.209 556.345C261.174 556.365 261.136 556.378 261.096 556.382C260.341 556.495 259.619 556.777 258.978 557.209C258.338 557.64 257.796 558.212 257.388 558.884C257.356 558.919 257.316 558.945 257.272 558.96C257.228 558.975 257.182 558.979 257.136 558.972Z" fill="#263238"/>
<path d="M260.712 560.86C260.657 560.877 260.599 560.877 260.544 560.86C260.511 560.839 260.483 560.811 260.46 560.777C260.438 560.744 260.423 560.706 260.415 560.666C260.407 560.627 260.407 560.586 260.415 560.546C260.423 560.506 260.438 560.468 260.46 560.435C260.914 559.688 261.518 559.053 262.231 558.574C262.944 558.094 263.748 557.782 264.588 557.658C264.628 557.651 264.668 557.652 264.707 557.662C264.746 557.671 264.783 557.689 264.815 557.713C264.848 557.737 264.875 557.768 264.896 557.804C264.917 557.84 264.93 557.88 264.936 557.921C264.943 558.003 264.92 558.085 264.871 558.15C264.822 558.216 264.751 558.259 264.672 558.271C263.918 558.387 263.197 558.671 262.558 559.103C261.918 559.534 261.375 560.104 260.964 560.773C260.931 560.807 260.892 560.832 260.848 560.847C260.804 560.862 260.758 560.867 260.712 560.86Z" fill="#263238"/>
<path d="M260.976 299.056C261.912 301.945 272.364 394.196 272.244 414.135C272.148 430.246 260.712 541.722 260.712 541.722H235.512C235.512 541.722 238.8 484.446 238.14 465.82C237.48 447.195 241.74 412.208 241.74 412.208L214.8 328.201L215.808 300.019L260.976 299.056Z" fill="#263238"/>
<path d="M180.492 423.003C181.092 420.314 182.028 414.86 183.192 407.655H183.084C183.936 398.124 181.008 348.79 183.888 320.62C186.12 302.671 190.224 293.102 194.688 287.185L195.312 286.347C196.056 285.396 196.512 284.871 196.512 284.871C197.352 285.084 198.192 285.296 199.02 285.484L199.956 285.684C231.24 292.514 256.248 283.583 256.248 283.583C259.128 290.988 262.176 308.537 264.276 324.936C261 328.688 248.268 332.153 231.792 335.368L227.1 357.521C224.628 371.28 221.448 384.715 218.7 396.848L215.892 410.132C215.712 410.995 215.544 411.858 215.388 412.709C213.96 420.289 198 542.26 198 542.26L175.008 541.71C175.008 541.71 172.476 459.403 180.492 423.003Z" fill="#263238"/>
<path opacity="0.3" d="M254.988 550.053H250.368C249.852 550.059 249.344 550.191 248.885 550.438C248.427 550.686 248.03 551.043 247.728 551.479C245.064 555.232 243.072 553.843 240.168 550.228C238.332 550.003 237.828 552.204 237.684 552.792L234.228 565.889C234.095 566.408 234.162 566.961 234.416 567.429C234.669 567.896 235.089 568.242 235.584 568.391C235.771 568.447 235.966 568.472 236.16 568.466H272.76C278.58 568.466 279.792 562.349 277.392 561.786C266.592 559.284 258.972 555.995 255.636 552.73C255.024 552.255 255.66 551.829 254.988 550.053Z" fill="black"/>
<path d="M187.008 234.874L183.624 203.602C188.844 195.484 209.808 191.169 209.808 191.169L226.824 192.145C226.824 192.145 235.824 194.359 241.428 196.26C244.05 200.09 246.244 204.22 247.968 208.568C247.968 208.568 256.2 226.919 254.916 239.84C254.376 245.269 253.2 265.958 254.652 275.277L262.368 299.969C231.276 325.211 192.936 298.83 192.936 298.83C194.328 294.365 197.4 284.496 198.036 280.143C197.58 274.576 196.08 270.936 193.824 261.192C193.392 259.278 187.764 236.7 187.008 234.874Z" fill="#008695"/>
<path d="M223.932 262.318L230.196 261.742L232.692 270.961L226.404 273.213L223.932 262.318Z" fill="#E9B376"/>
<path d="M228.348 261.255C228.348 261.255 229.284 256.726 232.38 254.688C235.476 252.649 237.444 250.159 239.844 248.809C242.244 247.458 242.64 250.272 241.572 252.036C240.504 253.799 237.6 256.589 239.004 257.214C240.408 257.84 253.404 256.239 255.276 257.339C257.148 258.44 255.096 259.378 255.096 259.378C255.096 259.378 258.024 259.041 258.696 260.354C259.368 261.667 257.628 262.455 257.628 262.455C257.628 262.455 259.596 262.293 259.548 263.706C259.5 265.12 247.872 267.721 247.476 268.109C247.476 268.109 254.232 265.608 255.384 267.071C256.536 268.535 252.852 270.111 249.936 271.449C246.744 272.747 243.303 273.244 239.892 272.9C235.848 272.525 230.22 273.025 228.804 269.385C227.98 266.762 227.823 263.96 228.348 261.255Z" fill="#E9B376"/>
<path d="M204.3 235.687C202.932 219.151 199.812 193.158 193.224 196.273C189.012 198.236 186.36 199.575 184.188 201.514C182.76 202.765 182.52 205.804 181.56 209.019C178.896 218 183.624 281.894 183.624 281.894L168.504 370.805L199.2 374.995C199.2 374.995 205.68 252.236 204.3 235.687Z" fill="#008695"/>
<path opacity="0.3" d="M204.3 235.687C202.932 219.151 199.812 193.158 193.224 196.273C189.012 198.236 186.36 199.575 184.188 201.514C182.76 202.765 182.52 205.804 181.56 209.019C178.896 218 183.864 280.681 183.864 280.681L168.48 370.943L199.2 374.995C199.2 374.995 205.68 252.236 204.3 235.687Z" fill="black"/>
<path opacity="0.3" d="M189.972 269.573C189.972 269.573 195.084 238.539 194.772 224.142L185.088 262.918L189.972 269.573Z" fill="black"/>
<path opacity="0.3" d="M181.8 281.318C183.175 283.103 184.924 284.536 186.912 285.509C191.088 287.322 203.46 283.382 203.46 283.382L203.628 277.878L181.8 281.318Z" fill="black"/>
<path d="M194.748 224.142C193.98 224.142 188.592 260.241 188.592 260.241L226.704 259.353L228.84 275.352C228.84 275.352 212.16 279.58 193.704 282.719C174.672 285.947 167.544 277.166 167.46 263.706C167.376 251.36 172.26 221.377 172.26 221.377C174.732 209.569 179.592 205.216 185.568 200.375L194.748 224.142Z" fill="#008695"/>
<path opacity="0.3" d="M194.748 224.142C193.98 224.142 188.592 260.241 188.592 260.241L226.704 259.353L228.84 275.352C228.84 275.352 212.16 279.58 193.704 282.719C174.672 285.947 167.544 277.166 167.46 263.706C167.376 251.36 172.26 221.377 172.26 221.377C174.732 209.569 179.592 205.216 185.568 200.375L194.748 224.142Z" fill="black"/>
<path d="M205.116 130.527C205.116 130.527 209.652 123.472 221.7 122.547C233.748 121.621 247.248 125.261 253.776 142.486L248.508 143.861C252.022 156.827 253.561 170.288 253.068 183.751C253.068 183.751 216.132 188.905 192.24 184.614C192.14 172.921 192.975 161.239 194.736 149.69C197.7 129.389 205.116 130.527 205.116 130.527Z" fill="#263238"/>
<path d="M206.016 192.92C206.016 192.92 211.44 196.923 218.46 202.739C219.926 203.951 221.516 204.991 223.2 205.842C227.748 208.118 231.852 209.356 232.86 207.092C233.089 206.581 233.262 206.044 233.376 205.491C234.168 201.739 233.58 196.46 230.592 194.171C227.22 191.594 225.552 189.33 226.008 185.628C226.301 183.436 226.849 181.289 227.64 179.236L223.776 177.022L209.772 163.4C211.644 172.018 212.916 187.491 206.016 192.92Z" fill="#E9B376"/>
<path opacity="0.2" d="M225.924 186.378C222.132 184.239 217.92 180.437 218.232 175.871C218.335 174.198 218.629 172.543 219.108 170.943L227.016 181.012C226.476 182.757 226.11 184.555 225.924 186.378Z" fill="black"/>
<path d="M206.556 147.527C208.368 161.899 208.848 168.003 216.276 175.271C227.448 186.216 243.876 181.713 246.132 167.29C248.208 154.319 244.932 132.992 231.084 127.488C217.476 122.059 204.744 133.154 206.556 147.527Z" fill="#E9B376"/>
<path d="M225.384 151.492C225.516 153.005 226.356 154.231 227.268 154.219C228.18 154.206 228.816 152.968 228.684 151.429C228.552 149.891 227.724 148.677 226.812 148.702C225.9 148.727 225.264 149.966 225.384 151.492Z" fill="#263238"/>
<path d="M239.448 150.841C239.568 152.317 240.408 153.493 241.32 153.48C242.232 153.468 242.856 152.23 242.736 150.766C242.616 149.303 241.776 148.114 240.864 148.127C239.952 148.139 239.316 149.365 239.448 150.841Z" fill="#263238"/>
<path d="M221.58 146.351C221.668 146.357 221.757 146.343 221.839 146.311C221.922 146.278 221.997 146.228 222.06 146.163C222.635 145.544 223.348 145.083 224.135 144.819C224.922 144.555 225.759 144.497 226.572 144.65C226.656 144.674 226.743 144.679 226.829 144.666C226.915 144.653 226.997 144.621 227.071 144.573C227.144 144.524 227.207 144.461 227.255 144.386C227.304 144.311 227.337 144.226 227.352 144.137C227.379 143.949 227.339 143.757 227.239 143.598C227.14 143.439 226.988 143.324 226.812 143.274C225.787 143.052 224.724 143.104 223.723 143.425C222.722 143.747 221.816 144.327 221.088 145.112C220.964 145.249 220.895 145.431 220.895 145.619C220.895 145.807 220.964 145.989 221.088 146.126C221.219 146.263 221.395 146.343 221.58 146.351Z" fill="#263238"/>
<path d="M242.628 143.461C242.698 143.43 242.761 143.384 242.813 143.326C242.864 143.267 242.904 143.199 242.928 143.123C242.978 142.95 242.968 142.764 242.9 142.597C242.832 142.43 242.711 142.293 242.556 142.21C241.709 141.685 240.746 141.396 239.761 141.37C238.775 141.343 237.8 141.581 236.928 142.06C236.802 142.174 236.719 142.332 236.697 142.505C236.675 142.677 236.714 142.852 236.807 142.997C236.9 143.142 237.04 143.246 237.202 143.29C237.364 143.334 237.535 143.315 237.684 143.236C238.38 142.873 239.153 142.698 239.932 142.729C240.71 142.76 241.468 142.994 242.136 143.411C242.287 143.495 242.464 143.513 242.628 143.461Z" fill="#263238"/>
<path d="M234.564 150.328C235.928 153.356 237.585 156.232 239.508 158.909C239.609 159.046 239.678 159.206 239.711 159.375C239.743 159.545 239.738 159.72 239.695 159.887C239.652 160.053 239.573 160.208 239.463 160.338C239.354 160.468 239.217 160.569 239.064 160.635C237.875 161.061 236.595 161.135 235.368 160.848L234.564 150.328Z" fill="#D58745"/>
<path d="M226.296 148.777L229.44 147.864C229.44 147.864 227.796 150.404 226.296 148.777Z" fill="#263238"/>
<path d="M240.384 148.202L243.528 147.289C243.528 147.289 241.896 149.828 240.384 148.202Z" fill="#263238"/>
<path d="M214.92 155.532C214.92 155.532 218.232 145.112 216.336 136.769C216.336 136.769 241.848 124.673 246.264 151.267C246.264 151.267 242.844 121.659 220.848 123.948C198.852 126.237 197.28 161.136 209.784 169.642C209.784 169.717 212.04 162.874 214.92 155.532Z" fill="#263238"/>
<path d="M202.8 159.447C204.365 162.061 206.858 163.923 209.736 164.626C213.432 165.439 215.1 159.222 213.696 155.444C213.047 153.745 211.836 152.345 210.282 151.496C208.728 150.647 206.934 150.406 205.224 150.816C201.756 151.692 200.82 156.145 202.8 159.447Z" fill="#E9B376"/>
<path opacity="0.2" d="M210.528 158.672C210.454 158.672 210.383 158.645 210.328 158.594C210.272 158.543 210.237 158.473 210.228 158.397C210.092 157.102 209.471 155.916 208.5 155.096C207.529 154.276 206.287 153.889 205.044 154.019C204.964 154.023 204.885 153.995 204.823 153.942C204.761 153.889 204.72 153.814 204.708 153.731C204.705 153.69 204.709 153.648 204.721 153.609C204.734 153.57 204.753 153.533 204.779 153.502C204.804 153.471 204.836 153.445 204.871 153.426C204.906 153.407 204.945 153.396 204.984 153.393C205.683 153.321 206.389 153.393 207.061 153.605C207.734 153.817 208.359 154.166 208.902 154.631C209.445 155.095 209.895 155.667 210.225 156.314C210.556 156.96 210.76 157.668 210.828 158.397C210.835 158.478 210.811 158.558 210.762 158.621C210.712 158.684 210.642 158.725 210.564 158.734L210.528 158.672Z" fill="black"/>
<path d="M230.904 165.701C229.961 165.677 229.044 165.375 228.258 164.831C227.473 164.286 226.851 163.521 226.464 162.624C226.448 162.586 226.44 162.546 226.439 162.505C226.438 162.463 226.445 162.422 226.46 162.384C226.474 162.346 226.496 162.311 226.523 162.281C226.551 162.251 226.584 162.228 226.62 162.211C226.695 162.182 226.778 162.184 226.852 162.217C226.925 162.249 226.984 162.31 227.016 162.387C227.44 163.395 228.205 164.207 229.164 164.668C230.124 165.129 231.213 165.207 232.224 164.888C232.262 164.877 232.302 164.874 232.341 164.88C232.38 164.885 232.417 164.899 232.451 164.92C232.485 164.941 232.514 164.969 232.537 165.002C232.56 165.036 232.576 165.073 232.584 165.113C232.602 165.193 232.59 165.277 232.55 165.347C232.509 165.417 232.444 165.468 232.368 165.489C231.89 165.622 231.399 165.694 230.904 165.701Z" fill="#263238"/>
<path d="M301.884 243.167C301.884 243.167 301.32 238.164 303.84 234.936C306.36 231.709 307.536 228.432 309.564 226.18C311.592 223.929 311.436 228.094 310.92 230.296C310.404 232.497 309.852 235.012 311.496 235.149C313.14 235.287 326.028 228.895 328.296 229.358C330.564 229.82 328.8 231.534 328.8 231.534C328.8 231.534 331.968 230.071 332.856 231.221C333.096 231.522 333.168 232.61 331.824 233.51C328.8 235.537 322.224 239.452 322.224 239.452C322.596 239.214 331.02 234.987 332.364 234.524C334.116 233.923 335.232 234.524 335.532 235.637C335.964 237.163 325.704 242.779 325.428 243.33C325.428 243.33 331.236 239.89 332.904 240.966C334.572 242.041 331.032 244.418 327.528 245.894C324.312 247.232 318.348 250.76 314.964 251.811C310.776 253.061 307.692 252.974 305.016 249.747C303.447 247.871 302.368 245.605 301.884 243.167Z" fill="#E9B376"/>
<path opacity="0.3" d="M320.988 235.837C320.962 235.836 320.936 235.829 320.914 235.816C320.891 235.803 320.871 235.784 320.856 235.762C320.838 235.725 320.835 235.683 320.846 235.643C320.857 235.604 320.882 235.57 320.916 235.549C323.316 234.086 325.776 232.71 328.284 231.484C328.301 231.476 328.32 231.471 328.339 231.47C328.358 231.47 328.377 231.473 328.395 231.48C328.413 231.487 328.429 231.497 328.443 231.511C328.457 231.525 328.468 231.541 328.476 231.559C328.486 231.577 328.492 231.597 328.494 231.617C328.495 231.637 328.493 231.658 328.486 231.677C328.479 231.696 328.468 231.714 328.454 231.728C328.44 231.742 328.423 231.753 328.404 231.759C325.92 233.01 323.448 234.361 321.06 235.825L320.988 235.837Z" fill="black"/>
<path opacity="0.3" d="M323.232 244.893C323.197 244.891 323.163 244.876 323.137 244.851C323.111 244.826 323.093 244.792 323.088 244.756C322.434 241.078 320.766 237.679 318.288 234.974C318.275 234.96 318.264 234.943 318.257 234.925C318.249 234.907 318.246 234.887 318.246 234.868C318.246 234.848 318.249 234.828 318.257 234.81C318.264 234.792 318.275 234.775 318.288 234.761C318.317 234.732 318.356 234.716 318.396 234.716C318.436 234.716 318.475 234.732 318.504 234.761C320.995 237.521 322.663 240.976 323.304 244.706C323.308 244.725 323.307 244.746 323.303 244.765C323.299 244.785 323.291 244.803 323.28 244.82C323.268 244.836 323.254 244.85 323.238 244.86C323.221 244.871 323.203 244.878 323.184 244.881L323.232 244.893Z" fill="black"/>
<path opacity="0.3" d="M308.016 244.881C307.982 244.885 307.947 244.876 307.918 244.856C307.889 244.835 307.869 244.805 307.86 244.77C307.851 244.735 307.855 244.697 307.87 244.665C307.886 244.633 307.912 244.607 307.944 244.593C309.212 243.899 310.218 242.779 310.8 241.416C311.35 240.03 311.426 238.488 311.016 237.05C311.005 237.009 311.01 236.965 311.03 236.927C311.051 236.89 311.084 236.862 311.124 236.85C311.142 236.845 311.161 236.843 311.18 236.844C311.199 236.846 311.217 236.852 311.234 236.861C311.251 236.871 311.266 236.883 311.278 236.899C311.29 236.914 311.299 236.931 311.304 236.95C311.743 238.459 311.662 240.081 311.074 241.534C310.487 242.987 309.431 244.18 308.088 244.906L308.016 244.881Z" fill="black"/>
<path d="M339.12 103.821C342.132 102.12 331.668 111.877 332.808 121.496C333.948 131.115 336.132 154.106 336.132 154.106L357.252 148.252L339.12 103.821Z" fill="#263238"/>
<path d="M463.08 231.697L431.328 253.574C430.365 252.571 429.482 251.487 428.688 250.335C424.428 244.593 418.284 234.261 416.304 230.871L400.296 255.889C404.976 260.98 424.056 274.476 427.272 275.027C435.612 276.465 468.984 238.814 468.984 238.814L463.08 231.697Z" fill="#E9B376"/>
<path d="M344.964 154.056C337.764 157.283 326.376 178.235 326.376 178.235L329.328 183.163L334.656 185.765C334.656 185.765 343.296 171.13 348.996 168.503C354.696 165.877 344.964 154.056 344.964 154.056Z" fill="#008695"/>
<path opacity="0.3" d="M344.964 154.056C337.764 157.283 326.376 178.235 326.376 178.235L329.328 183.163L334.656 185.765C334.656 185.765 343.296 171.13 348.996 168.503C354.696 165.877 344.964 154.056 344.964 154.056Z" fill="white"/>
<path d="M344.964 154.056C356.462 147.557 369.818 145.581 382.596 148.49C386.376 150.416 389.208 153.643 393.456 177.259C394.86 185.115 402.48 185.252 405.732 192.783C406.66 194.101 407.047 195.75 406.808 197.366C406.57 198.983 405.725 200.434 404.46 201.401C404.055 201.715 403.611 201.972 403.14 202.164C391.824 206.867 370.56 214.523 358.392 211.108C358.404 211.12 345.744 179.636 344.964 154.056Z" fill="#008695"/>
<path opacity="0.3" d="M344.964 154.056C356.462 147.557 369.818 145.581 382.596 148.49C386.376 150.416 389.208 153.643 393.456 177.259C394.86 185.115 402.48 185.252 405.732 192.783C406.66 194.101 407.047 195.75 406.808 197.366C406.57 198.983 405.725 200.434 404.46 201.401C404.055 201.715 403.611 201.972 403.14 202.164C391.824 206.867 370.56 214.523 358.392 211.108C358.404 211.12 345.744 179.636 344.964 154.056Z" fill="white"/>
<path d="M404.196 270.186C416.076 302.533 424.956 323.598 424.956 323.598L417.312 327.725C417.312 327.725 399.768 308.25 383.832 274.301C379.994 266.152 376.561 257.802 373.548 249.284L393.456 231.772C396.234 244.806 399.821 257.637 404.196 270.186Z" fill="#E9B376"/>
<path opacity="0.2" d="M373.548 249.334L387.864 241.416C389.808 251.485 398.556 249.647 401.976 263.656C397.476 265.057 385.704 268.447 380.892 267.859C378.039 261.867 375.585 255.677 373.548 249.334Z" fill="black"/>
<path d="M412.908 322.647L423 319.219C423.162 319.154 423.343 319.158 423.503 319.23C423.662 319.303 423.788 319.438 423.852 319.607L426.948 327.775C427.081 328.21 427.045 328.682 426.848 329.089C426.65 329.496 426.307 329.806 425.892 329.952C422.352 331.09 420.6 331.403 416.16 332.916C412.247 334.42 408.237 335.637 404.16 336.556C400.236 337.207 399.744 333.141 401.352 332.478C405.144 330.965 409.596 326.587 411.48 323.647C411.833 323.154 412.337 322.801 412.908 322.647Z" fill="#263238"/>
<path d="M408.324 325.449C408.127 325.339 407.963 325.175 407.851 324.974C407.738 324.773 407.682 324.543 407.688 324.31C407.671 324.166 407.688 324.02 407.738 323.885C407.788 323.749 407.87 323.629 407.976 323.535C408.936 322.709 412.056 323.635 412.416 323.76C412.454 323.781 412.487 323.809 412.514 323.843C412.541 323.878 412.561 323.918 412.572 323.96C412.578 324.005 412.569 324.05 412.547 324.088C412.526 324.127 412.492 324.156 412.452 324.173C411.732 324.647 410.963 325.038 410.16 325.336C409.583 325.61 408.928 325.65 408.324 325.449ZM408.324 323.923C408.268 323.967 408.225 324.027 408.2 324.096C408.175 324.164 408.168 324.238 408.18 324.31C408.179 324.455 408.214 324.598 408.282 324.725C408.349 324.852 408.446 324.959 408.564 325.036C409.128 325.324 410.328 324.973 411.828 324.148C410.628 323.798 408.828 323.522 408.3 323.973L408.324 323.923Z" fill="#008695"/>
<path d="M412.296 324.248C411.228 323.998 409.272 322.484 409.164 321.396C409.141 321.201 409.183 321.003 409.283 320.837C409.384 320.67 409.537 320.545 409.716 320.483C409.872 320.409 410.042 320.37 410.214 320.37C410.386 320.37 410.556 320.409 410.712 320.483C411.912 321.096 412.536 323.898 412.572 323.973C412.572 324.05 412.547 324.125 412.5 324.185C412.485 324.194 412.469 324.199 412.452 324.199C412.435 324.199 412.419 324.194 412.404 324.185C412.377 324.22 412.338 324.242 412.296 324.248ZM409.896 320.896C409.848 320.903 409.801 320.921 409.76 320.948C409.718 320.975 409.683 321.011 409.655 321.054C409.628 321.096 409.61 321.144 409.602 321.195C409.594 321.245 409.596 321.297 409.608 321.346C410.096 322.42 410.952 323.263 412.008 323.71C411.78 322.822 411.204 321.308 410.484 320.958C410.406 320.918 410.319 320.898 410.232 320.898C410.145 320.898 410.059 320.918 409.98 320.958L409.896 320.896Z" fill="#008695"/>
<path d="M466.296 241.704L459.432 233.285C459.31 233.153 459.241 232.975 459.241 232.791C459.241 232.607 459.31 232.43 459.432 232.297L465.504 226.205C465.84 225.912 466.273 225.768 466.711 225.803C467.148 225.838 467.555 226.05 467.844 226.393C470.244 229.37 471.216 230.921 474.168 234.611C476.992 237.795 479.595 241.185 481.956 244.756C484.008 248.308 480.6 250.31 479.424 249.009C476.64 245.919 471.024 243.305 467.724 242.604C467.169 242.467 466.67 242.152 466.296 241.704Z" fill="#263238"/>
<path d="M470.496 245.019C470.473 245.249 470.389 245.468 470.253 245.651C470.117 245.834 469.936 245.975 469.728 246.057C469.608 246.13 469.471 246.169 469.332 246.169C469.193 246.169 469.056 246.13 468.936 246.057C467.808 245.444 467.496 242.079 467.46 241.691C467.461 241.65 467.472 241.609 467.491 241.572C467.509 241.535 467.536 241.503 467.568 241.479C467.604 241.454 467.645 241.441 467.688 241.441C467.731 241.441 467.773 241.454 467.808 241.479C468.503 241.993 469.139 242.589 469.704 243.255C469.943 243.479 470.135 243.75 470.271 244.053C470.408 244.356 470.484 244.684 470.496 245.019ZM469.176 245.644C469.234 245.68 469.3 245.7 469.368 245.7C469.436 245.7 469.502 245.68 469.56 245.644C469.692 245.592 469.808 245.505 469.897 245.39C469.986 245.276 470.043 245.139 470.064 244.994C470.064 244.343 469.344 243.317 467.988 242.204C468.168 243.543 468.588 245.319 469.188 245.656L469.176 245.644Z" fill="#008695"/>
<path d="M467.928 241.641C468.108 242.817 467.52 245.219 466.596 245.744C466.428 245.835 466.236 245.866 466.05 245.832C465.863 245.798 465.693 245.701 465.564 245.556C465.437 245.437 465.338 245.29 465.273 245.126C465.209 244.961 465.181 244.783 465.192 244.606C465.288 243.217 467.532 241.541 467.592 241.491C467.625 241.472 467.662 241.463 467.7 241.463C467.738 241.463 467.775 241.472 467.808 241.491C467.814 241.502 467.818 241.515 467.818 241.529C467.818 241.542 467.814 241.555 467.808 241.566C467.853 241.58 467.895 241.606 467.928 241.641ZM465.9 245.169C465.956 245.252 466.04 245.311 466.135 245.334C466.23 245.357 466.33 245.343 466.416 245.294C467.15 244.398 467.551 243.257 467.544 242.079C466.848 242.654 465.708 243.768 465.66 244.581C465.648 244.674 465.654 244.769 465.679 244.859C465.704 244.95 465.746 245.034 465.804 245.106L465.9 245.169Z" fill="#008695"/>
<path d="M371.088 149.015C371.088 149.015 364.764 156.608 358.332 157.508C353.316 158.196 353.532 153.668 353.532 153.668C354.025 152.897 354.406 152.054 354.66 151.167C356.412 145.3 350.664 141.047 350.664 141.047L355.812 138.258L367.068 132.128C363.96 143.386 371.088 149.015 371.088 149.015Z" fill="#E9B376"/>
<path opacity="0.2" d="M366.084 136.932C366.084 136.932 362.7 149.153 354.732 151.141C356.472 145.275 350.736 141.022 350.736 141.022L355.884 138.233L366.084 136.932Z" fill="black"/>
<path d="M373.716 117.231C375.048 127.963 371.616 140.909 363.516 144.299C348.612 150.554 341.976 148.69 337.92 137.094C334.224 126.675 334.548 108.938 346.728 103.058C358.908 97.1794 371.844 102.32 373.716 117.231Z" fill="#E9B376"/>
<path d="M351.108 125.211C351.324 126.575 350.796 127.8 349.98 127.938C349.164 128.076 348.264 127.087 348.048 125.724C347.832 124.361 348.36 123.222 349.176 123.022C349.992 122.822 350.892 123.835 351.108 125.211Z" fill="#263238"/>
<path d="M340.608 126.45C340.812 127.7 340.32 128.951 339.48 129.064C338.64 129.176 337.848 128.238 337.644 126.95C337.44 125.661 337.944 124.448 338.772 124.348C339.6 124.248 340.464 125.161 340.608 126.45Z" fill="#263238"/>
<path d="M346.284 119.032C346.178 118.97 346.093 118.873 346.044 118.757C346.016 118.681 346.002 118.601 346.004 118.52C346.006 118.439 346.024 118.359 346.057 118.285C346.089 118.212 346.136 118.146 346.193 118.091C346.251 118.037 346.319 117.995 346.392 117.969C347.27 117.606 348.219 117.471 349.157 117.575C350.096 117.68 350.996 118.021 351.78 118.569C351.842 118.618 351.894 118.679 351.933 118.75C351.971 118.82 351.997 118.897 352.007 118.977C352.017 119.057 352.011 119.139 351.991 119.217C351.971 119.295 351.936 119.368 351.888 119.432C351.791 119.559 351.652 119.642 351.498 119.665C351.344 119.688 351.188 119.65 351.06 119.557C350.428 119.134 349.706 118.878 348.958 118.811C348.21 118.743 347.457 118.866 346.764 119.17C346.593 119.191 346.421 119.141 346.284 119.032Z" fill="#263238"/>
<path d="M336.276 121.334C336.152 121.333 336.031 121.294 335.928 121.221C335.818 121.104 335.757 120.947 335.757 120.783C335.757 120.619 335.818 120.462 335.928 120.345C336.53 119.587 337.301 118.994 338.173 118.616C339.045 118.239 339.992 118.09 340.932 118.181C341.086 118.203 341.226 118.288 341.321 118.417C341.415 118.546 341.457 118.709 341.436 118.869C341.407 119.031 341.32 119.175 341.193 119.272C341.066 119.37 340.909 119.413 340.752 119.395C340.004 119.341 339.254 119.477 338.566 119.791C337.879 120.104 337.274 120.586 336.804 121.196C336.731 121.258 336.646 121.303 336.555 121.327C336.464 121.35 336.368 121.353 336.276 121.334Z" fill="#263238"/>
<path d="M342.9 127.688L345.144 133.204C343.825 133.794 342.366 133.96 340.956 133.68C341.948 131.822 342.606 129.792 342.9 127.688Z" fill="#D58745"/>
<path d="M363.516 126.087C363.516 126.087 365.04 119.045 368.652 120.458C372.264 121.871 373.56 132.967 368.748 133.855C363.936 134.743 361.968 130.09 363.516 126.087Z" fill="#E9B376"/>
<path d="M345.732 137.883C346.918 139.003 348.024 140.212 349.044 141.497L349.776 141.06C353.052 138.996 353.928 136.919 353.892 135.243C353.816 133.941 353.321 132.703 352.488 131.728C351.36 133.892 348.444 136.044 346.86 137.119C346.501 137.4 346.124 137.655 345.732 137.883Z" fill="#263238"/>
<path d="M346.8 137.17L347.808 138.22C350.892 136.281 352.812 134.468 353.22 132.904C353.015 132.475 352.753 132.079 352.44 131.728C351.36 133.942 348.444 136.094 346.8 137.17Z" fill="white"/>
<path d="M349.776 141.06C353.052 138.996 353.928 136.919 353.892 135.243C352.664 136.046 351.58 137.067 350.688 138.258C350.11 139.069 349.791 140.049 349.776 141.06Z" fill="#C15854"/>
<path d="M362.4 174.132C362.4 174.132 368.628 166.127 372.36 171.956C376.992 179.173 362.292 190.419 362.292 190.419C362.292 190.419 351.708 181.4 354.516 174.558C358.068 165.927 362.4 174.132 362.4 174.132Z" fill="white"/>
<path d="M355.632 206.392C352.164 215.461 353.856 246.294 360.732 266.721C360.732 266.721 369.828 269.66 395.304 262.143C416.28 255.964 428.844 247.408 428.844 247.408C421.416 231.384 408.72 193.521 405.696 192.37L355.632 206.392Z" fill="#008695"/>
<path opacity="0.2" d="M428.844 247.358C428.844 247.358 426.984 248.608 423.528 250.522C421.884 251.423 419.928 252.474 417.528 253.599C415.44 254.6 413.076 255.676 410.448 256.739C408.656 257.506 406.74 258.261 404.7 259.003C401.808 260.066 398.7 261.117 395.304 262.105C394.392 262.38 393.516 262.631 392.652 262.868C391.044 263.319 389.496 263.731 388.02 264.044C384.42 264.932 381.252 265.608 378.42 266.058C376.164 266.446 374.244 266.708 372.492 266.871C370.356 267.111 368.208 267.219 366.06 267.196C365.259 267.22 364.457 267.186 363.66 267.096C362.636 267.048 361.619 266.893 360.624 266.633C353.76 246.157 352.068 215.348 355.536 206.317L405.6 192.232C408.72 193.483 421.416 231.409 428.844 247.358Z" fill="black"/>
<path opacity="0.2" d="M359.904 235.562L366.12 267.246C365.319 267.27 364.517 267.236 363.72 267.146L359.904 235.562Z" fill="black"/>
<path opacity="0.2" d="M372.552 266.921L368.052 219.126L378.432 266.071C376.272 266.433 374.304 266.758 372.552 266.921Z" fill="black"/>
<path opacity="0.2" d="M388.032 264.132L379.44 215.898L392.64 262.918C391.056 263.319 389.508 263.731 388.032 264.132Z" fill="black"/>
<path opacity="0.2" d="M404.712 259.003L393.456 211.17L410.508 256.739C408.672 257.502 406.8 258.265 404.712 259.003Z" fill="black"/>
<path opacity="0.2" d="M423.528 250.522C421.884 251.423 419.928 252.474 417.528 253.599L404.184 208.156L423.528 250.522Z" fill="black"/>
<path opacity="0.2" d="M431.328 253.574C431.528 255.717 431.528 257.874 431.328 260.016C432.94 257.746 433.692 254.936 433.44 252.123L431.328 253.574Z" fill="black"/>
<path opacity="0.2" d="M344.676 171.968L345.3 162.274L346.584 170.042L344.676 171.968Z" fill="black"/>
<path d="M390 138.145C389.22 136.381 380.088 104.585 369.672 98.9057C364.032 95.2782 356.16 94.9279 348.6 96.7041C337.62 99.2059 334.908 108.15 341.4 111.714C341.508 112.265 353.868 114.892 358.368 122.309C363.168 130.24 359.16 133.867 361.968 139.696C364.776 145.525 366.012 146.476 366.012 146.476L386.412 140.659C386.412 140.659 390.828 140.096 390 138.145Z" fill="#263238"/>
<path d="M297.216 523.56L286.164 555.607L275.856 552.242L279.084 518.506L297.216 523.56Z" fill="#E9B376"/>
<path d="M287.808 565.051C287.568 567.39 287.4 569.004 287.4 569.004H278.076C277.156 568.476 276.136 568.169 275.088 568.103C273.984 568.253 270.144 569.029 270.144 569.029H245.376C245.546 568.044 245.787 567.074 246.096 566.127C246.395 565.193 246.798 564.298 247.296 563.462C247.88 562.357 248.731 561.429 249.764 560.771C250.798 560.113 251.978 559.747 253.188 559.71C256.656 559.472 267.588 551.854 267.588 551.854C268.744 551.392 269.75 550.595 270.487 549.559C271.225 548.522 271.663 547.288 271.752 546C271.824 544.362 274.152 542.348 275.268 542.173C277.524 541.822 278.796 543.323 279.12 545.675L279.516 548.414L284.736 547.564C284.736 547.564 290.052 544.749 289.8 547.464" fill="#263238"/>
<g opacity="0.2">
<path d="M245.376 569.141H270.144C270.144 569.141 273.984 568.366 275.088 568.215C276.136 568.281 277.156 568.589 278.076 569.116H287.4C287.4 569.116 287.568 567.502 287.808 565.163L246.096 566.314C245.79 567.237 245.549 568.182 245.376 569.141Z" fill="white"/>
</g>
<path d="M262.092 554.819C262.152 554.771 262.226 554.745 262.302 554.745C262.378 554.745 262.452 554.771 262.512 554.819C263.148 555.265 263.661 555.877 264 556.595C264.18 556.995 263.628 557.37 263.436 556.97C263.145 556.338 262.698 555.798 262.14 555.407C262.102 555.374 262.072 555.333 262.051 555.286C262.03 555.24 262.019 555.189 262.019 555.138C262.019 555.086 262.03 555.036 262.051 554.989C262.072 554.943 262.102 554.902 262.14 554.869L262.092 554.819Z" fill="#008695"/>
<path d="M264.06 553.605C264.121 553.558 264.194 553.532 264.27 553.532C264.346 553.532 264.42 553.558 264.48 553.605C265.116 554.052 265.629 554.664 265.968 555.382C266.148 555.769 265.596 556.157 265.404 555.757C265.117 555.122 264.669 554.582 264.108 554.193C264.064 554.166 264.027 554.128 263.999 554.083C263.972 554.038 263.954 553.987 263.949 553.934C263.943 553.88 263.949 553.827 263.966 553.776C263.983 553.726 264.011 553.68 264.048 553.643L264.06 553.605Z" fill="#008695"/>
<path d="M266.088 552.467C266.149 552.419 266.222 552.394 266.298 552.394C266.374 552.394 266.448 552.419 266.508 552.467C267.147 552.91 267.661 553.523 267.996 554.243C268.176 554.644 267.624 555.031 267.444 554.631C267.149 553.995 266.698 553.451 266.136 553.055C266.094 553.027 266.059 552.99 266.033 552.946C266.006 552.902 265.99 552.852 265.984 552.801C265.978 552.749 265.984 552.697 266 552.648C266.015 552.599 266.042 552.554 266.076 552.517L266.088 552.467Z" fill="#008695"/>
<path d="M368.484 520.007L373.356 554.694L384.216 555.156L387.42 521.633L368.484 520.007Z" fill="#E9B376"/>
<path d="M393.6 570.617L369.312 570.867C369.312 570.867 368.772 569.817 369.312 566.977C369.392 566.543 369.512 566.056 369.672 565.514C369.672 565.514 369.672 565.514 369.672 565.439C369.9 564.65 370.152 563.687 370.416 562.637C371.484 558.396 372.744 552.842 372.744 552.842C372.744 552.842 376.704 543.774 381.456 545.975C385.62 547.914 384.696 553.58 384.696 553.58C385.184 556.029 386.453 558.234 388.296 559.835C390.264 561.623 392.208 563.012 393.168 565.251C393.346 565.688 393.486 566.14 393.588 566.602C393.595 566.66 393.595 566.719 393.588 566.777C393.818 568.045 393.822 569.347 393.6 570.617Z" fill="#263238"/>
<g opacity="0.2">
<path d="M369.36 566.977C368.784 569.817 369.36 570.867 369.36 570.867L393.648 570.617C393.9 569.336 393.921 568.016 393.708 566.727L369.36 566.977Z" fill="white"/>
</g>
<path d="M383.784 555.006C383.146 554.483 382.344 554.226 381.534 554.286C380.724 554.347 379.964 554.719 379.404 555.332C379.068 555.682 378.564 555.156 378.888 554.819C379.583 554.068 380.523 553.615 381.523 553.551C382.522 553.486 383.509 553.813 384.288 554.469C384.66 554.769 384.144 555.294 383.784 555.006Z" fill="#008695"/>
<path d="M384.492 557.371C383.855 556.844 383.052 556.586 382.241 556.646C381.431 556.706 380.671 557.081 380.112 557.696C379.776 558.034 379.272 557.508 379.596 557.17C380.292 556.419 381.233 555.967 382.233 555.904C383.233 555.842 384.219 556.173 384.996 556.833C385.368 557.12 384.852 557.658 384.492 557.371Z" fill="#008695"/>
<path d="M385.2 559.535C384.563 559.008 383.76 558.75 382.949 558.81C382.139 558.87 381.379 559.245 380.82 559.86C380.787 559.895 380.748 559.923 380.704 559.943C380.66 559.962 380.614 559.972 380.566 559.973C380.471 559.974 380.378 559.936 380.31 559.866C380.242 559.796 380.203 559.701 380.201 559.602C380.2 559.502 380.237 559.406 380.304 559.334C381.001 558.585 381.942 558.135 382.941 558.073C383.941 558.01 384.926 558.34 385.704 558.997C386.076 559.297 385.56 559.822 385.2 559.535Z" fill="#008695"/>
<path d="M392.664 300.594L341.796 301.557L309.864 300.882C309.864 300.882 288.396 401.851 286.668 420.839C284.94 439.827 269.544 539.896 269.544 539.896L294.42 545.375C294.42 545.375 321.636 438.276 323.568 427.982C325.26 419.025 344.328 361.473 349.2 346.838C349.728 349.815 350.28 352.805 350.832 355.782C352.224 369.216 356.688 412.071 358.608 427.982C358.608 427.982 363.312 519.069 368.028 545.487L391.38 545.287C394.116 507.686 394.848 375.708 394.848 375.708C396.3 346.976 392.664 300.594 392.664 300.594Z" fill="#263238"/>
<g opacity="0.5">
<path d="M323.1 315.805C321.643 320.869 319.013 325.481 315.44 329.233C311.867 332.986 307.463 335.763 302.616 337.32C302.1 337.482 302.328 338.345 302.856 338.17C307.843 336.572 312.375 333.717 316.05 329.857C319.726 325.997 322.432 321.252 323.928 316.042C323.945 315.933 323.922 315.821 323.865 315.727C323.807 315.634 323.719 315.566 323.616 315.537C323.514 315.507 323.404 315.519 323.309 315.568C323.214 315.617 323.139 315.702 323.1 315.805Z" fill="black"/>
<path d="M349.74 315.529C349.252 324.436 348.764 333.338 348.276 342.235C348.276 342.811 347.4 342.823 347.424 342.235C347.68 337.666 347.928 333.079 348.168 328.476C346.08 330.19 343.596 328.163 342.888 325.912C341.688 322.247 342.12 317.881 342.96 314.204C343 314.103 343.073 314.021 343.167 313.973C343.26 313.925 343.367 313.913 343.468 313.941C343.569 313.968 343.657 314.033 343.716 314.122C343.774 314.212 343.8 314.321 343.788 314.429C343.186 317.005 342.975 319.664 343.164 322.309C343.18 323.727 343.47 325.126 344.016 326.424C344.7 327.8 346.416 328.926 347.772 327.675C347.832 327.62 347.905 327.584 347.984 327.571C348.062 327.557 348.143 327.568 348.216 327.6C348.444 323.572 348.672 319.52 348.888 315.492C348.912 314.967 349.764 314.967 349.74 315.529Z" fill="black"/>
<path d="M374.844 316.793C374.863 322.471 376.94 327.932 380.659 332.082C384.377 336.232 389.462 338.764 394.896 339.171C395.436 339.171 395.424 338.333 394.896 338.295C389.679 337.903 384.799 335.466 381.237 331.474C377.674 327.482 375.695 322.232 375.696 316.78C375.696 316.664 375.652 316.553 375.573 316.471C375.494 316.389 375.387 316.343 375.276 316.343C375.165 316.343 375.058 316.389 374.979 316.471C374.9 316.553 374.856 316.664 374.856 316.78L374.844 316.793Z" fill="black"/>
</g>
<path d="M290.628 177.81C280.572 183.964 273.048 221.24 273.048 221.24L301.2 230.821L310.968 209.469L290.628 177.81Z" fill="#008695"/>
<path opacity="0.2" d="M297.324 208.331L295.716 229.095L288.648 226.593C291.504 218.638 290.088 189.28 290.088 189.28C290.088 189.28 294.732 203.065 297.324 208.331Z" fill="black"/>
<path d="M296.196 175.12C303.396 172.969 327.324 164.276 358.404 163.613L372.72 195.384L388.164 273.738C388.164 273.738 391.2 282.719 393.744 299.844C365.304 319.582 326.364 319.157 303.744 310.864C302.856 300.757 304.368 302.721 302.256 283.245C298.536 248.946 291.456 209.582 290.256 178.173C290.4 177.435 295.476 175.358 296.196 175.12Z" fill="#008695"/>
<path d="M339.516 164.326C333.936 154.556 325.44 146.814 325.548 132.329L308.28 159.347C309.105 160.266 309.867 161.244 310.56 162.274C311.866 164.107 312.693 166.262 312.96 168.528C313.128 170.405 309.924 174.495 309.924 174.495C309.924 174.495 318.084 179.048 331.848 174.22C340.044 171.368 339.516 164.326 339.516 164.326Z" fill="#E9B376"/>
<path opacity="0.2" d="M322.368 145.187C326.976 155.957 317.88 164.913 312.984 168.491C312.707 166.246 311.88 164.114 310.584 162.299L322.368 145.187Z" fill="black"/>
<path d="M325.008 125.249C325.968 139.634 326.784 147.764 320.76 155.945C311.712 168.291 294.36 164.176 289.296 150.328C284.736 137.82 283.944 116.418 296.676 109.05C299.497 107.416 302.67 106.554 305.897 106.544C309.125 106.535 312.302 107.379 315.132 108.997C317.962 110.615 320.352 112.954 322.079 115.796C323.806 118.638 324.814 121.89 325.008 125.249Z" fill="#E9B376"/>
<path d="M320.892 104.822C315 96.6915 302.796 102.733 298.02 107.474C297.3 108.174 309.24 112.477 308.532 112.352L312.132 115.905C312.636 115.717 313.332 120.683 314.004 124.998C314.568 128.95 316.157 132.665 318.6 135.743C320.976 138.782 323.646 141.556 326.568 144.024C331.044 140.934 330.228 132.216 331.092 126.85C332.4 118.832 333.108 103.746 320.892 104.822Z" fill="#263238"/>
<path d="M331.92 136.406C331.611 138.168 330.97 139.849 330.035 141.351C329.1 142.854 327.889 144.149 326.472 145.162C322.644 147.839 320.532 143.386 320.364 138.833C320.196 134.743 320.712 129.652 325.164 128.826C329.616 128 332.64 132.028 331.92 136.406Z" fill="#E9B376"/>
<path d="M309.516 131.553C309.708 133.016 309.108 134.292 308.184 134.417C307.26 134.542 306.372 133.442 306.192 131.978C306.012 130.515 306.6 129.239 307.524 129.126C308.448 129.014 309.336 130.089 309.516 131.553Z" fill="#263238"/>
<path d="M293.676 134.03C293.856 135.493 293.268 136.769 292.344 136.882C291.42 136.994 290.532 135.906 290.352 134.455C290.172 133.004 290.76 131.716 291.684 131.591C292.608 131.465 293.496 132.591 293.676 134.03Z" fill="#263238"/>
<path d="M296.592 132.791C296.592 132.791 293.064 140.659 292.008 143.811C294.192 145.375 297.444 144.074 297.444 144.074L296.592 132.791Z" fill="#D58745"/>
<path d="M308.484 124.686C308.383 124.75 308.266 124.784 308.148 124.784C308.03 124.784 307.913 124.75 307.812 124.686C307.102 124.224 306.299 123.941 305.466 123.859C304.633 123.776 303.793 123.897 303.012 124.21C302.934 124.251 302.849 124.275 302.762 124.281C302.675 124.288 302.588 124.276 302.506 124.247C302.423 124.218 302.347 124.172 302.281 124.112C302.216 124.052 302.162 123.979 302.124 123.898C302.085 123.817 302.062 123.73 302.056 123.64C302.051 123.55 302.062 123.46 302.09 123.375C302.118 123.29 302.162 123.212 302.219 123.145C302.277 123.078 302.346 123.023 302.424 122.985C303.392 122.569 304.441 122.4 305.485 122.491C306.528 122.582 307.536 122.932 308.424 123.51C308.5 123.554 308.567 123.614 308.62 123.685C308.673 123.756 308.712 123.838 308.735 123.926C308.757 124.013 308.762 124.105 308.75 124.194C308.738 124.284 308.709 124.37 308.664 124.448C308.623 124.541 308.561 124.622 308.484 124.686Z" fill="#263238"/>
<path opacity="0.2" d="M322.584 138.333C322.505 138.333 322.428 138.3 322.372 138.241C322.316 138.182 322.284 138.103 322.284 138.02C322.256 136.709 322.563 135.414 323.172 134.267C323.656 133.269 324.458 132.478 325.44 132.028C325.956 131.8 326.526 131.739 327.076 131.853C327.626 131.966 328.131 132.25 328.524 132.666C328.579 132.725 328.61 132.803 328.61 132.885C328.61 132.967 328.579 133.046 328.524 133.104C328.496 133.134 328.463 133.158 328.425 133.175C328.388 133.191 328.348 133.2 328.308 133.2C328.268 133.2 328.228 133.191 328.191 133.175C328.154 133.158 328.12 133.134 328.092 133.104C327.78 132.789 327.387 132.576 326.96 132.491C326.534 132.407 326.093 132.455 325.692 132.629C324.842 133.032 324.148 133.725 323.724 134.593C323.174 135.642 322.897 136.824 322.92 138.02C322.92 138.104 322.889 138.185 322.833 138.246C322.777 138.306 322.701 138.342 322.62 138.345L322.584 138.333Z" fill="black"/>
<path d="M285.372 128.839C285.244 128.826 285.123 128.774 285.024 128.689C284.885 128.575 284.795 128.409 284.772 128.226C284.75 128.044 284.797 127.859 284.904 127.713C285.53 126.84 286.349 126.138 287.292 125.666C288.234 125.193 289.271 124.964 290.316 124.998C290.403 125.006 290.487 125.031 290.565 125.072C290.642 125.114 290.711 125.171 290.767 125.24C290.823 125.309 290.866 125.389 290.893 125.475C290.919 125.561 290.929 125.652 290.922 125.743C290.915 125.833 290.891 125.921 290.851 126.002C290.811 126.082 290.757 126.154 290.691 126.213C290.624 126.271 290.548 126.316 290.465 126.344C290.382 126.371 290.295 126.382 290.208 126.374C289.379 126.347 288.556 126.533 287.813 126.917C287.069 127.301 286.429 127.871 285.948 128.576C285.879 128.665 285.791 128.735 285.691 128.78C285.591 128.826 285.481 128.846 285.372 128.839Z" fill="#263238"/>
<path d="M320.892 104.822C318.239 101.364 314.734 98.7222 310.752 97.18C306.769 95.6377 302.46 95.2527 298.284 96.0661C286.392 98.2176 279.756 106.786 279.084 115.329C278.778 118.198 279.165 121.101 280.212 123.773C280.345 124.104 280.572 124.386 280.862 124.58C281.153 124.773 281.493 124.87 281.838 124.856C282.182 124.843 282.515 124.719 282.79 124.503C283.066 124.287 283.272 123.989 283.38 123.648C283.536 123.22 283.717 122.802 283.92 122.397C283.959 122.499 284.003 122.599 284.052 122.697C284.223 123.031 284.49 123.301 284.817 123.466C285.144 123.632 285.512 123.685 285.87 123.618C286.228 123.552 286.556 123.368 286.807 123.095C287.058 122.821 287.22 122.472 287.268 122.096C287.308 121.547 287.397 121.003 287.532 120.47C287.698 120.772 287.945 121.015 288.244 121.17C288.542 121.325 288.877 121.385 289.208 121.342C289.538 121.3 289.849 121.156 290.102 120.93C290.355 120.703 290.538 120.404 290.628 120.07C291.165 118.368 292.039 116.802 293.193 115.475C294.348 114.148 295.757 113.088 297.33 112.365C298.903 111.642 300.604 111.272 302.323 111.278C304.042 111.285 305.74 111.668 307.308 112.402L312.204 115.855C318.192 112.728 320.892 104.822 320.892 104.822Z" fill="#263238"/>
<path d="M303.6 148.302C305.264 149.16 306.868 150.138 308.4 151.229C308.616 150.979 308.856 150.741 309.072 150.479C312.108 147.064 312.444 144.437 311.88 142.561C311.582 141.646 311.085 140.815 310.428 140.134C310.074 139.748 309.67 139.416 309.228 139.146C308.652 141.96 306.072 145.4 304.608 147.126C303.924 147.852 303.6 148.302 303.6 148.302Z" fill="#263238"/>
<path d="M304.536 147.126L305.988 147.939C308.832 144.725 310.44 142.073 310.392 140.134C310.038 139.748 309.634 139.415 309.192 139.146C308.592 141.985 306 145.363 304.536 147.126Z" fill="white"/>
<path d="M309.036 150.478C312.084 147.064 312.42 144.437 311.844 142.561C310.712 143.877 309.814 145.394 309.192 147.039C308.799 148.141 308.744 149.343 309.036 150.478Z" fill="#C15854"/>
<path d="M307.8 173.094L312.276 165.564L322.68 173.394L334.464 156.082L343.596 164.776L331.68 183.989L318.156 182.826L307.8 173.094Z" fill="#008695"/>
<path d="M422.916 191.782C417.816 185.527 383.712 175.27 376.5 172.531L366.12 194.959L375.108 197.148L410.46 206.654L418.488 218.25C420.583 215.709 422.399 212.932 423.9 209.969C426.648 204.778 425.316 194.709 422.916 191.782Z" fill="#E9B376"/>
<path opacity="0.2" d="M394.644 177.947L389.136 200.938L377.46 198.036L381.516 173.87C381.516 173.87 387.6 175.921 394.644 177.947Z" fill="black"/>
<path d="M349.044 167.615C346.968 174.758 347.952 187.629 358.416 193.395C365.856 197.511 383.196 203.277 383.196 203.277L395.784 174.107C395.784 174.107 352.5 155.72 349.044 167.615Z" fill="#008695"/>
<path opacity="0.3" d="M373.596 199.875L362.616 194.446L374.904 206.467L373.596 199.875Z" fill="black"/>
<g opacity="0.2">
<path d="M351.504 295.578C357.984 294.052 363.336 286.922 366.12 280.643C368.447 274.956 370.482 269.144 372.216 263.231L360.792 278.592C358.58 281.846 355.975 284.789 353.04 287.348C348.828 290.7 343.62 292.351 338.484 293.689C331.832 295.408 325.077 296.662 318.264 297.442C329.367 298.743 340.599 298.114 351.504 295.578Z" fill="black"/>
</g>
<path d="M335.556 179.824C335.556 179.824 333.6 176.434 331.068 175.658C328.536 174.883 326.556 173.419 324.66 172.994C322.764 172.569 323.376 174.958 324.576 176.084C325.776 177.209 328.416 178.585 327.732 179.536C327.048 180.487 318.516 182.788 317.712 184.189C316.908 185.59 318.432 185.778 318.432 185.778C318.432 185.778 316.524 186.328 316.488 187.579C316.452 188.83 317.784 188.98 317.784 188.98C317.784 188.98 316.524 189.405 317.004 190.556C317.484 191.707 325.404 190.556 325.812 190.744C325.812 190.744 320.868 190.619 320.604 192.107C320.34 193.596 323.088 193.846 325.308 194.121C327.633 194.286 329.952 193.71 331.956 192.47C334.356 191.044 337.956 189.868 337.752 186.541C337.46 184.171 336.713 181.886 335.556 179.824Z" fill="#E9B376"/>
<path d="M374.136 151.154C368.724 156.157 360.396 171.168 356.676 172.118C352.956 173.069 336 180.737 336 180.737L336.768 189.993C336.768 189.993 359.1 188.042 364.476 184.99C369.852 181.938 383.28 170.505 385.956 165.214C391.044 155.107 378.948 146.276 374.136 151.154Z" fill="#008695"/>
<g opacity="0.3">
<path d="M374.136 151.154C368.724 156.157 360.396 171.168 356.676 172.118C352.956 173.069 336 180.737 336 180.737L336.768 189.993C336.768 189.993 359.1 188.042 364.476 184.99C369.852 181.938 383.28 170.505 385.956 165.214C391.044 155.107 378.948 146.276 374.136 151.154Z" fill="white"/>
</g>
</svg>
