<svg width="128" height="116" viewBox="0 0 128 116" fill="none" xmlns="http://www.w3.org/2000/svg">
<path d="M75.1722 49.4192H85.6387C87.0862 49.4192 88.2637 48.2297 88.2637 46.7676V36.1951C88.2637 34.733 87.0862 33.5435 85.6387 33.5435H75.1722C73.7247 33.5435 72.5472 34.733 72.5472 36.1951V46.7676C72.5472 48.2297 73.7247 49.4192 75.1722 49.4192ZM76.2972 37.3315H84.5137V45.6312H76.2972V37.3315Z" fill="white"/>
<path d="M95.6625 67.6913C94.6267 67.6913 93.7875 68.5393 93.7875 69.5853V83.3351C93.7875 84.3811 94.6267 85.2291 95.6625 85.2291H105.984C107.019 85.2291 107.859 84.3811 107.859 83.3351C107.859 82.2891 107.019 81.4411 105.984 81.4411H97.5375V69.5853C97.5375 68.5393 96.6982 67.6913 95.6625 67.6913Z" fill="white"/>
<path d="M119.6 61.3964C114.605 55.8424 107.938 52.2171 100.679 51.0691V10.2149C100.679 7.08173 98.1554 4.53293 95.0539 4.53293H88.2637V1.89398C88.2637 0.847999 87.4244 0 86.3887 0C85.3529 0 84.5137 0.847999 84.5137 1.89398V4.53293H32.5C31.4642 4.53293 30.625 5.38093 30.625 6.42691C30.625 7.4729 31.4642 8.3209 32.5 8.3209H84.5139V12.4707C84.5139 13.5167 85.3532 14.3647 86.3889 14.3647C87.4247 14.3647 88.2639 13.5167 88.2639 12.4707V8.3209H95.0542C96.0881 8.3209 96.9292 9.17041 96.9292 10.2149V22.6644H3.75V10.2149C3.75 9.17041 4.591 8.3209 5.62499 8.3209H12.4152V12.4707C12.4152 13.5167 13.2545 14.3647 14.2902 14.3647C15.326 14.3647 16.1652 13.5167 16.1652 12.4707V8.3209H23.75C24.7857 8.3209 25.625 7.4729 25.625 6.42691C25.625 5.38093 24.7857 4.53293 23.75 4.53293H16.1652V1.89398C16.1652 0.847999 15.326 0 14.2902 0C13.2545 0 12.4152 0.847999 12.4152 1.89398V4.53293H5.62499C2.5235 4.53293 0 7.08198 0 10.2149V97.2255C0 100.359 2.5235 102.907 5.62499 102.907H14.5C15.5357 102.907 16.375 102.059 16.375 101.013C16.375 99.9674 15.5357 99.1194 14.5 99.1194H5.62499C4.591 99.1194 3.75 98.2699 3.75 97.2255V26.4526H96.9292V58.9612C96.5096 58.9392 96.0877 58.9279 95.6629 58.9279C93.0967 58.9279 90.6082 59.341 88.2639 60.1059V57.0465C88.2639 55.5844 87.0864 54.3949 85.6389 54.3949H75.1724C73.7249 54.3949 72.5474 55.5844 72.5474 57.0465V67.619C72.5474 69.0811 73.7249 70.2705 75.1724 70.2705H75.2589C73.6904 72.761 72.5482 75.5656 71.9577 78.594C71.7574 79.6203 72.4189 80.616 73.4349 80.8183C74.4512 81.0216 75.4369 80.3523 75.6369 79.3261C77.5137 69.7016 85.9357 62.7158 95.6629 62.7158C106.918 62.7158 116.076 71.9655 116.076 83.3352C116.076 94.7049 106.918 103.955 95.6629 103.955C85.9752 103.955 77.5597 97.003 75.6522 87.4252C75.4479 86.3997 74.4594 85.7353 73.4442 85.9419C72.4289 86.1482 71.7717 87.1467 71.9759 88.1722C72.8024 92.3226 74.6642 96.0532 77.2504 99.1197H23.25C22.2142 99.1197 21.375 99.9677 21.375 101.014C21.375 102.06 22.2142 102.908 23.25 102.908H69.7944C75.9017 111.124 85.4984 116 95.6629 116C113.493 116 128 101.347 128 83.3355C128 75.2113 125.017 67.42 119.6 61.3964ZM84.5139 61.6918C82.1617 62.9315 80.0277 64.5532 78.1984 66.4826H76.2974V58.1829H84.5139V61.6918ZM95.6629 112.211C87.6614 112.211 80.0584 108.789 74.6752 102.907H81.2544C85.3147 105.957 90.3249 107.742 95.6626 107.742C108.986 107.742 119.825 96.7931 119.825 83.3347C119.825 71.6135 111.603 61.7969 100.679 59.4579V54.9096C106.868 56.0215 112.54 59.1799 116.824 63.9431C121.613 69.2685 124.25 76.1553 124.25 83.335C124.25 99.2576 111.426 112.211 95.6629 112.211Z" fill="white"/>
<path d="M23.4644 15.8526C23.4644 16.8986 24.3036 17.7466 25.3394 17.7466H75.3393C76.3751 17.7466 77.2143 16.8986 77.2143 15.8526C77.2143 14.8066 76.3751 13.9586 75.3393 13.9586H25.3394C24.3039 13.9586 23.4644 14.8063 23.4644 15.8526Z" fill="white"/>
<path d="M27.5171 75.833C26.6253 75.3009 25.4758 75.5997 24.9491 76.5002L19.4306 85.9353L15.7388 81.3983C15.0813 80.5899 13.8996 80.4733 13.0998 81.1377C12.2998 81.8018 12.1843 82.9953 12.8418 83.8034L18.2338 90.4303C18.5916 90.87 19.1241 91.1218 19.6821 91.1218C19.7301 91.1218 19.7786 91.12 19.8268 91.1162C20.4366 91.0687 20.9856 90.7233 21.2966 90.1912L28.1773 78.427C28.7043 77.5265 28.4086 76.3651 27.5171 75.833Z" fill="white"/>
<path d="M15.0403 49.4192H25.5068C26.9543 49.4192 28.1318 48.2297 28.1318 46.7676V36.1951C28.1318 34.733 26.9543 33.5435 25.5068 33.5435H15.0403C13.5928 33.5435 12.4153 34.733 12.4153 36.1951V46.7676C12.4153 48.2297 13.5928 49.4192 15.0403 49.4192ZM16.1653 37.3315H24.3818V45.6312H16.1653V37.3315Z" fill="white"/>
<path d="M35.0841 49.4192H45.5506C46.9981 49.4192 48.1756 48.2297 48.1756 46.7676V36.1951C48.1756 34.733 46.9981 33.5435 45.5506 33.5435H35.0841C33.6366 33.5435 32.4591 34.733 32.4591 36.1951V46.7676C32.4591 48.2297 33.6366 49.4192 35.0841 49.4192ZM36.2091 37.3315H44.4256V45.6312H36.2091V37.3315Z" fill="white"/>
<path d="M55.1284 49.4192H65.5951C67.0426 49.4192 68.2201 48.2297 68.2201 46.7676V36.1951C68.2201 34.733 67.0426 33.5435 65.5951 33.5435H55.1284C53.6809 33.5435 52.5034 34.733 52.5034 36.1951V46.7676C52.5034 48.2297 53.6809 49.4192 55.1284 49.4192ZM56.2534 37.3315H64.4701V45.6312H56.2534V37.3315Z" fill="white"/>
<path d="M12.4153 67.619C12.4153 69.0812 13.5928 70.2706 15.0403 70.2706H25.5068C26.9543 70.2706 28.1318 69.0812 28.1318 67.619V57.0465C28.1318 55.5844 26.9543 54.395 25.5068 54.395H15.0403C13.5928 54.395 12.4153 55.5844 12.4153 57.0465V67.619ZM16.1653 58.1829H24.3818V66.4826H16.1653V58.1829Z" fill="white"/>
<path d="M32.4591 67.619C32.4591 69.0812 33.6366 70.2706 35.0841 70.2706H45.5506C46.9981 70.2706 48.1756 69.0812 48.1756 67.619V57.0465C48.1756 55.5844 46.9981 54.395 45.5506 54.395H35.0841C33.6366 54.395 32.4591 55.5844 32.4591 57.0465V67.619ZM36.2091 58.1829H44.4256V66.4826H36.2091V58.1829Z" fill="white"/>
<path d="M52.5034 67.619C52.5034 69.0812 53.6809 70.2706 55.1284 70.2706H65.5951C67.0426 70.2706 68.2201 69.0812 68.2201 67.619V57.0465C68.2201 55.5844 67.0426 54.395 65.5951 54.395H55.1284C53.6809 54.395 52.5034 55.5844 52.5034 57.0465V67.619ZM56.2534 58.1829H64.4701V66.4826H56.2534V58.1829Z" fill="white"/>
<path d="M32.4591 88.4701C32.4591 89.9322 33.6366 91.1216 35.0841 91.1216H45.5506C46.9981 91.1216 48.1756 89.9322 48.1756 88.4701V77.8976C48.1756 76.4354 46.9981 75.246 45.5506 75.246H35.0841C33.6366 75.246 32.4591 76.4354 32.4591 77.8976V88.4701ZM36.2091 79.034H44.4256V87.3337H36.2091V79.034Z" fill="white"/>
<path d="M52.5034 88.4701C52.5034 89.9322 53.6809 91.1216 55.1284 91.1216H65.5951C67.0426 91.1216 68.2201 89.9322 68.2201 88.4701V77.8976C68.2201 76.4354 67.0426 75.246 65.5951 75.246H55.1284C53.6809 75.246 52.5034 76.4354 52.5034 77.8976V88.4701ZM56.2534 79.034H64.4701V87.3337H56.2534V79.034Z" fill="white"/>
</svg>
