<svg width="128" height="116" viewBox="0 0 128 116" fill="none" xmlns="http://www.w3.org/2000/svg">
<path d="M85.2427 49.243C85.5426 49.4761 85.9017 49.6211 86.2795 49.6614C86.6572 49.7018 87.0388 49.6359 87.3812 49.4714C87.7236 49.3068 88.0133 49.0499 88.2178 48.7297C88.4223 48.4095 88.5334 48.0386 88.5387 47.6588V38.7211H93.8209C95.3278 38.7195 96.7726 38.1202 97.8383 37.0547C98.9039 35.9892 99.5035 34.5446 99.5053 33.0376V7.44873C99.5036 5.94164 98.9042 4.49675 97.8385 3.43108C96.7729 2.3654 95.328 1.76597 93.8209 1.76428H57.2663C55.7592 1.76597 54.3143 2.3654 53.2487 3.43108C52.183 4.49675 51.5835 5.94164 51.5819 7.44873V20.2343H33.6052C32.2502 20.2357 30.9511 20.7746 29.993 21.7328C29.0348 22.6909 28.4959 23.99 28.4945 25.345V46.8862C28.4959 48.2412 29.0348 49.5403 29.993 50.4984C30.9511 51.4566 32.2502 51.9955 33.6052 51.9969H37.7294V59.2031C37.7346 59.583 37.8457 59.9539 38.0502 60.2741C38.2547 60.5944 38.5444 60.8512 38.8868 61.0158C39.2293 61.1804 39.6109 61.2461 39.9886 61.2057C40.3664 61.1653 40.7254 61.0203 41.0253 60.7871L52.0128 51.997H64.3813C65.7363 51.9956 67.0354 51.4566 67.9935 50.4985C68.9517 49.5404 69.4906 48.2413 69.492 46.8862V38.7211H72.0905L85.2427 49.243ZM65.4343 46.8862C65.4358 47.0249 65.4096 47.1624 65.3572 47.2909C65.3048 47.4193 65.2273 47.5359 65.1292 47.634C65.0312 47.7321 64.9145 47.8096 64.7861 47.862C64.6576 47.9144 64.52 47.9406 64.3814 47.9392H51.3015C50.8409 47.939 50.3939 48.0959 50.0345 48.384L41.7872 54.9819V49.9681C41.7871 49.43 41.5734 48.914 41.1929 48.5335C40.8124 48.153 40.2964 47.9393 39.7583 47.9392H33.6052C33.4665 47.9407 33.329 47.9145 33.2005 47.8621C33.0721 47.8097 32.9554 47.7322 32.8574 47.6341C32.7593 47.536 32.6818 47.4194 32.6294 47.2909C32.577 47.1625 32.5508 47.0249 32.5522 46.8862V25.3451C32.5508 25.2064 32.577 25.0688 32.6294 24.9404C32.6818 24.812 32.7593 24.6953 32.8574 24.5972C32.9554 24.4992 33.0721 24.4217 33.2005 24.3693C33.329 24.3169 33.4665 24.2906 33.6052 24.2921H51.5819V33.0377C51.5837 34.5446 52.1833 35.9893 53.2489 37.0548C54.3146 38.1203 55.7594 38.7195 57.2663 38.7212H65.4343V46.8862ZM57.2663 34.6633C56.8352 34.6629 56.4218 34.4915 56.1169 34.1868C55.8119 33.882 55.6403 33.4688 55.6396 33.0376V7.44873C55.6403 7.0175 55.8118 6.60411 56.1168 6.29919C56.4217 5.99426 56.8351 5.82268 57.2663 5.82205H93.8209C94.2521 5.82267 94.6655 5.99425 94.9704 6.29918C95.2754 6.60411 95.4469 7.0175 95.4476 7.44873V33.0376C95.4469 33.4688 95.2753 33.882 94.9703 34.1868C94.6654 34.4915 94.252 34.6629 93.8209 34.6633H86.5098C85.9717 34.6633 85.4557 34.8771 85.0752 35.2576C84.6947 35.6381 84.4809 36.1541 84.4809 36.6922V43.4376L74.069 35.1081C73.7095 34.8201 73.2626 34.6631 72.8019 34.6633H57.2663Z" fill="white"/>
<path d="M34.6719 88.1345C21.5764 87.7224 21.5745 68.7262 34.6721 68.3133C36.5134 68.336 38.3123 68.8682 39.8697 69.8507C41.4271 70.8332 42.682 72.2277 43.4954 73.8797C44.3088 75.5316 44.649 77.3766 44.4782 79.21C44.3073 81.0435 43.6322 82.7938 42.5276 84.2671C42.2114 84.6942 42.0754 85.2283 42.1487 85.7546C42.2221 86.2809 42.499 86.7575 42.92 87.0818C43.3409 87.4062 43.8723 87.5524 44.4 87.4892C44.9276 87.4259 45.4094 87.1582 45.7417 86.7435C47.4457 84.5386 48.4517 81.8748 48.6308 79.094C48.8098 76.3132 48.1537 73.5423 46.7465 71.1371C45.3394 68.7319 43.2456 66.8022 40.7338 65.5956C38.222 64.389 35.4069 63.9607 32.6499 64.3656C29.8929 64.7705 27.3198 65.9902 25.261 67.868C23.2022 69.7458 21.7516 72.1962 21.0955 74.9044C20.4394 77.6126 20.6076 80.4551 21.5787 83.067C22.5497 85.6789 24.2793 87.941 26.5452 89.5628C23.1456 90.7779 20.0633 92.7427 17.5267 95.3116C14.9901 97.8805 13.0645 100.988 11.8926 104.402C11.5352 105.533 11.4488 106.732 11.6406 107.902C11.8323 109.072 12.2967 110.18 12.9962 111.138C13.6958 112.095 14.6108 112.874 15.6673 113.412C16.7239 113.951 17.8922 114.233 19.0779 114.235L50.2659 114.236C51.4769 114.233 52.6699 113.943 53.7463 113.388C54.8227 112.833 55.7514 112.03 56.4556 111.045C57.1442 110.099 57.5943 109.002 57.7677 107.845C57.941 106.689 57.8324 105.508 57.4512 104.402C55.824 99.6544 52.7535 95.5339 48.6691 92.6171C44.5847 89.7003 39.6908 88.133 34.6719 88.1345ZM53.1547 108.685C52.8263 109.145 52.393 109.521 51.8907 109.78C51.3883 110.04 50.8314 110.176 50.2659 110.178H19.0778C18.5123 110.176 17.9554 110.04 17.4531 109.78C16.9507 109.521 16.5174 109.145 16.189 108.685C15.8794 108.263 15.6762 107.773 15.5967 107.256C15.5171 106.739 15.5637 106.211 15.7323 105.716C17.0868 101.769 19.6402 98.3448 23.0358 95.9202C26.4313 93.4956 30.4995 92.1923 34.6718 92.1923C38.8442 92.1923 42.9123 93.4956 46.3079 95.9202C49.7035 98.3448 52.2569 101.769 53.6114 105.716C53.78 106.211 53.8265 106.739 53.747 107.256C53.6675 107.773 53.4643 108.263 53.1547 108.685Z" fill="white"/>
<path d="M116.107 104.383C114.935 100.968 113.01 97.8614 110.473 95.2925C107.936 92.7236 104.854 90.7588 101.454 89.5437C112.367 81.8626 106.853 64.2013 93.3274 64.2366C89.6241 64.2407 86.0736 65.7137 83.455 68.3323C80.8364 70.951 79.3634 74.5015 79.3594 78.2048C79.2375 80.8088 81.3361 89.3461 85.1031 87.0934C85.3142 86.9308 85.4912 86.7282 85.624 86.4972C85.7568 86.2662 85.8427 86.0113 85.877 85.747C85.9112 85.4828 85.893 85.2144 85.8235 84.9572C85.754 84.6999 85.6345 84.4589 85.4718 84.2479C84.107 82.4741 83.3827 80.2907 83.4167 78.0529C83.4507 75.8151 84.2411 73.6546 85.6592 71.9232C87.0773 70.1917 89.0396 68.9911 91.2269 68.5168C93.4141 68.0425 95.6975 68.3224 97.7054 69.3109C99.7133 70.2994 101.328 71.9384 102.286 73.9611C103.243 75.9838 103.489 78.2712 102.981 80.4509C102.474 82.6307 101.244 84.5746 99.4908 85.9663C97.738 87.3579 95.5658 88.1154 93.3278 88.1155C88.3088 88.114 83.4149 89.6813 79.3306 92.5981C75.2462 95.5149 72.1757 99.6353 70.5484 104.383C70.191 105.514 70.1047 106.713 70.2964 107.883C70.4881 109.053 70.9525 110.161 71.6521 111.119C72.3517 112.076 73.2667 112.855 74.3233 113.393C75.3798 113.932 76.5482 114.213 77.7339 114.216L108.922 114.217C110.108 114.214 111.276 113.932 112.332 113.393C113.389 112.855 114.304 112.076 115.004 111.119C115.703 110.161 116.168 109.053 116.359 107.883C116.551 106.713 116.465 105.514 116.107 104.383ZM111.811 108.666C111.482 109.126 111.049 109.502 110.547 109.761C110.044 110.021 109.487 110.157 108.922 110.159H77.7337C77.1682 110.157 76.6113 110.021 76.109 109.761C75.6067 109.502 75.1734 109.126 74.8449 108.666C74.5353 108.244 74.3321 107.754 74.2526 107.237C74.1731 106.72 74.2196 106.192 74.3882 105.697C75.7427 101.75 78.2961 98.3257 81.6917 95.9011C85.0873 93.4766 89.1554 92.1732 93.3278 92.1732C97.5001 92.1732 101.568 93.4766 104.964 95.9011C108.359 98.3257 110.913 101.75 112.267 105.697C112.436 106.192 112.482 106.72 112.403 107.237C112.323 107.754 112.12 108.244 111.811 108.666Z" fill="white"/>
</svg>
