<svg width="282" height="144" viewBox="0 0 282 144" fill="none" xmlns="http://www.w3.org/2000/svg">
<path d="M69.1458 123.953C68.9605 123.953 68.7755 123.938 68.5929 123.907C67.2225 123.674 34.8992 117.978 23.7742 98.9735C19.4402 91.5691 18.8825 83.223 22.1187 74.1678C23.6481 69.8221 26.1765 65.8962 29.5003 62.7061C32.8241 59.5159 36.8504 57.1508 41.2552 55.8009C48.9369 53.4108 57.0042 54.2712 63.8669 58.1033C67.8025 53.1304 73.3587 48.5128 80.4269 44.3477C86.0977 41.0016 93.0305 40.4247 98.9723 42.7957C105.398 45.3595 110.397 50.9729 113.429 59.0291C116.08 66.075 117.006 74.5215 116.033 82.8119C115.129 90.5127 112.687 97.4025 108.972 102.737C104.67 108.907 98.8289 112.693 92.0681 113.687C82.366 115.121 75.3998 110.929 73.4351 102.493C72.3277 97.7419 72.9237 92.0073 75.0715 86.7603C77.3405 81.2137 80.9368 77.294 84.9378 76.0034C88.7364 74.7781 95.9926 74.8338 101.882 88.9687C102.061 89.3686 102.158 89.8003 102.168 90.2384C102.178 90.6765 102.099 91.112 101.938 91.5194C101.776 91.9268 101.535 92.2977 101.228 92.6102C100.921 92.9227 100.554 93.1705 100.15 93.339C99.7451 93.5076 99.3109 93.5933 98.8727 93.5913C98.4345 93.5893 98.0012 93.4995 97.5983 93.3272C97.1954 93.1549 96.831 92.9037 96.5268 92.5884C96.2226 92.273 95.9846 91.8999 95.8269 91.491C94.4901 88.2836 90.9512 80.9588 86.9518 82.2494C82.5349 83.6723 78.1038 93.615 79.8262 101.007C81.0149 106.113 84.7067 108.139 91.1121 107.205C102.704 105.5 108.22 93.0956 109.516 82.055C111.076 68.7726 107.126 53.1176 96.5392 48.8968C92.4697 47.2731 87.6911 47.689 83.7555 50.0121C76.7876 54.1183 72.2019 58.2133 69.1999 61.9466C73.5945 65.9635 76.0515 70.9587 76.0228 76.0066C75.9941 82.0056 71.3494 85.2227 66.7812 85.3007H66.6059C62.0472 85.3007 57.3643 82.2207 57.1396 76.2567C57.0233 73.2532 57.5252 68.8013 60.2531 63.618C57.6555 62.2431 54.8103 61.3989 51.8832 61.1346C48.9561 60.8704 46.0057 61.1913 43.2039 62.0788C39.7728 63.1299 36.6366 64.9722 34.0478 67.4572C31.459 69.9422 29.49 73.0005 28.2994 76.3858C25.7134 83.6261 26.083 89.9295 29.4339 95.6657C38.999 112.015 69.388 117.387 69.6939 117.439C70.5027 117.579 71.2299 118.017 71.7318 118.666C72.2337 119.315 72.474 120.129 72.4052 120.947C72.3364 121.765 71.9634 122.528 71.36 123.084C70.7566 123.641 69.9666 123.951 69.1458 123.953ZM65.618 67.5855C63.886 71.2503 63.6327 74.2252 63.706 75.9906C63.8063 78.5751 66.0068 78.7376 66.6776 78.728C67.3484 78.7185 69.4628 78.4843 69.4756 75.9619C69.4772 73.0954 68.1037 70.1572 65.618 67.5855Z" fill="white"/>
<path d="M87.9049 58.7662C86.4903 58.7665 85.1075 59.1862 83.9315 59.9724C82.7554 60.7585 81.8389 61.8757 81.2978 63.1827C80.7567 64.4897 80.6152 65.9279 80.8914 67.3152C81.1676 68.7026 81.8489 69.977 82.8493 70.9771C83.8497 71.9773 85.1242 72.6584 86.5116 72.9342C87.8991 73.2101 89.3372 73.0683 90.644 72.5269C91.9509 71.9855 93.0679 71.0687 93.8538 69.8925C94.6397 68.7163 95.0591 67.3334 95.0591 65.9188C95.0594 64.9794 94.8744 64.049 94.515 63.181C94.1555 62.313 93.6285 61.5244 92.9641 60.8601C92.2997 60.1958 91.5109 59.669 90.6428 59.3097C89.7747 58.9504 88.8444 58.7657 87.9049 58.7662ZM87.9049 68.5639C87.3814 68.5635 86.8698 68.408 86.4348 68.1169C85.9997 67.8259 85.6607 67.4123 85.4607 66.9286C85.2607 66.4449 85.2086 65.9127 85.311 65.3994C85.4135 64.886 85.6658 64.4146 86.0362 64.0447C86.4065 63.6748 86.8782 63.423 87.3917 63.3212C87.9051 63.2194 88.4373 63.2721 88.9207 63.4727C89.4042 63.6733 89.8174 64.0128 90.1079 64.4482C90.3985 64.8836 90.5534 65.3954 90.5531 65.9188C90.5514 66.6199 90.2716 67.2917 89.7751 67.7867C89.2786 68.2817 88.606 68.5595 87.9049 68.5591V68.5639Z" fill="white"/>
<path d="M80.7553 25.3577C81.4869 25.3574 82.2021 25.5741 82.8105 25.9803C83.419 26.3866 83.8932 26.9642 84.1733 27.64C84.4534 28.3158 84.5268 29.0595 84.3842 29.7771C84.2415 30.4946 83.8893 31.1537 83.3719 31.671C82.8546 32.1883 82.1955 32.5406 81.478 32.6832C80.7605 32.8259 80.0167 32.7525 79.3409 32.4724C78.6651 32.1923 78.0875 31.718 77.6813 31.1096C77.275 30.5012 77.0583 29.786 77.0587 29.0544C77.0599 28.0744 77.4498 27.1348 78.1428 26.4419C78.8358 25.7489 79.7753 25.359 80.7553 25.3577ZM80.7553 20.047C78.9734 20.047 77.2316 20.5754 75.75 21.5654C74.2685 22.5554 73.1138 23.9625 72.4319 25.6088C71.7501 27.255 71.5718 29.0665 71.9195 30.8141C72.2673 32.5617 73.1255 34.167 74.3856 35.4268C75.6456 36.6867 77.251 37.5446 78.9987 37.892C80.7464 38.2395 82.5579 38.0608 84.204 37.3787C85.8501 36.6966 87.257 35.5417 88.2468 34.0599C89.2365 32.5782 89.7646 30.8363 89.7643 29.0544C89.7643 27.8714 89.5313 26.7 89.0785 25.607C88.6257 24.5141 87.9621 23.5211 87.1255 22.6846C86.2889 21.8482 85.2958 21.1848 84.2028 20.7322C83.1098 20.2796 81.9383 20.0468 80.7553 20.047Z" fill="white"/>
<path d="M51.185 39.4544C51.9165 39.4544 52.6316 39.6713 53.2398 40.0778C53.848 40.4842 54.322 41.0619 54.6019 41.7377C54.8817 42.4136 54.9549 43.1573 54.8121 43.8747C54.6692 44.5921 54.3168 45.2511 53.7995 45.7682C53.2821 46.2854 52.623 46.6375 51.9055 46.78C51.188 46.9225 50.4444 46.849 49.7686 46.5689C49.0929 46.2887 48.5154 45.8145 48.1092 45.2061C47.7031 44.5977 47.4864 43.8825 47.4868 43.151C47.4876 42.1705 47.8775 41.2303 48.5709 40.5369C49.2642 39.8435 50.2044 39.4536 51.185 39.4528M51.185 34.1421C49.4035 34.1433 47.6623 34.6728 46.1816 35.6634C44.7009 36.6541 43.5472 38.0616 42.8663 39.7079C42.1854 41.3541 42.0079 43.1653 42.3563 44.9125C42.7046 46.6596 43.5631 48.2643 44.8233 49.5236C46.0835 50.7829 47.6888 51.6403 49.4361 51.9874C51.1835 52.3345 52.9946 52.1557 54.6404 51.4736C56.2862 50.7916 57.6929 49.6369 58.6825 48.1555C59.6721 46.6741 60.2003 44.9326 60.2003 43.151C60.2003 40.762 59.2514 38.4708 57.5622 36.7813C55.8731 35.0918 53.582 34.1425 51.193 34.1421H51.185Z" fill="white"/>
<path d="M85.5718 71.8415C87.5931 71.8415 89.2318 70.2028 89.2318 68.1815C89.2318 66.1601 87.5931 64.5215 85.5718 64.5215C83.5504 64.5215 81.9118 66.1601 81.9118 68.1815C81.9118 70.2028 83.5504 71.8415 85.5718 71.8415Z" fill="white"/>
<path d="M127.123 100.433C126.974 100.433 126.827 100.404 126.69 100.347C126.553 100.29 126.429 100.207 126.324 100.102C126.219 99.9972 126.136 99.8726 126.08 99.7356C126.023 99.5985 125.994 99.4517 125.994 99.3034V44.6966C125.989 44.5448 126.014 44.3934 126.068 44.2514C126.122 44.1095 126.204 43.9799 126.31 43.8705C126.415 43.7611 126.541 43.674 126.681 43.6146C126.821 43.5551 126.971 43.5245 127.123 43.5245C127.275 43.5245 127.426 43.5551 127.565 43.6146C127.705 43.674 127.832 43.7611 127.937 43.8705C128.042 43.9799 128.125 44.1095 128.179 44.2514C128.233 44.3934 128.258 44.5448 128.252 44.6966V99.3034C128.252 99.4518 128.223 99.5988 128.167 99.736C128.11 99.8731 128.027 99.9977 127.922 100.103C127.817 100.208 127.692 100.291 127.555 100.348C127.418 100.404 127.271 100.433 127.123 100.433Z" fill="white"/>
<path d="M142.441 58.8554C142.88 58.0982 143.509 57.4688 144.266 57.0294C145.026 56.5856 145.892 56.355 146.772 56.3617H147.091C147.75 56.3586 148.402 56.486 149.012 56.7366C149.621 56.9873 150.174 57.3562 150.64 57.822C151.106 58.2878 151.475 58.8413 151.726 59.4505C151.976 60.0597 152.104 60.7126 152.1 61.3713V62.4102C152.107 63.29 151.877 64.1554 151.433 64.915C150.996 65.6707 150.37 66.3 149.616 66.741C148.86 67.1918 147.994 67.4265 147.113 67.4198H146.774C145.881 67.4309 145.001 67.2038 144.224 66.7617C143.473 66.3371 142.849 65.7179 142.419 64.9692C141.976 64.1973 141.75 63.3206 141.763 62.4309V61.3697C141.757 60.4856 141.992 59.6166 142.441 58.8554ZM142.696 54.9181C142.499 54.7292 142.343 54.5017 142.237 54.2498C142.131 53.9979 142.078 53.727 142.081 53.4538C142.08 53.1839 142.133 52.9165 142.239 52.6682C142.345 52.4199 142.5 52.196 142.696 52.0102C142.887 51.8151 143.115 51.6601 143.366 51.5542C143.618 51.4483 143.888 51.3938 144.161 51.3938C144.433 51.3938 144.703 51.4483 144.955 51.5542C145.206 51.6601 145.434 51.8151 145.625 52.0102C145.821 52.1961 145.976 52.4201 146.082 52.6683C146.188 52.9166 146.243 53.1839 146.242 53.4538C146.243 53.8654 146.122 54.2681 145.894 54.6107C145.666 54.9533 145.341 55.2201 144.961 55.3772C144.581 55.5343 144.162 55.5746 143.759 55.4928C143.355 55.411 142.985 55.211 142.696 54.9181ZM145.795 63.3758C145.92 63.509 146.072 63.6147 146.24 63.686C146.408 63.7573 146.589 63.7928 146.772 63.7901H147.28C147.438 63.7919 147.593 63.7608 147.738 63.6988C147.882 63.6368 148.012 63.5452 148.119 63.43C148.231 63.3191 148.32 63.1868 148.38 63.041C148.44 62.8951 148.471 62.7385 148.469 62.5807V61.3713C148.479 61.1859 148.45 61.0004 148.384 60.8268C148.318 60.6532 148.217 60.4951 148.087 60.3627C147.954 60.2372 147.797 60.1397 147.626 60.0759C147.454 60.0122 147.272 59.9834 147.089 59.9915H146.771C146.588 59.9834 146.405 60.0121 146.233 60.0759C146.062 60.1396 145.905 60.2372 145.771 60.3627C145.642 60.4953 145.541 60.6534 145.475 60.827C145.409 61.0006 145.381 61.186 145.391 61.3713V62.4102C145.39 62.5901 145.425 62.7683 145.495 62.9342C145.564 63.1001 145.667 63.2503 145.795 63.3758ZM147.961 54.9181C147.763 54.7293 147.607 54.5018 147.501 54.25C147.394 53.9981 147.341 53.7271 147.344 53.4538C147.343 53.1838 147.397 52.9164 147.503 52.6681C147.609 52.4198 147.765 52.1959 147.961 52.0102C148.151 51.8151 148.379 51.6601 148.631 51.5542C148.882 51.4483 149.152 51.3938 149.425 51.3938C149.698 51.3938 149.968 51.4483 150.219 51.5542C150.471 51.6601 150.699 51.8151 150.889 52.0102C151.085 52.1962 151.24 52.4202 151.346 52.6685C151.452 52.9167 151.506 53.184 151.504 53.4538C151.506 53.865 151.385 54.2674 151.157 54.6096C150.929 54.9518 150.604 55.2184 150.224 55.3755C149.844 55.5325 149.426 55.5729 149.023 55.4914C148.62 55.41 148.25 55.2104 147.961 54.9181Z" fill="white"/>
<path d="M254.485 58.6323V62.7305C254.489 63.5632 254.269 64.3816 253.848 65.0999C253.433 65.8175 252.838 66.4137 252.12 66.8287C251.402 67.251 250.583 67.4713 249.749 67.466C248.684 67.4834 247.647 67.122 246.822 66.4463C245.866 67.1729 244.878 67.5314 243.83 67.5314C243.326 67.5395 242.826 67.4497 242.356 67.2669C241.863 67.0604 241.402 66.784 240.987 66.4463C240.12 67.1226 239.047 67.4824 237.947 67.466H160.759C160.758 68.3587 160.519 69.2351 160.069 70.0059C159.634 70.7515 159.008 71.3676 158.256 71.7905C157.475 72.2195 156.597 72.4391 155.706 72.4278H155.432C154.915 72.446 154.411 72.2633 154.025 71.9179C153.848 71.753 153.708 71.5524 153.614 71.3294C153.52 71.1065 153.474 70.8661 153.479 70.6241C153.474 70.3808 153.521 70.1393 153.615 69.9149C153.709 69.6905 153.849 69.4881 154.025 69.3207C154.407 68.9685 154.913 68.7817 155.432 68.8013H155.706C155.895 68.8085 156.083 68.778 156.26 68.7115C156.437 68.645 156.599 68.5439 156.736 68.4141C156.871 68.2785 156.976 68.1159 157.045 67.9369C157.113 67.7579 157.143 67.5665 157.132 67.3752V59.104C157.113 58.5848 157.3 58.0789 157.652 57.697C157.817 57.5177 158.019 57.376 158.244 57.2815C158.469 57.1869 158.711 57.1417 158.955 57.1489C159.198 57.1419 159.439 57.1873 159.662 57.2819C159.885 57.3765 160.086 57.5181 160.249 57.697C160.595 58.0825 160.777 58.5867 160.759 59.104V63.8347H237.952C238.12 63.8434 238.288 63.8177 238.445 63.7594C238.603 63.701 238.747 63.6112 238.868 63.4953C238.982 63.3765 239.071 63.2358 239.13 63.0816C239.188 62.9274 239.215 62.763 239.208 62.5983V60.9268C239.189 60.4095 239.372 59.9052 239.717 59.5198C239.885 59.3464 240.086 59.2084 240.309 59.1142C240.531 59.02 240.77 58.9715 241.011 58.9715C241.253 58.9715 241.492 59.02 241.714 59.1142C241.936 59.2084 242.137 59.3464 242.305 59.5198C242.651 59.9052 242.834 60.4095 242.815 60.9268V62.5983C242.796 62.9478 242.903 63.2927 243.116 63.5702C243.214 63.6843 243.337 63.7749 243.475 63.8353C243.613 63.8957 243.762 63.9244 243.913 63.9192C244.062 63.9238 244.211 63.8958 244.349 63.8372C244.486 63.7786 244.609 63.6907 244.71 63.5798C244.936 63.3045 245.05 62.9539 245.028 62.5983V60.9268C245.008 60.4076 245.195 59.9017 245.548 59.5198C245.715 59.343 245.917 59.2029 246.142 59.1085C246.366 59.0141 246.608 58.9676 246.851 58.9717C247.093 58.9658 247.334 59.0116 247.557 59.1061C247.78 59.2007 247.981 59.3417 248.145 59.5198C248.491 59.9052 248.673 60.4095 248.655 60.9268V62.5983C248.646 62.7629 248.669 62.9277 248.724 63.0833C248.779 63.2388 248.863 63.3821 248.973 63.5049C249.075 63.613 249.199 63.6982 249.336 63.7551C249.474 63.8119 249.622 63.8391 249.77 63.8347C249.916 63.836 250.06 63.8083 250.194 63.7533C250.329 63.6983 250.451 63.617 250.554 63.5142C250.657 63.4115 250.739 63.2892 250.794 63.1547C250.849 63.0201 250.877 62.8759 250.876 62.7305V58.6323C250.866 58.3766 250.906 58.1214 250.996 57.8816C251.085 57.6417 251.221 57.4219 251.395 57.2349C251.561 57.0551 251.763 56.9125 251.987 56.8163C252.212 56.7202 252.454 56.6728 252.699 56.6772C252.942 56.6711 253.183 56.7178 253.406 56.814C253.629 56.9103 253.829 57.0539 253.991 57.2349C254.331 57.6186 254.508 58.12 254.485 58.6323Z" fill="white"/>
<path d="M260.527 43.4777C260.277 43.781 259.927 43.9846 259.54 44.0513L257.142 44.8368C257.066 44.8581 256.988 44.872 256.91 44.8783C256.824 44.8771 256.739 44.8586 256.66 44.8238C256.582 44.789 256.511 44.7387 256.452 44.6759C256.388 44.6142 256.337 44.5399 256.302 44.4577C256.268 44.3755 256.251 44.2871 256.252 44.1979C256.252 44.0566 256.296 43.9189 256.379 43.8043C256.461 43.6866 256.581 43.6005 256.719 43.5605L257.802 43.2211C257.66 42.9684 257.586 42.6827 257.589 42.3926C257.587 42.172 257.63 41.9534 257.714 41.7495C257.798 41.5455 257.922 41.3603 258.078 41.2044C258.234 41.0485 258.419 40.9251 258.623 40.8413C258.827 40.7576 259.046 40.7151 259.266 40.7163C259.484 40.7137 259.699 40.7557 259.9 40.8395C260.101 40.9234 260.282 41.0474 260.433 41.2039C260.729 41.5027 260.903 41.9013 260.92 42.3215C260.938 42.7417 260.798 43.1534 260.528 43.4761L260.527 43.4777ZM259.7 42.8196C259.808 42.6969 259.865 42.5371 259.859 42.3735C259.86 42.3007 259.846 42.2285 259.819 42.1611C259.791 42.0937 259.75 42.0325 259.699 41.9811C259.647 41.9298 259.586 41.8892 259.519 41.8619C259.451 41.8346 259.379 41.8211 259.306 41.8221C259.232 41.8209 259.158 41.8343 259.089 41.8617C259.02 41.889 258.956 41.9297 258.903 41.9815C258.848 42.0309 258.805 42.0915 258.776 42.1591C258.747 42.2268 258.733 42.2998 258.734 42.3735C258.73 42.4554 258.743 42.5372 258.773 42.614C258.802 42.6907 258.846 42.7607 258.903 42.8196C258.955 42.8738 259.018 42.9168 259.087 42.9458C259.156 42.9749 259.231 42.9894 259.306 42.9885C259.38 42.99 259.453 42.9758 259.521 42.9466C259.589 42.9175 259.65 42.8742 259.7 42.8196Z" fill="white"/>
<path d="M261.653 49.3047C261.789 49.4414 261.881 49.6154 261.919 49.8045C261.956 49.9937 261.936 50.1896 261.862 50.3676C261.788 50.5457 261.663 50.6979 261.503 50.805C261.343 50.9121 261.154 50.9695 260.962 50.9698H257.566C257.307 50.9689 257.059 50.8657 256.876 50.6827C256.693 50.4998 256.59 50.2518 256.589 49.993C256.588 49.7733 256.663 49.5601 256.801 49.3891C256.935 49.2172 257.121 49.094 257.332 49.0386C257.004 48.6631 256.83 48.1777 256.844 47.6794C256.835 47.3843 256.887 47.0904 256.997 46.8163C257.106 46.5421 257.271 46.2935 257.482 46.086C257.907 45.6686 258.491 45.4598 259.234 45.4598C259.739 45.4434 260.238 45.5759 260.668 45.8407C261.068 46.1094 261.375 46.495 261.548 46.9449C261.592 47.0524 261.614 47.168 261.612 47.2843C261.612 47.4038 261.588 47.522 261.54 47.6317C261.493 47.7414 261.423 47.8401 261.336 47.9216C261.251 48.0103 261.149 48.0805 261.036 48.1279C260.922 48.1754 260.801 48.199 260.678 48.1973H260.648C260.492 48.1999 260.338 48.1597 260.203 48.0811C260.068 48.0024 259.957 47.8883 259.883 47.7511C259.821 47.6486 259.734 47.5636 259.63 47.5042C259.526 47.4448 259.408 47.413 259.289 47.4117C259.132 47.4072 258.979 47.4561 258.854 47.5504C258.796 47.5931 258.749 47.6492 258.718 47.7138C258.686 47.7785 258.671 47.8498 258.673 47.9216C258.689 48.1106 258.751 48.2929 258.854 48.4522C258.998 48.6887 259.198 48.8858 259.437 49.0258H260.966C261.094 49.0237 261.22 49.0473 261.338 49.0952C261.456 49.1431 261.563 49.2144 261.653 49.3047ZM260.538 53.2196C260.709 53.3846 260.844 53.5828 260.935 53.802C261.026 54.0213 261.072 54.2569 261.068 54.4943V65.6575C261.067 66.1356 260.876 66.5935 260.538 66.9317C260.2 67.2698 259.743 67.4607 259.265 67.4628C259.024 67.4676 258.785 67.423 258.562 67.3317C258.339 67.2404 258.137 67.1045 257.969 66.9323C257.798 66.7673 257.663 66.5691 257.572 66.3499C257.481 66.1306 257.435 65.895 257.439 65.6575V54.4943C257.435 54.2569 257.481 54.0213 257.572 53.802C257.663 53.5828 257.798 53.3846 257.969 53.2196C258.137 53.0474 258.339 52.9114 258.562 52.8202C258.785 52.7289 259.024 52.6843 259.265 52.689C259.502 52.6859 259.737 52.7314 259.956 52.8226C260.175 52.9139 260.373 53.049 260.538 53.2196Z" fill="white"/>
<path d="M141.904 93.3186L147.558 77.4756C147.806 76.7476 148.282 76.119 148.915 75.6831C149.547 75.243 150.299 75.0082 151.069 75.0107C151.838 75.0133 152.589 75.2531 153.217 75.6974C153.854 76.1325 154.327 76.768 154.561 77.5027L160.075 93.1179C160.151 93.3439 160.189 93.5807 160.188 93.819C160.193 94.1054 160.138 94.3898 160.029 94.6545C159.919 94.9192 159.757 95.1586 159.551 95.3582C159.347 95.5657 159.103 95.7294 158.833 95.839C158.563 95.9486 158.274 96.0019 157.983 95.9955C157.524 95.9987 157.077 95.8402 156.723 95.5478C156.352 95.2529 156.079 94.8531 155.939 94.4005L155.099 91.797H146.721L145.714 94.5965C145.579 95.006 145.319 95.363 144.972 95.6179C144.671 95.8338 144.317 95.9626 143.948 95.9898C143.579 96.017 143.21 95.9417 142.881 95.7722C142.552 95.6027 142.277 95.3456 142.085 95.0293C141.893 94.713 141.793 94.3498 141.794 93.9799C141.793 93.7548 141.83 93.5311 141.904 93.3186ZM147.677 88.4206H154.228L150.864 78.8189L147.677 88.4206Z" fill="white"/>
<path d="M163.668 75.6146C163.859 75.419 164.088 75.2646 164.34 75.161C164.593 75.0574 164.864 75.0068 165.137 75.0123C165.408 75.0097 165.677 75.0617 165.927 75.1652C166.177 75.2687 166.404 75.4215 166.594 75.6146C166.793 75.8035 166.95 76.0316 167.056 76.2845C167.162 76.5374 167.214 76.8096 167.209 77.0837V87.4693C167.209 89.0925 167.549 90.3056 168.23 91.1086C168.911 91.9117 170.166 92.3127 171.995 92.3116C173.208 92.3116 174.128 92.1204 174.754 91.738C175.36 91.3782 175.809 90.8039 176.012 90.1287C176.225 89.4393 176.331 88.5151 176.331 87.3562V77.0901C176.329 76.8175 176.381 76.5473 176.485 76.2951C176.588 76.0429 176.741 75.8138 176.933 75.6211C177.126 75.4284 177.355 75.2759 177.607 75.1725C177.86 75.069 178.13 75.0168 178.402 75.0187H178.46C178.73 75.0161 178.999 75.0682 179.248 75.1716C179.498 75.2751 179.725 75.4279 179.914 75.621C180.114 75.8096 180.271 76.0376 180.378 76.2905C180.484 76.5435 180.536 76.8158 180.531 77.0901V87.9505C180.531 93.4382 177.685 96.1814 171.992 96.1804C169.137 96.1804 166.935 95.4761 165.386 94.0675C163.837 92.659 163.063 90.6577 163.063 88.0637V77.0901C163.057 76.8157 163.108 76.5431 163.212 76.2893C163.316 76.0354 163.472 75.8058 163.668 75.6146Z" fill="white"/>
<path d="M196.769 84.6554C197.609 85.0608 198.32 85.6906 198.825 86.4751C199.338 87.2686 199.594 88.309 199.594 89.5965C199.594 91.892 198.782 93.5996 197.158 94.7192C195.534 95.8388 193.434 96.3986 190.858 96.3986C189.262 96.4055 187.69 96.0162 186.282 95.2658C184.854 94.5094 183.907 93.2262 183.441 91.4161C183.342 91.1138 183.329 90.79 183.403 90.4806C183.477 90.1712 183.635 89.8884 183.86 89.6634C184.018 89.4961 184.209 89.3636 184.421 89.2745C184.633 89.1853 184.861 89.1414 185.091 89.1456C185.426 89.1394 185.756 89.2315 186.039 89.4105C186.322 89.5894 186.547 89.8474 186.685 90.1526C186.929 90.9264 187.436 91.5904 188.119 92.0296C188.845 92.5331 189.89 92.7849 191.253 92.7849C192.559 92.7849 193.642 92.5331 194.5 92.0296C195.359 91.5261 195.788 90.8818 195.788 90.0968C195.788 89.4595 195.592 88.9602 195.2 88.599C194.808 88.2379 194.22 87.9442 193.437 87.7179C192.293 87.4166 191.134 87.1735 189.965 86.9897C187.841 86.6541 186.175 86.0523 184.969 85.1844C183.762 84.3166 183.16 82.968 183.163 81.1388C183.163 79.1206 183.849 77.5394 185.22 76.3953C186.592 75.2513 188.472 74.6771 190.861 74.6729C192.654 74.6729 194.152 74.9762 195.354 75.5827C196.515 76.1458 197.449 77.0893 197.999 78.2564C198.163 78.537 198.25 78.8558 198.251 79.1806C198.252 79.4271 198.205 79.6713 198.111 79.8994C198.018 80.1274 197.88 80.3348 197.706 80.5094C197.533 80.6955 197.323 80.8428 197.089 80.9417C196.855 81.0405 196.602 81.0887 196.349 81.0831H196.293C195.995 81.0836 195.702 81.0114 195.439 80.8727C195.165 80.731 194.93 80.5249 194.754 80.272C194.49 79.6549 194.005 79.1694 193.297 78.8157C192.529 78.4484 191.685 78.2661 190.834 78.2835C189.603 78.2835 188.647 78.4795 187.966 78.8715C187.643 79.0431 187.376 79.3026 187.196 79.6199C187.015 79.9372 186.928 80.2992 186.944 80.664C186.939 80.8916 186.988 81.1172 187.088 81.3218C187.188 81.5264 187.335 81.7041 187.518 81.8399C187.991 82.1814 188.522 82.4326 189.086 82.5808C189.747 82.7763 190.768 83.0238 192.15 83.3234L193.584 83.6309C194.684 83.8394 195.754 84.1836 196.769 84.6554Z" fill="white"/>
<path d="M217.786 94.0468C217.788 94.3011 217.739 94.5532 217.643 94.7886C217.547 95.0241 217.406 95.2382 217.226 95.4187C217.052 95.6079 216.84 95.7581 216.603 95.8594C216.367 95.9607 216.112 96.0109 215.855 96.0067C215.477 96.0115 215.107 95.9045 214.79 95.6992C214.471 95.4911 214.226 95.187 214.091 94.8308L210.34 87.7482H206.476V94.0755C206.478 94.329 206.428 94.5802 206.33 94.8137C206.231 95.0471 206.086 95.2579 205.902 95.4331C205.723 95.6181 205.507 95.7645 205.269 95.8631C205.031 95.9618 204.775 96.0106 204.518 96.0067H204.489C204.231 96.0109 203.975 95.9621 203.736 95.8635C203.498 95.7648 203.282 95.6183 203.103 95.4331C202.919 95.2579 202.774 95.0471 202.675 94.8137C202.577 94.5802 202.527 94.329 202.529 94.0755V78.5114C202.524 77.8943 202.69 77.2878 203.007 76.7586C203.32 76.2307 203.763 75.7918 204.295 75.4839C204.819 75.1713 205.419 75.0062 206.03 75.0059H210.37C215.334 75.0059 217.816 77.0401 217.816 81.1086V81.4448C217.816 82.694 217.536 83.7483 216.975 84.6076C216.414 85.467 215.593 86.0735 214.511 86.4273L213.785 86.7061L217.596 93.1832C217.726 93.4523 217.791 93.7481 217.786 94.0468ZM212.915 83.7042C213.552 83.2464 213.871 82.5697 213.871 81.6742V81.3109C213.871 79.5763 212.621 78.7084 210.12 78.7073H206.481V84.3893H210.093C211.343 84.3893 212.286 84.161 212.921 83.7042H212.915Z" fill="white"/>
<path d="M221.095 93.3186L226.748 77.4757C226.996 76.7472 227.473 76.1185 228.108 75.6831C228.739 75.2425 229.491 75.0075 230.261 75.01C231.031 75.0126 231.781 75.2527 232.41 75.6974C233.046 76.1329 233.52 76.7681 233.755 77.5027L239.268 93.1179C239.343 93.3439 239.381 93.5807 239.381 93.819C239.385 94.1054 239.331 94.3898 239.221 94.6545C239.112 94.9192 238.949 95.1587 238.743 95.3582C238.54 95.5659 238.295 95.7296 238.025 95.8392C237.756 95.9489 237.467 96.002 237.176 95.9955C236.716 95.9984 236.27 95.84 235.915 95.5478C235.544 95.2532 235.272 94.8532 235.133 94.4005L234.292 91.797H225.912L224.903 94.5965C224.768 95.006 224.509 95.363 224.161 95.6179C223.825 95.8674 223.417 96 222.999 95.9955C222.677 95.9945 222.36 95.9164 222.074 95.7679C221.788 95.6194 221.542 95.4047 221.355 95.1417C221.169 94.8787 221.049 94.575 221.004 94.2559C220.959 93.9369 220.991 93.6117 221.097 93.3075L221.095 93.3186ZM226.868 88.4206H233.418L230.055 78.8189L226.868 88.4206Z" fill="white"/>
<path d="M243.084 75.6146C243.269 75.4218 243.492 75.2689 243.739 75.1653C243.985 75.0618 244.251 75.0097 244.518 75.0123C244.789 75.0097 245.057 75.0618 245.307 75.1653C245.557 75.2687 245.783 75.4216 245.973 75.6146C246.169 75.798 246.325 76.0201 246.432 76.2669C246.538 76.5138 246.591 76.7799 246.589 77.0486V83.9416H256.027V77.055C256.025 76.7863 256.079 76.5201 256.185 76.2733C256.291 76.0265 256.447 75.8043 256.644 75.621C256.833 75.4278 257.06 75.2749 257.31 75.1714C257.56 75.0679 257.828 75.0159 258.098 75.0187C258.639 75.022 259.157 75.2382 259.54 75.6205C259.922 76.0029 260.139 76.5205 260.143 77.0614V93.9353C260.148 94.2086 260.097 94.48 259.994 94.733C259.89 94.9859 259.736 95.215 259.54 95.406C259.355 95.5983 259.132 95.7508 258.885 95.8541C258.639 95.9574 258.374 96.0093 258.106 96.0067C257.836 96.0097 257.568 95.958 257.318 95.8548C257.068 95.7516 256.841 95.5989 256.652 95.406C256.452 95.217 256.295 94.9887 256.189 94.7355C256.082 94.4823 256.03 94.2098 256.035 93.9353V87.7482H246.602V93.9353C246.609 94.2109 246.557 94.4848 246.452 94.7394C246.346 94.994 246.188 95.2238 245.989 95.4139C245.799 95.6067 245.573 95.7593 245.323 95.8625C245.073 95.9657 244.804 96.0175 244.534 96.0146C244.267 96.0175 244.001 95.9657 243.755 95.8624C243.508 95.7591 243.285 95.6065 243.1 95.4139C242.904 95.2229 242.75 94.9939 242.647 94.7409C242.543 94.488 242.492 94.2165 242.498 93.9432V77.055C242.492 76.7876 242.541 76.522 242.642 76.2743C242.743 76.0266 242.893 75.8021 243.084 75.6146Z" fill="white"/>
</svg>
