<svg width="261" height="43" viewBox="0 0 261 43" fill="none" xmlns="http://www.w3.org/2000/svg">
<path d="M260.897 10.4691C260.932 10.095 260.966 9.7208 261 9.34662C252.439 8.43734 243.839 7.86277 235.232 7.53558C200.785 6.2839 166.303 8.67946 132.106 12.6734C119.857 14.0992 107.546 15.825 95.4333 17.4433C63.6741 20.9692 31.4078 12.1672 2.00907 0.123431L1.36575 2.77976C28.4189 4.11902 55.4841 4.98795 82.4822 6.79569C95.9918 7.72443 109.466 8.82005 122.826 10.7927C129.488 11.8095 136.143 12.9944 142.474 15.0091C145.605 16.0443 148.845 17.2923 151.167 19.3059C153.708 21.2651 153.33 24.4367 151.022 26.8104C149.08 29.0503 147.474 31.032 146.21 33.7196C146.063 34.0447 145.936 34.362 145.827 34.6722C145.698 35.0382 145.582 35.4412 145.505 35.8099C145.426 36.1896 145.38 36.5241 145.363 36.9188C145.345 37.3505 145.376 37.7676 145.458 38.1658C145.752 39.8403 147.212 41.1107 148.537 41.6738C154.126 43.7455 159.692 42.7927 165.047 42.2206C175.829 40.7359 186.346 38.066 196.783 35.2213C205.01 32.9835 213.557 30.2726 221.371 28.006C221.52 28.0052 221.663 27.9458 221.768 27.8402C221.874 27.7345 221.933 27.5915 221.933 27.4424C221.933 27.2933 221.874 27.1502 221.768 27.0446C221.663 26.9389 221.52 26.8795 221.371 26.8788C212.844 29.1672 204.758 31.7271 196.426 33.8994C185.998 36.6418 175.479 39.2096 164.838 40.5842C159.626 41.1424 153.893 41.8575 149.282 40.0569C146.941 39.1358 146.739 36.7761 147.887 34.482C149.006 32.1387 150.555 30.216 152.445 28.0743C153.713 26.6211 154.764 25.0965 154.93 23.0042C155.093 20.9225 153.847 19.0295 152.491 17.8364C149.712 15.4184 146.358 14.1758 143.113 13.0615C136.584 10.9359 129.876 9.70416 123.157 8.63266C109.697 6.55749 96.1909 5.38086 82.6521 4.37634C55.6036 2.41871 28.5239 1.43098 1.50906 0.00233502C-0.0913014 -0.0797222 -0.59526 2.00035 0.865733 2.65866C30.706 14.9761 63.058 23.9694 95.8125 20.4079C107.986 18.793 120.232 17.0819 132.458 15.6587C166.565 11.6759 200.855 8.89221 235.185 9.33851C243.764 9.46452 252.342 9.81197 260.897 10.4691Z" fill="#008695"/>
</svg>
