<svg width="226" height="103" viewBox="0 0 226 103" fill="none" xmlns="http://www.w3.org/2000/svg">
<path d="M66.4122 27.3337C66.4122 35.0953 66.6299 42.8612 66.3589 50.6139C65.9812 61.5217 74.9743 69.5 83.492 72.0533C92.6451 74.7968 102.091 74.9782 111.538 75.2083C119.509 75.403 127.485 75.4517 135.442 74.8941C150.585 73.8277 165.114 70.5886 178.457 62.9465C181.239 61.3535 182.207 58.9286 183.22 56.309C183.843 54.7159 184.376 53.0875 184.918 51.468C185.269 50.4148 185.744 49.7864 187.055 50.1404C188.299 50.459 189.357 50.813 189.179 52.353C188.979 54.123 188.735 55.862 188.428 57.6055C187.881 60.9198 189.405 63.8979 192.569 65.1281C199.514 67.8583 206.414 67.0662 213.212 64.5484C214.945 63.9068 215.434 62.3713 214.63 60.4065C213.501 57.6424 212.285 54.9121 210.982 52.2158C210.155 50.5077 210.129 48.9767 211.213 47.3881C212.346 45.7242 213.323 43.9498 214.523 42.3347C215.474 41.0558 216.54 41.1355 217.287 42.4541C221.917 50.6493 221.877 63.7696 216.9 71.2169C214.492 74.8278 210.84 76.527 206.774 77.2792C201.331 78.2749 195.906 78.1643 190.725 75.8278C188.347 74.7824 186.43 72.9129 185.331 70.5665C185.02 69.916 184.713 69.4159 183.998 70.1549C181.332 73.0046 177.742 74.3764 174.37 76.0447C164.67 80.8414 154.331 83.5186 143.649 85.0983C129.835 87.1382 115.954 87.6958 102.02 87.3772C88.8194 87.0763 76.8582 83.0938 66.2967 75.1287C65.177 74.2835 64.1728 73.2923 63.1286 72.3453C62.5599 71.8276 62.0578 71.5488 61.4669 72.3453C57.2325 77.9917 51.1541 78.0315 44.9691 77.6554C42.6253 77.5483 40.3531 76.818 38.3887 75.5402C37.1268 74.7083 36.7314 75.0977 36.5492 76.4695C35.7583 82.3194 34.3987 88.0188 31.164 93.0634C28.498 97.2052 25.3344 100.763 20.1981 101.913C18.0191 102.37 15.7528 102.163 13.6932 101.321C9.51207 99.7408 5.40652 97.9619 1.25209 96.2981C0.447866 96.0149 -0.347473 95.6211 0.159056 94.6608C0.74112 93.5634 0.119067 91.5633 2.32736 91.5943C5.32654 91.6651 8.29907 92.1164 11.3205 92.0368C15.6392 91.9644 19.8379 90.609 23.3781 88.1445C26.9183 85.6799 29.6387 82.2185 31.1906 78.2041C32.5903 74.6154 31.0973 71.655 29.4444 68.677C29.0427 67.7981 28.5577 66.9594 27.9959 66.1724C24.6324 62.1633 25.5522 58.3533 28.3781 54.5611C29.0134 53.7026 29.6622 52.7601 30.7952 52.791C31.9282 52.822 32.1282 54.0433 32.5725 54.9018C33.6211 57.1143 34.3142 59.4286 35.5806 61.5394C36.6724 63.3237 38.3458 64.6811 40.3215 65.3847C44.8471 67.123 49.8154 67.3589 54.4865 66.0573C56.9748 65.4024 57.9878 63.8979 58.0011 61.1898C58.0752 46.8349 58.1463 32.4801 58.2144 18.1252C58.2144 14.5852 58.2988 11.0451 58.3877 7.50511C58.4366 5.56251 59.1697 3.96507 60.9426 2.94289C62.3155 2.13753 63.6352 1.24809 64.9415 0.358658C65.9634 -0.331649 66.3989 0.000229571 66.4077 1.13304C66.4314 3.51372 66.4433 5.89587 66.4433 8.27949C66.4433 14.6339 66.4433 20.9882 66.4433 27.3426L66.4122 27.3337Z" fill="#508D91"/>
<path d="M195.995 89.2225C195.83 89.5577 195.635 89.8776 195.413 90.1783C194.071 91.7566 192.719 93.326 191.356 94.8866C190.663 95.6831 189.908 95.6831 189.134 95.006C188.221 94.2899 187.344 93.5278 186.509 92.7227C185.504 91.6563 184.829 91.9218 184.007 92.9395C183.118 94.0768 182.012 95.0768 181.043 96.1742C180.266 97.0593 179.506 96.953 178.64 96.3158C176.964 95.0724 175.569 93.5281 174.05 92.1165C173.343 91.4616 173.499 90.8819 174.125 90.258C175.68 88.7033 177.215 87.1324 178.728 85.5453C179.506 84.7311 180.181 84.8461 180.888 85.6294C181.461 86.2621 182.079 86.8595 182.665 87.4657C184.256 89.0809 184.553 89.0986 186.175 87.4215C187.193 86.3728 188.153 85.2621 189.121 84.1735C189.605 83.6292 190.09 83.1735 190.796 83.8461C192.382 85.3683 193.969 86.8861 195.542 88.4216C195.727 88.6681 195.879 88.9373 195.995 89.2225Z" fill="#508D91"/>
<path d="M226 27.9356C225.944 28.3595 225.748 28.753 225.445 29.0552C224.277 30.6238 222.976 32.0895 221.557 33.436C220.775 34.1794 220.162 34.3608 219.22 33.5377C218.042 32.4978 216.962 30.7411 215.487 30.7809C214.012 30.8208 213.266 32.8386 212.173 33.9581C210.107 36.0866 210.111 36.1308 207.929 34.2413C206.73 33.2014 205.606 32.073 204.41 31.0243C203.522 30.2411 203.522 29.5242 204.37 28.7233C205.872 27.2851 207.392 25.8647 208.814 24.3558C209.649 23.4708 210.333 23.4708 211.097 24.3558C211.135 24.4031 211.177 24.4475 211.222 24.4885C214.652 27.8825 214.634 27.8692 218.015 24.3071C220.864 21.3069 219.891 21.7406 222.694 24.1168C223.623 24.9045 224.431 25.8382 225.298 26.701C225.494 26.8475 225.658 27.0327 225.779 27.2452C225.899 27.4577 225.975 27.6927 226 27.9356Z" fill="#508D91"/>
<path d="M155.201 29.0862C157.747 27.5728 160.458 26.4312 162.87 24.7629C163.58 24.287 164.233 23.7317 164.817 23.108C165.803 22.0282 165.488 21.422 164.128 21.1565C160.809 20.5002 157.376 20.6935 154.153 21.7185C153.75 21.8672 153.339 21.9928 152.922 22.0946C152.033 22.2672 151.7 21.8335 152.149 21.0857C153.402 19.0015 154.699 16.9262 156.499 15.2535C157.336 14.5267 158.405 14.1204 159.516 14.1074C162.209 13.9877 164.908 14.072 167.589 14.3596C170.131 14.5942 171.188 16.2978 170.495 18.7449C169.353 22.7628 167.096 25.6524 163.11 27.4534C160.52 28.6216 158.01 29.2897 155.201 29.0862Z" fill="#508D91"/>
</svg>
