<svg width="42" height="42" viewBox="0 0 42 42" fill="none" xmlns="http://www.w3.org/2000/svg">
<path d="M33.9791 11.6882C35.7816 13.6027 36.7494 15.75 36.7494 19.2308C36.7494 25.3558 32.4514 30.8455 26.1969 33.5597L24.6341 31.1483C30.4704 27.9912 31.6114 23.8945 32.0681 21.3115C31.1284 21.798 29.8981 21.9678 28.6906 21.8558C25.5336 21.5635 23.0451 18.9718 23.0451 15.75C23.0451 14.1255 23.6904 12.5676 24.8391 11.419C25.9878 10.2703 27.5457 9.625 29.1701 9.625C31.0479 9.625 32.8451 10.4825 33.9791 11.6882ZM16.4791 11.6882C18.2816 13.6027 19.2494 15.75 19.2494 19.2308C19.2494 25.3558 14.9514 30.8455 8.69687 33.5597L7.13413 31.1483C12.9704 27.9912 14.1114 23.8945 14.5664 21.3115C13.6266 21.798 12.3964 21.9678 11.1906 21.8558C8.03362 21.5653 5.54688 18.9735 5.54688 15.75C5.54688 14.1255 6.19219 12.5676 7.34085 11.419C8.48951 10.2703 10.0474 9.625 11.6719 9.625C13.5496 9.625 15.3469 10.4825 16.4809 11.6882" fill="#008695"/>
</svg>
